<mxfile host="app.diagrams.net" modified="2021-12-16T14:06:29.027Z" agent="5.0 (Windows NT 10.0; Win64; x64) AppleWebKit/537.36 (KHTML, like Gecko) Chrome/96.0.4664.93 Safari/537.36" etag="0Nz5Po1v47alxUo56sGK" version="15.9.6" type="github">
  <diagram id="FPaSwwBF4K4yN7ABJkv3" name="FlowerBalance">
    <mxGraphModel dx="2591" dy="794" grid="1" gridSize="5" guides="1" tooltips="1" connect="1" arrows="1" fold="1" page="1" pageScale="1" pageWidth="1169" pageHeight="827" math="0" shadow="0">
      <root>
        <mxCell id="0" />
        <mxCell id="1" parent="0" />
        <mxCell id="lP3EEBkdG0QTr18v6ItJ-20" value="" style="rounded=0;whiteSpace=wrap;html=1;dashed=1;strokeColor=#66B2FF;rotation=-90;glass=0;fillColor=none;sketch=0;fontSize=12;strokeWidth=2;" parent="1" vertex="1">
          <mxGeometry x="767.86" y="-14.99" width="260" height="510.01" as="geometry" />
        </mxCell>
        <mxCell id="esXLrnRzegUq6bV_iDnb-1" value="" style="rounded=0;whiteSpace=wrap;html=1;dashed=1;strokeColor=#66B2FF;rotation=-90;glass=0;fillColor=none;sketch=0;fontSize=12;strokeWidth=2;" parent="1" vertex="1">
          <mxGeometry x="758.41" y="61.89" width="232.7" height="353.91" as="geometry" />
        </mxCell>
        <mxCell id="IlRN8V5U0eTsOI5ZAMIu-21" value="" style="rounded=0;whiteSpace=wrap;html=1;dashed=1;rotation=-90;glass=0;fillColor=none;sketch=0;fontSize=12;strokeWidth=2;strokeColor=#66B2FF;" parent="1" vertex="1">
          <mxGeometry x="29.999999999999996" y="445" width="287.75" height="303" as="geometry" />
        </mxCell>
        <mxCell id="lP3EEBkdG0QTr18v6ItJ-32" value="" style="shape=cube;whiteSpace=wrap;html=1;boundedLbl=1;backgroundOutline=1;darkOpacity=0.05;darkOpacity2=0.1;rounded=0;glass=0;dashed=1;sketch=0;fontSize=12;size=10;direction=south;strokeColor=#66B2FF;shadow=0;strokeWidth=2;fillColor=none;" parent="1" vertex="1">
          <mxGeometry x="5" y="105" width="380" height="240" as="geometry" />
        </mxCell>
        <mxCell id="lP3EEBkdG0QTr18v6ItJ-8" style="edgeStyle=orthogonalEdgeStyle;rounded=0;orthogonalLoop=1;jettySize=auto;html=1;exitX=0.5;exitY=1;exitDx=0;exitDy=0;fontSize=12;" parent="1" edge="1">
          <mxGeometry x="611" y="38.75" as="geometry">
            <mxPoint x="701" y="248.75" as="sourcePoint" />
            <mxPoint x="701" y="248.75" as="targetPoint" />
          </mxGeometry>
        </mxCell>
        <mxCell id="lP3EEBkdG0QTr18v6ItJ-25" value="&lt;b style=&quot;font-size: 18px&quot;&gt;Edge Importers&lt;/b&gt;" style="text;html=1;strokeColor=none;fillColor=none;align=center;verticalAlign=middle;whiteSpace=wrap;rounded=0;glass=0;dashed=1;fontSize=18;" parent="1" vertex="1">
          <mxGeometry x="815" y="68.75" width="95" height="40" as="geometry" />
        </mxCell>
        <mxCell id="lP3EEBkdG0QTr18v6ItJ-49" value="" style="endArrow=none;html=1;shadow=0;fontSize=18;startSize=0;endSize=0;strokeWidth=3;entryX=0;entryY=0.5;entryDx=0;entryDy=0;fillColor=#dae8fc;exitX=0;exitY=0.5;exitDx=0;exitDy=0;strokeColor=#66B2FF;" parent="1" target="lP3EEBkdG0QTr18v6ItJ-17" edge="1">
          <mxGeometry width="50" height="50" relative="1" as="geometry">
            <mxPoint x="146.75" y="174.65999999999997" as="sourcePoint" />
            <mxPoint x="185" y="412.14" as="targetPoint" />
            <Array as="points">
              <mxPoint x="105" y="175.14" />
              <mxPoint x="105" y="284.14" />
            </Array>
          </mxGeometry>
        </mxCell>
        <mxCell id="lP3EEBkdG0QTr18v6ItJ-50" value="" style="endArrow=none;html=1;shadow=0;fontSize=18;startSize=0;endSize=0;strokeWidth=3;entryX=1;entryY=0.5;entryDx=0;entryDy=0;exitX=1;exitY=0.5;exitDx=0;exitDy=0;fillColor=#dae8fc;strokeColor=#66B2FF;" parent="1" source="lP3EEBkdG0QTr18v6ItJ-17" edge="1">
          <mxGeometry width="50" height="50" relative="1" as="geometry">
            <mxPoint x="135" y="462.13999999999993" as="sourcePoint" />
            <mxPoint x="224.75" y="174.65999999999997" as="targetPoint" />
            <Array as="points">
              <mxPoint x="265" y="284.14" />
              <mxPoint x="265" y="175.14" />
            </Array>
          </mxGeometry>
        </mxCell>
        <mxCell id="lP3EEBkdG0QTr18v6ItJ-51" value="&lt;b style=&quot;font-size: 18px&quot;&gt;WebFlowers&lt;/b&gt;" style="text;html=1;strokeColor=none;fillColor=none;align=center;verticalAlign=middle;whiteSpace=wrap;rounded=0;glass=0;dashed=1;fontSize=18;" parent="1" vertex="1">
          <mxGeometry x="142.75" y="59.999999999999986" width="124.5" height="40" as="geometry" />
        </mxCell>
        <mxCell id="IlRN8V5U0eTsOI5ZAMIu-25" value="" style="group" parent="1" vertex="1" connectable="0">
          <mxGeometry x="140.5" y="256.39" width="96" height="80.00000000000006" as="geometry" />
        </mxCell>
        <mxCell id="lP3EEBkdG0QTr18v6ItJ-17" value="" style="shape=image;verticalLabelPosition=bottom;labelBackgroundColor=#ffffff;verticalAlign=top;aspect=fixed;imageAspect=0;image=data:image/svg+xml,PHN2ZyB4bWxucz0iaHR0cDovL3d3dy53My5vcmcvMjAwMC9zdmciIHdpZHRoPSIxOCIgaGVpZ2h0PSIxMy4wNTI2Mjk0NzA4MjUxOTUiIHZpZXdCb3g9IjAgMi4xNjI5MTg1Njc2NTc0NzA3IDE4IDEzLjA1MjYyOTQ3MDgyNTE5NSI+PGRlZnM+PGxpbmVhckdyYWRpZW50IGlkPSJmNjdkMTU4NS02MTY0LTRhZDAtYjJkZC1mOWNjNTliMjk2OWYiIHgxPSI5LjkwOCIgeTE9IjE1Ljk0MyIgeDI9IjcuNTE2IiB5Mj0iMi4zODMiIGdyYWRpZW50VW5pdHM9InVzZXJTcGFjZU9uVXNlIj48c3RvcCBvZmZzZXQ9IjAuMTUiIHN0b3AtY29sb3I9IiMwMDc4ZDQiLz48c3RvcCBvZmZzZXQ9IjAuOCIgc3RvcC1jb2xvcj0iIzVlYTBlZiIvPjxzdG9wIG9mZnNldD0iMSIgc3RvcC1jb2xvcj0iIzgzYjlmOSIvPjwvbGluZWFyR3JhZGllbnQ+PC9kZWZzPjxnIGlkPSJhNGZkMTg2OC01NGZlLTRjYTYtOGZmNi0zYjAxODY2ZGMyN2IiPjxwYXRoIGQ9Ik0xNC40OSw3LjE1QTUuMTQ3LDUuMTQ3LDAsMCwwLDkuMjQsMi4xNjQsNS4yNzIsNS4yNzIsMCwwLDAsNC4yMTYsNS42NTMsNC44NjksNC44NjksMCwwLDAsMCwxMC40YTQuOTQ2LDQuOTQ2LDAsMCwwLDUuMDY4LDQuODE0SDEzLjgyQTQuMjkyLDQuMjkyLDAsMCwwLDE4LDExLjEyNyw0LjEwNSw0LjEwNSwwLDAsMCwxNC40OSw3LjE1WiIgZmlsbD0idXJsKCNmNjdkMTU4NS02MTY0LTRhZDAtYjJkZC1mOWNjNTliMjk2OWYpIi8+PHBhdGggZD0iTTEyLjksMTEuNFY4SDEydjQuMTNoMi40NlYxMS40Wk01Ljc2LDkuNzNhMS44MjUsMS44MjUsMCwwLDEtLjUxLS4zMS40NDEuNDQxLDAsMCwxLS4xMi0uMzIuMzQyLjM0MiwwLDAsMSwuMTUtLjMuNjgzLjY4MywwLDAsMSwuNDItLjEyLDEuNjIsMS42MiwwLDAsMSwxLC4yOVY4LjExYTIuNTgsMi41OCwwLDAsMC0xLS4xNiwxLjY0MSwxLjY0MSwwLDAsMC0xLjA5LjM0LDEuMDgsMS4wOCwwLDAsMC0uNDIuODljMCwuNTEuMzIuOTEsMSwxLjIxYTIuOTA3LDIuOTA3LDAsMCwxLC42Mi4zNi40MTkuNDE5LDAsMCwxLC4xNS4zMi4zODEuMzgxLDAsMCwxLS4xNi4zMS44MDYuODA2LDAsMCwxLS40NS4xMSwxLjY2LDEuNjYsMCwwLDEtMS4wOS0uNDJWMTJhMi4xNzMsMi4xNzMsMCwwLDAsMS4wNy4yNCwxLjg3NywxLjg3NywwLDAsMCwxLjE4LS4zM0ExLjA4LDEuMDgsMCwwLDAsNi44NCwxMWExLjA0OCwxLjA0OCwwLDAsMC0uMjUtLjdBMi40MjUsMi40MjUsMCwwLDAsNS43Niw5LjczWk0xMSwxMS4zMkEyLjE5MSwyLjE5MSwwLDAsMCwxMSw5YTEuODA4LDEuODA4LDAsMCwwLS43LS43NSwyLDIsMCwwLDAtMS0uMjYsMi4xMTIsMi4xMTIsMCwwLDAtMS4wOC4yN0ExLjg1NiwxLjg1NiwwLDAsMCw3LjQ5LDlhMi40NjUsMi40NjUsMCwwLDAtLjI2LDEuMTQsMi4yNTYsMi4yNTYsMCwwLDAsLjI0LDEsMS43NjYsMS43NjYsMCwwLDAsLjY5Ljc0LDIuMDU2LDIuMDU2LDAsMCwwLDEsLjNsLjg2LDFoMS4yMUwxMCwxMi4wOEExLjc5LDEuNzksMCwwLDAsMTEsMTEuMzJabS0xLS4yNWEuOTQxLjk0MSwwLDAsMS0uNzYuMzUuOTE2LjkxNiwwLDAsMS0uNzYtLjM2LDEuNTIzLDEuNTIzLDAsMCwxLS4yOS0xLDEuNTI5LDEuNTI5LDAsMCwxLC4yOS0xLDEsMSwwLDAsMSwuNzgtLjM3Ljg2OS44NjksMCwwLDEsLjc1LjM3LDEuNjE5LDEuNjE5LDAsMCwxLC4yNywxQTEuNDU5LDEuNDU5LDAsMCwxLDEwLDExLjA3WiIgZmlsbD0iI2YyZjJmMiIvPjwvZz7igIsmI3hhOzwvc3ZnPg==;fontSize=12;" parent="IlRN8V5U0eTsOI5ZAMIu-25" vertex="1">
          <mxGeometry x="9" width="78" height="56.33" as="geometry" />
        </mxCell>
        <mxCell id="lP3EEBkdG0QTr18v6ItJ-34" value="Azure SQL DB" style="text;html=1;strokeColor=none;fillColor=none;align=center;verticalAlign=middle;whiteSpace=wrap;rounded=0;glass=0;dashed=1;sketch=1;fontSize=12;fontStyle=1" parent="IlRN8V5U0eTsOI5ZAMIu-25" vertex="1">
          <mxGeometry y="56.33000000000004" width="96" height="23.67" as="geometry" />
        </mxCell>
        <mxCell id="IlRN8V5U0eTsOI5ZAMIu-26" value="" style="group" parent="1" vertex="1" connectable="0">
          <mxGeometry x="130" y="135" width="114" height="111.17000000000002" as="geometry" />
        </mxCell>
        <mxCell id="lP3EEBkdG0QTr18v6ItJ-19" value="" style="shape=image;verticalLabelPosition=bottom;labelBackgroundColor=#ffffff;verticalAlign=top;aspect=fixed;imageAspect=0;image=data:image/svg+xml,PHN2ZyB4bWxucz0iaHR0cDovL3d3dy53My5vcmcvMjAwMC9zdmciIGlkPSJiNzBhY2YwYS0zNGI0LTRiZGYtOTAyNC03NDk2MDQzZmY5MTUiIHdpZHRoPSIxNi45Njc2MjQ2NjQzMDY2NCIgaGVpZ2h0PSIxNi45NzE1MTk0NzAyMTQ4NDQiIHZpZXdCb3g9IjAuNDk2OTEyNzQ3NjIxNTM2MjUgMC41MzE1Njk0MjEyOTEzNTEzIDE2Ljk2NzYyNDY2NDMwNjY0IDE2Ljk3MTUxOTQ3MDIxNDg0NCI+PGRlZnM+PHJhZGlhbEdyYWRpZW50IGlkPSJlMmNmODc0Ni1jOWE4LTRlZWUtODZjMi00OTUxOTgzYzYwMzIiIGN4PSIxMzQyOC44MSIgY3k9IjM1MTguODYiIHI9IjU2LjY3IiBncmFkaWVudFRyYW5zZm9ybT0idHJhbnNsYXRlKC0yMDA1LjMzIC01MTguODMpIHNjYWxlKDAuMTUpIiBncmFkaWVudFVuaXRzPSJ1c2VyU3BhY2VPblVzZSI+PHN0b3Agb2Zmc2V0PSIwLjE4IiBzdG9wLWNvbG9yPSIjNWVhMGVmIi8+PHN0b3Agb2Zmc2V0PSIxIiBzdG9wLWNvbG9yPSIjMDA3OGQ0Ii8+PC9yYWRpYWxHcmFkaWVudD48bGluZWFyR3JhZGllbnQgaWQ9ImJkZDIxM2RkLWQzMTMtNDczYy04ZmY0LTAxMzNmZDNhOTAzMyIgeDE9IjQuNCIgeTE9IjExLjQ4IiB4Mj0iNC4zNyIgeTI9IjcuNTMiIGdyYWRpZW50VW5pdHM9InVzZXJTcGFjZU9uVXNlIj48c3RvcCBvZmZzZXQ9IjAiIHN0b3AtY29sb3I9IiNjY2MiLz48c3RvcCBvZmZzZXQ9IjEiIHN0b3AtY29sb3I9IiNmY2ZjZmMiLz48L2xpbmVhckdyYWRpZW50PjxsaW5lYXJHcmFkaWVudCBpZD0iYWZjYzYzYzUtMzY0OS00NDc2LWE3NDItYmNiNTNhNTY5ZjNjIiB4MT0iMTAuMTMiIHkxPSIxNS40NSIgeDI9IjEwLjEzIiB5Mj0iMTEuOSIgZ3JhZGllbnRVbml0cz0idXNlclNwYWNlT25Vc2UiPjxzdG9wIG9mZnNldD0iMCIgc3RvcC1jb2xvcj0iI2NjYyIvPjxzdG9wIG9mZnNldD0iMSIgc3RvcC1jb2xvcj0iI2ZjZmNmYyIvPjwvbGluZWFyR3JhZGllbnQ+PGxpbmVhckdyYWRpZW50IGlkPSJiZDg3M2YwYi05OTU0LTRhYTUtYTNkZi05ZjRjNjRlODcyOWQiIHgxPSIxNC4xOCIgeTE9IjExLjE1IiB4Mj0iMTQuMTgiIHkyPSI3LjM4IiBncmFkaWVudFVuaXRzPSJ1c2VyU3BhY2VPblVzZSI+PHN0b3Agb2Zmc2V0PSIwIiBzdG9wLWNvbG9yPSIjY2NjIi8+PHN0b3Agb2Zmc2V0PSIxIiBzdG9wLWNvbG9yPSIjZmNmY2ZjIi8+PC9saW5lYXJHcmFkaWVudD48L2RlZnM+PHRpdGxlPkljb24td2ViLTQxPC90aXRsZT48cGF0aCBpZD0iZWU3NWRkMDYtMWFjYS00Zjc2LTlkMTEtZDA1YTI4NDAyMGFkIiBkPSJNMTQuMjEsMTUuNzJBOC41LDguNSwwLDAsMSwzLjc5LDIuMjhsLjA5LS4wNmE4LjUsOC41LDAsMCwxLDEwLjMzLDEzLjUiIGZpbGw9InVybCgjZTJjZjg3NDYtYzlhOC00ZWVlLTg2YzItNDk1MTk4M2M2MDMyKSIvPjxwYXRoIGQ9Ik02LjY5LDcuMjNBMTMsMTMsMCwwLDEsMTUuNiwzLjY1YTguNDcsOC40NywwLDAsMC0xLjQ5LTEuNDQsMTQuMzQsMTQuMzQsMCwwLDAtNC42OSwxLjFBMTIuNTQsMTIuNTQsMCwwLDAsNS4zNCw2LjEzLDIuNzYsMi43NiwwLDAsMSw2LjY5LDcuMjNaIiBmaWxsPSIjZmZmIiBvcGFjaXR5PSIwLjYiLz48cGF0aCBkPSJNMi40OCwxMC42NWExNy44NiwxNy44NiwwLDAsMC0uODMsMi42Miw3LjgyLDcuODIsMCwwLDAsLjYyLjkyYy4xOC4yMy4zNS40NC41NS42NUExNy45NCwxNy45NCwwLDAsMSwzLjksMTEuMzcsMi43NiwyLjc2LDAsMCwxLDIuNDgsMTAuNjVaIiBmaWxsPSIjZmZmIiBvcGFjaXR5PSIwLjYiLz48cGF0aCBkPSJNMy40Niw2LjExYTEyLDEyLDAsMCwxLS42OS0yLjk0LDguMTUsOC4xNSwwLDAsMC0xLjEsMS40NUExMi42OSwxMi42OSwwLDAsMCwyLjI0LDcsMi42OSwyLjY5LDAsMCwxLDMuNDYsNi4xMVoiIGZpbGw9IiNmMmYyZjIiIG9wYWNpdHk9IjAuNTUiLz48Y2lyY2xlIGN4PSI0LjM4IiBjeT0iOC42OCIgcj0iMi43MyIgZmlsbD0idXJsKCNiZGQyMTNkZC1kMzEzLTQ3M2MtOGZmNC0wMTMzZmQzYTkwMzMpIi8+PHBhdGggZD0iTTguMzYsMTMuNjdBMS43NywxLjc3LDAsMCwxLDguOSwxMi40YTExLjg4LDExLjg4LDAsMCwxLTIuNTMtMS44NiwyLjc0LDIuNzQsMCwwLDEtMS40OS44MywxMy4xLDEzLjEsMCwwLDAsMS40NSwxLjI4QTEyLjEyLDEyLjEyLDAsMCwwLDguMzgsMTMuOSwxLjc5LDEuNzksMCwwLDEsOC4zNiwxMy42N1oiIGZpbGw9IiNmMmYyZjIiIG9wYWNpdHk9IjAuNTUiLz48cGF0aCBkPSJNMTQuNjYsMTMuODhhMTIsMTIsMCwwLDEtMi43Ni0uMzIuNDEuNDEsMCwwLDEsMCwuMTEsMS43NSwxLjc1LDAsMCwxLS41MSwxLjI0LDEzLjY5LDEzLjY5LDAsMCwwLDMuNDIuMjRBOC4yMSw4LjIxLDAsMCwwLDE2LDEzLjgxLDExLjUsMTEuNSwwLDAsMSwxNC42NiwxMy44OFoiIGZpbGw9IiNmMmYyZjIiIG9wYWNpdHk9IjAuNTUiLz48Y2lyY2xlIGN4PSIxMC4xMyIgY3k9IjEzLjY3IiByPSIxLjc4IiBmaWxsPSJ1cmwoI2FmY2M2M2M1LTM2NDktNDQ3Ni1hNzQyLWJjYjUzYTU2OWYzYykiLz48cGF0aCBkPSJNMTIuMzIsOC45M2ExLjgzLDEuODMsMCwwLDEsLjYxLTFBMjUuNSwyNS41LDAsMCwxLDguNDcsMy43OWExNi45MSwxNi45MSwwLDAsMS0yLTIuOTIsNy42NCw3LjY0LDAsMCwwLTEuMDkuNDJBMTguMTQsMTguMTQsMCwwLDAsNy41Myw0LjQ3LDI2LjQ0LDI2LjQ0LDAsMCwwLDEyLjMyLDguOTNaIiBmaWxsPSIjZjJmMmYyIiBvcGFjaXR5PSIwLjciLz48Y2lyY2xlIGN4PSIxNC4xOCIgY3k9IjkuMjciIHI9IjEuODkiIGZpbGw9InVybCgjYmQ4NzNmMGItOTk1NC00YWE1LWEzZGYtOWY0YzY0ZTg3MjlkKSIvPjxwYXRoIGQ9Ik0xNy4zNSwxMC41NCwxNywxMC4zN2wwLDAtLjMtLjE2LS4wNiwwTDE2LjM4LDEwbC0uMDcsMEwxNiw5LjhhMS43NiwxLjc2LDAsMCwxLS42NC45MmMuMTIuMDguMjUuMTUuMzguMjJsLjA4LjA1LjM1LjE5LDAsMCwuODYuNDVoMGE4LjYzLDguNjMsMCwwLDAsLjI5LTEuMTFaIiBmaWxsPSIjZjJmMmYyIiBvcGFjaXR5PSIwLjU1Ii8+PGNpcmNsZSBjeD0iNC4zOCIgY3k9IjguNjgiIHI9IjIuNzMiIGZpbGw9InVybCgjYmRkMjEzZGQtZDMxMy00NzNjLThmZjQtMDEzM2ZkM2E5MDMzKSIvPjxjaXJjbGUgY3g9IjEwLjEzIiBjeT0iMTMuNjciIHI9IjEuNzgiIGZpbGw9InVybCgjYWZjYzYzYzUtMzY0OS00NDc2LWE3NDItYmNiNTNhNTY5ZjNjKSIvPjwvc3ZnPg==;" parent="IlRN8V5U0eTsOI5ZAMIu-26" vertex="1">
          <mxGeometry x="18" width="78" height="78" as="geometry" />
        </mxCell>
        <mxCell id="lP3EEBkdG0QTr18v6ItJ-33" value="App Services / Cloud Services" style="text;html=1;strokeColor=none;fillColor=none;align=center;verticalAlign=middle;whiteSpace=wrap;rounded=0;glass=0;dashed=1;sketch=1;fontSize=12;fontStyle=1" parent="IlRN8V5U0eTsOI5ZAMIu-26" vertex="1">
          <mxGeometry y="78" width="114" height="33.17" as="geometry" />
        </mxCell>
        <mxCell id="IlRN8V5U0eTsOI5ZAMIu-30" value="" style="group" parent="1" vertex="1" connectable="0">
          <mxGeometry x="799.25" y="150" width="110.75" height="93.87" as="geometry" />
        </mxCell>
        <mxCell id="lP3EEBkdG0QTr18v6ItJ-13" value="" style="shape=image;verticalLabelPosition=bottom;labelBackgroundColor=#ffffff;verticalAlign=top;aspect=fixed;imageAspect=0;image=data:image/svg+xml,PHN2ZyB4bWxucz0iaHR0cDovL3d3dy53My5vcmcvMjAwMC9zdmciIGlkPSJhMmM4ODMwNi1mYTAzLTRlNWItYjE5Mi00MDFmMGI3NzgwOGIiIHdpZHRoPSIxOC4zMjQwMjgwMTUxMzY3MiIgaGVpZ2h0PSIxNS45NTMzMjUyNzE2MDY0NDUiIHZpZXdCb3g9Ii0wLjE2MjUzMDM2MjYwNjA0ODU4IDEuMDIzODU5NTAwODg1MDA5OCAxOC4zMjQwMjgwMTUxMzY3MiAxNS45NTMzMjUyNzE2MDY0NDUiPjxkZWZzPjxsaW5lYXJHcmFkaWVudCBpZD0iYjQwM2FjYTctZjM4Ny00NDM0LTk2YjQtYWUxNTdlZGM4MzVmIiB4MT0iLTE3NS45OTMiIHkxPSItMzQzLjcyMyIgeDI9Ii0xNzUuOTkzIiB5Mj0iLTM1OS4yMzIiIGdyYWRpZW50VHJhbnNmb3JtPSJ0cmFuc2xhdGUoMjEyLjU3MyAzNzAuNTQ4KSBzY2FsZSgxLjE1NiAxLjAyOSkiIGdyYWRpZW50VW5pdHM9InVzZXJTcGFjZU9uVXNlIj48c3RvcCBvZmZzZXQ9IjAiIHN0b3AtY29sb3I9IiNmZWExMWIiLz48c3RvcCBvZmZzZXQ9IjAuMjg0IiBzdG9wLWNvbG9yPSIjZmVhNTFhIi8+PHN0b3Agb2Zmc2V0PSIwLjU0NyIgc3RvcC1jb2xvcj0iI2ZlYjAxOCIvPjxzdG9wIG9mZnNldD0iMC44IiBzdG9wLWNvbG9yPSIjZmZjMzE0Ii8+PHN0b3Agb2Zmc2V0PSIxIiBzdG9wLWNvbG9yPSIjZmZkNzBmIi8+PC9saW5lYXJHcmFkaWVudD48L2RlZnM+PHRpdGxlPkljb24tY29tcHV0ZS0yOTwvdGl0bGU+PGc+PHBhdGggZD0iTTIuMzcsNy40NzVIMy4yYS4yNjcuMjY3LDAsMCwxLC4yNjcuMjY3djYuMTQ4YS41MzMuNTMzLDAsMCwxLS41MzMuNTMzSDIuMWEwLDAsMCwwLDEsMCwwVjcuNzQxYS4yNjcuMjY3LDAsMCwxLC4yNjctLjI2N1oiIHRyYW5zZm9ybT0idHJhbnNsYXRlKDEyLjUwNyAxNi43MDUpIHJvdGF0ZSgxMzQuOTE5KSIgZmlsbD0iIzUwZTZmZiIvPjxwYXRoIGQ9Ik0yLjMyNSwzLjZoLjgzM2EuMjY3LjI2NywwLDAsMSwuMjY3LjI2N3Y2LjU4M2EwLDAsMCwwLDEsMCwwSDIuNTkxYS41MzMuNTMzLDAsMCwxLS41MzMtLjUzM1YzLjg2NUEuMjY3LjI2NywwLDAsMSwyLjMyNSwzLjZaIiB0cmFuc2Zvcm09InRyYW5zbGF0ZSg1Ljc1OSAwLjExNCkgcm90YXRlKDQ0LjkxOSkiIGZpbGw9IiMxNDkwZGYiLz48L2c+PGc+PHBhdGggZD0iTTE0LjUzLDcuNDc1aC44MzNhLjUzMy41MzMsMCwwLDEsLjUzMy41MzN2Ni4xNDhhLjI2Ny4yNjcsMCwwLDEtLjI2Ny4yNjdIMTQuOGEuMjY3LjI2NywwLDAsMS0uMjY3LS4yNjdWNy40NzVhMCwwLDAsMCwxLDAsMFoiIHRyYW5zZm9ybT0idHJhbnNsYXRlKDEyLjIyMyAtNy41NTUpIHJvdGF0ZSg0NS4wODEpIiBmaWxsPSIjNTBlNmZmIi8+PHBhdGggZD0iTTE1LjEwOCwzLjZoLjgzM2EwLDAsMCwwLDEsMCwwdjYuNTgzYS4yNjcuMjY3LDAsMCwxLS4yNjcuMjY3aC0uODMzYS4yNjcuMjY3LDAsMCwxLS4yNjctLjI2N1Y0LjEzMWEuNTMzLjUzMywwLDAsMSwuNTMzLS41MzNaIiB0cmFuc2Zvcm09InRyYW5zbGF0ZSgzMS4wMjIgMS4yMjIpIHJvdGF0ZSgxMzUuMDgxKSIgZmlsbD0iIzE0OTBkZiIvPjwvZz48cGF0aCBkPSJNOC40NTksOS45SDQuODdhLjE5My4xOTMsMCwwLDEtLjItLjE4MS4xNjYuMTY2LDAsMCwxLC4wMTgtLjA3NUw4Ljk5MSwxLjEzYS4yMDYuMjA2LDAsMCwxLC4xODYtLjEwNmg0LjI0NWEuMTkzLjE5MywwLDAsMSwuMi4xODEuMTY1LjE2NSwwLDAsMS0uMDM1LjFMOC41MzQsNy45NjZoNC45MjhhLjE5My4xOTMsMCwwLDEsLjIuMTgxLjE3Ni4xNzYsMCwwLDEtLjA1Mi4xMjJMNS40MjEsMTYuNzg4Yy0uMDc3LjA0Ni0uNjI0LjUtLjM1Ni0uMTg5aDBaIiBmaWxsPSJ1cmwoI2I0MDNhY2E3LWYzODctNDQzNC05NmI0LWFlMTU3ZWRjODM1ZikiLz48L3N2Zz4=;fontSize=12;" parent="IlRN8V5U0eTsOI5ZAMIu-30" vertex="1">
          <mxGeometry x="11.75" width="78" height="69.32" as="geometry" />
        </mxCell>
        <mxCell id="IlRN8V5U0eTsOI5ZAMIu-46" value="" style="endArrow=classic;startArrow=classic;html=1;strokeWidth=2;strokeColor=#177CFF;entryX=0;entryY=0.5;entryDx=0;entryDy=0;exitX=0.75;exitY=1;exitDx=0;exitDy=0;" parent="1" source="IlRN8V5U0eTsOI5ZAMIu-21" target="OIpXf6CerVtjoZWrU3Lm-62" edge="1">
          <mxGeometry width="50" height="50" relative="1" as="geometry">
            <mxPoint x="660" y="700" as="sourcePoint" />
            <mxPoint x="853.2320742734446" y="380.5799999999999" as="targetPoint" />
            <Array as="points" />
          </mxGeometry>
        </mxCell>
        <mxCell id="IlRN8V5U0eTsOI5ZAMIu-50" value="" style="endArrow=classic;startArrow=none;html=1;strokeColor=#177CFF;strokeWidth=2;entryX=0;entryY=0.5;entryDx=0;entryDy=0;exitX=1;exitY=0.75;exitDx=0;exitDy=0;startFill=0;" parent="1" source="lP3EEBkdG0QTr18v6ItJ-19" target="OIpXf6CerVtjoZWrU3Lm-3" edge="1">
          <mxGeometry width="50" height="50" relative="1" as="geometry">
            <mxPoint x="575" y="545" as="sourcePoint" />
            <mxPoint x="811" y="306.0825" as="targetPoint" />
            <Array as="points" />
          </mxGeometry>
        </mxCell>
        <mxCell id="IlRN8V5U0eTsOI5ZAMIu-51" value="Receive / Response request" style="text;html=1;strokeColor=none;fillColor=none;align=center;verticalAlign=middle;whiteSpace=wrap;rounded=0;glass=0;dashed=1;sketch=1;fontSize=12;fontStyle=1" parent="1" vertex="1">
          <mxGeometry x="537.49" y="140" width="120" height="33.17" as="geometry" />
        </mxCell>
        <mxCell id="IlRN8V5U0eTsOI5ZAMIu-65" value="Run scheduling processes" style="text;html=1;strokeColor=none;fillColor=none;align=center;verticalAlign=middle;whiteSpace=wrap;rounded=0;glass=0;dashed=1;sketch=1;fontSize=13;fontStyle=1" parent="1" vertex="1">
          <mxGeometry x="995.69" y="425.00000000000006" width="100" height="40" as="geometry" />
        </mxCell>
        <mxCell id="8tUCgFSIqHUWmH6cTEqE-5" value="" style="rounded=0;whiteSpace=wrap;html=1;dashed=1;strokeColor=#66B2FF;rotation=-90;glass=0;fillColor=none;sketch=0;fontSize=12;strokeWidth=2;" parent="1" vertex="1">
          <mxGeometry x="65.00999999999999" y="452.51" width="221.8" height="264.86" as="geometry" />
        </mxCell>
        <mxCell id="OIpXf6CerVtjoZWrU3Lm-2" value="&lt;font color=&quot;#000000&quot;&gt;Filtro de ordenes&lt;/font&gt;" style="text;strokeColor=none;fillColor=none;html=1;fontSize=24;fontStyle=1;verticalAlign=middle;align=center;rounded=0;shadow=0;fontColor=#FFFFFF;" parent="1" vertex="1">
          <mxGeometry x="-155" width="1510" height="40" as="geometry" />
        </mxCell>
        <mxCell id="OIpXf6CerVtjoZWrU3Lm-3" value="" style="shape=image;verticalLabelPosition=bottom;labelBackgroundColor=#ffffff;verticalAlign=top;aspect=fixed;imageAspect=0;image=data:image/svg+xml,PHN2ZyB4bWxuczpkYz0iaHR0cDovL3B1cmwub3JnL2RjL2VsZW1lbnRzLzEuMS8iIHhtbG5zOmNjPSJodHRwOi8vY3JlYXRpdmVjb21tb25zLm9yZy9ucyMiIHhtbG5zOnJkZj0iaHR0cDovL3d3dy53My5vcmcvMTk5OS8wMi8yMi1yZGYtc3ludGF4LW5zIyIgeG1sbnM6c3ZnPSJodHRwOi8vd3d3LnczLm9yZy8yMDAwL3N2ZyIgeG1sbnM9Imh0dHA6Ly93d3cudzMub3JnLzIwMDAvc3ZnIiB4bWxuczpzb2RpcG9kaT0iaHR0cDovL3NvZGlwb2RpLnNvdXJjZWZvcmdlLm5ldC9EVEQvc29kaXBvZGktMC5kdGQiIHhtbG5zOmlua3NjYXBlPSJodHRwOi8vd3d3Lmlua3NjYXBlLm9yZy9uYW1lc3BhY2VzL2lua3NjYXBlIiB2ZXJzaW9uPSIxLjEiIGlkPSJzdmc2MjQ1MSIgaW5rc2NhcGU6dmVyc2lvbj0iMC45Mi4zICgyNDA1NTQ2LCAyMDE4LTAzLTExKSIgc29kaXBvZGk6ZG9jbmFtZT0iYXp1cmVfc2VydmljZV9idXNfcXVldWVzLnN2ZyIgeD0iMHB4IiB5PSIwcHgiIHZpZXdCb3g9IjAgMCAzNy41IDM3LjUiIHhtbDpzcGFjZT0icHJlc2VydmUiIHdpZHRoPSIzNy41IiBoZWlnaHQ9IjM3LjUiPjxtZXRhZGF0YSBpZD0ibWV0YWRhdGExNjY5MyI+PHJkZjpSREY+PGNjOldvcmsgcmRmOmFib3V0PSIiPjxkYzpmb3JtYXQ+aW1hZ2Uvc3ZnK3htbDwvZGM6Zm9ybWF0PjxkYzp0eXBlIHJkZjpyZXNvdXJjZT0iaHR0cDovL3B1cmwub3JnL2RjL2RjbWl0eXBlL1N0aWxsSW1hZ2UiLz48ZGM6dGl0bGUvPjwvY2M6V29yaz48L3JkZjpSREY+PC9tZXRhZGF0YT48ZGVmcyBpZD0iZGVmczE2NjkxIi8+JiN4YTs8ZmlsdGVyIGlkPSJmaWx0ZXJfMiI+JiN4YTsJPGZlR2F1c3NpYW5CbHVyIGlkPSJmZUdhdXNzaWFuQmx1cjYyMzc2IiBzdGREZXZpYXRpb249IjIiLz4mI3hhOzwvZmlsdGVyPiYjeGE7PHNvZGlwb2RpOm5hbWVkdmlldyBib3JkZXJjb2xvcj0iIzY2NjY2NiIgYm9yZGVyb3BhY2l0eT0iMSIgZml0LW1hcmdpbi1ib3R0b209IjAiIGZpdC1tYXJnaW4tbGVmdD0iMCIgZml0LW1hcmdpbi1yaWdodD0iMCIgZml0LW1hcmdpbi10b3A9IjAiIGdyaWR0b2xlcmFuY2U9IjEwIiBndWlkZXRvbGVyYW5jZT0iMTAiIGlkPSJuYW1lZHZpZXc2MjQ1MyIgaW5rc2NhcGU6Y3VycmVudC1sYXllcj0ic3ZnNjI0NTEiIGlua3NjYXBlOmN4PSItNS4zNzMxNTMyIiBpbmtzY2FwZTpjeT0iMTUuMTYxNjczIiBpbmtzY2FwZTpwYWdlb3BhY2l0eT0iMCIgaW5rc2NhcGU6cGFnZXNoYWRvdz0iMiIgaW5rc2NhcGU6d2luZG93LWhlaWdodD0iMTAxNyIgaW5rc2NhcGU6d2luZG93LW1heGltaXplZD0iMSIgaW5rc2NhcGU6d2luZG93LXdpZHRoPSIxOTIwIiBpbmtzY2FwZTp3aW5kb3cteD0iLTgiIGlua3NjYXBlOndpbmRvdy15PSItOCIgaW5rc2NhcGU6em9vbT0iMTAuNTcwMDIyIiBvYmplY3R0b2xlcmFuY2U9IjEwIiBwYWdlY29sb3I9IiNmZmZmZmYiIHNob3dncmlkPSJmYWxzZSI+JiN4YTsJPC9zb2RpcG9kaTpuYW1lZHZpZXc+JiN4YTsmI3hhOzxwYXRoIGlkPSJwYXRoNjIzODkiIGlua3NjYXBlOmNvbm5lY3Rvci1jdXJ2YXR1cmU9IjAiIHN0eWxlPSJmaWxsOiMwMDcyYzYiIGQ9Ik0gMC42MiwwIEMgMC4yNSwwIDAsMC4yNSAwLDAuNjIgdiA3LjUgQyAwLDguNSAwLjI1LDguNzUgMC42Miw4Ljc1IEggNC4zNyBDIDQuNzUsOC43NSA1LDguNSA1LDguMTIgViA1IGggMjcuNSB2IDMuMTMgYyAwLDAuMzcgMC4yNSwwLjYyIDAuNzUsMC42MiBoIDMuNjIgYyAwLjM4LDAgMC42MywtMC4yNSAwLjYzLC0wLjYyIFYgNC4zOCAwLjYzIEMgMzcuNSwwLjI1IDM3LjI1LDAgMzYuODgsMCBaIi8+JiN4YTsmI3hhOzxwYXRoIGlkPSJwYXRoNjIzOTciIGlua3NjYXBlOmNvbm5lY3Rvci1jdXJ2YXR1cmU9IjAiIHN0eWxlPSJmaWxsOiMwMDcyYzYiIGQ9Im0gMzYuODgsMzcuNSBjIDAuMzcsMCAwLjYyLC0wLjI1IDAuNjIsLTAuNjIgViAyOS41IGMgMCwtMC4zNyAtMC4yNSwtMC42MiAtMC42MiwtMC42MiBoIC0zLjYzIGMgLTAuMzcsMCAtMC42MiwwLjI1IC0wLjYyLDAuNjIgdiAzIEggNSBWIDI5LjM4IEMgNSwyOSA0Ljc1LDI4Ljc1IDQuMjUsMjguNzUgSCAwLjYyIEMgMC4yNSwyOC43NSAwLDI5IDAsMjkuNSB2IDcuMzggYyAwLDAuMzcgMC4yNSwwLjYyIDAuNjIsMC42MiB6Ii8+JiN4YTsmI3hhOzxwYXRoIGlkPSJwYXRoNjI0MDUiIGlua3NjYXBlOmNvbm5lY3Rvci1jdXJ2YXR1cmU9IjAiIHN0eWxlPSJmaWxsOiM1OWI0ZDkiIGQ9Im0gOS4yNCwxOS4yOCBjIC0wLjYzLDAuNjMgLTEuNDcsMC45OCAtMi4zNiwwLjk4IC0wLjg5LDAgLTEuNzMsLTAuMzUgLTIuMzYsLTAuOTggTCAwLDE0Ljc2IHYgOS4xOSBoIDEzLjc3IHYgLTkuMTkgeiIvPiYjeGE7JiN4YTs8cGF0aCBpZD0icGF0aDYyNDEzIiBpbmtzY2FwZTpjb25uZWN0b3ItY3VydmF0dXJlPSIwIiBzdHlsZT0iZmlsbDojNTliNGQ5IiBkPSJtIDYuODgsMTkuNTkgYyAwLjcyLDAgMS4zOCwtMC4yOCAxLjg5LC0wLjc4IGwgNSwtNSBWIDEzLjU1IEggMCB2IDAuMjYgbCA1LDUgYyAwLjUsMC41IDEuMTcsMC43OCAxLjg4LDAuNzggeiIvPiYjeGE7JiN4YTs8cGF0aCBpZD0icGF0aDYyNDIxIiBpbmtzY2FwZTpjb25uZWN0b3ItY3VydmF0dXJlPSIwIiBzdHlsZT0iZmlsbDojNTliNGQ5IiBkPSJtIDMyLjk3LDE5LjI4IGMgLTAuNjMsMC42MyAtMS40NywwLjk4IC0yLjM2LDAuOTggLTAuODksMCAtMS43MywtMC4zNSAtMi4zNiwtMC45OCBsIC00LjUyLC00LjUyIHYgOS4xOSBIIDM3LjUgdiAtOS4xOSB6Ii8+JiN4YTsmI3hhOzxwYXRoIGlkPSJwYXRoNjI0MjkiIGlua3NjYXBlOmNvbm5lY3Rvci1jdXJ2YXR1cmU9IjAiIHN0eWxlPSJmaWxsOiM1OWI0ZDkiIGQ9Im0gMzAuNjEsMTkuNTkgYyAwLjcyLDAgMS4zOCwtMC4yOCAxLjg5LC0wLjc4IGwgNSwtNSBWIDEzLjU1IEggMjMuNzMgdiAwLjI2IGwgNSw1IGMgMC41LDAuNSAxLjE3LDAuNzggMS44OCwwLjc4IHoiLz4mI3hhOyYjeGE7PHJlY3QgaWQ9InJlY3Q2MjQzNyIgeD0iMTkuMzYwMDAxIiB5PSIxNy44MyIgc3R5bGU9ImZpbGw6I2I4ZDQzMiIgd2lkdGg9IjIuMzA5OTk5OSIgaGVpZ2h0PSIxLjgzIi8+JiN4YTsmI3hhOzxyZWN0IGlkPSJyZWN0NjI0NDUiIHg9IjE1Ljc3OTk5OSIgeT0iMTcuODMiIHN0eWxlPSJmaWxsOiNiOGQ0MzIiIHdpZHRoPSIyLjQ1IiBoZWlnaHQ9IjEuODMiLz4mI3hhOzwvc3ZnPg==;" parent="1" vertex="1">
          <mxGeometry x="482.49" y="168.17" width="55" height="55" as="geometry" />
        </mxCell>
        <mxCell id="OIpXf6CerVtjoZWrU3Lm-4" value="Service Bus" style="text;html=1;strokeColor=none;fillColor=none;align=center;verticalAlign=middle;whiteSpace=wrap;rounded=0;glass=0;dashed=1;sketch=1;fontSize=12;fontStyle=1" parent="1" vertex="1">
          <mxGeometry x="449.99" y="218.22" width="120" height="33.17" as="geometry" />
        </mxCell>
        <mxCell id="OIpXf6CerVtjoZWrU3Lm-5" value="" style="shape=image;verticalLabelPosition=bottom;labelBackgroundColor=#ffffff;verticalAlign=top;aspect=fixed;imageAspect=0;image=data:image/svg+xml,PHN2ZyB4bWxuczpjYz0iaHR0cDovL2NyZWF0aXZlY29tbW9ucy5vcmcvbnMjIiB4bWxuczpkYz0iaHR0cDovL3B1cmwub3JnL2RjL2VsZW1lbnRzLzEuMS8iIHhtbG5zOmlua3NjYXBlPSJodHRwOi8vd3d3Lmlua3NjYXBlLm9yZy9uYW1lc3BhY2VzL2lua3NjYXBlIiB4bWxuczpyZGY9Imh0dHA6Ly93d3cudzMub3JnLzE5OTkvMDIvMjItcmRmLXN5bnRheC1ucyMiIHhtbG5zOnNvZGlwb2RpPSJodHRwOi8vc29kaXBvZGkuc291cmNlZm9yZ2UubmV0L0RURC9zb2RpcG9kaS0wLmR0ZCIgeG1sbnM6c3ZnPSJodHRwOi8vd3d3LnczLm9yZy8yMDAwL3N2ZyIgeG1sbnM9Imh0dHA6Ly93d3cudzMub3JnLzIwMDAvc3ZnIiB4bWxuczp4bGluaz0iaHR0cDovL3d3dy53My5vcmcvMTk5OS94bGluayIgdmVyc2lvbj0iMS4xIiBpZD0ic3ZnNzQzMTIiIGlua3NjYXBlOnZlcnNpb249IjAuOTIuMyAoMjQwNTU0NiwgMjAxOC0wMy0xMSkiIHNvZGlwb2RpOmRvY25hbWU9ImNvc21vZGIuc3ZnIiB4PSIwcHgiIHk9IjBweCIgdmlld0JveD0iMCAwIDM3LjQ3IDM0LjUxIiBzdHlsZT0iZW5hYmxlLWJhY2tncm91bmQ6bmV3IDAgMCAzNy40NyAzNC41MTsiIHhtbDpzcGFjZT0icHJlc2VydmUiPiYjeGE7PHNvZGlwb2RpOm5hbWVkdmlldyBib3JkZXJjb2xvcj0iIzY2NjY2NiIgYm9yZGVyb3BhY2l0eT0iMSIgZml0LW1hcmdpbi1ib3R0b209IjAiIGZpdC1tYXJnaW4tbGVmdD0iMCIgZml0LW1hcmdpbi1yaWdodD0iMCIgZml0LW1hcmdpbi10b3A9IjAiIGdyaWR0b2xlcmFuY2U9IjEwIiBndWlkZXRvbGVyYW5jZT0iMTAiIGlkPSJuYW1lZHZpZXc3NDMxNCIgaW5rc2NhcGU6Y3VycmVudC1sYXllcj0ic3ZnNzQzMTIiIGlua3NjYXBlOmN4PSIzNi4xMzQwNTciIGlua3NjYXBlOmN5PSIyMS44MTg5OSIgaW5rc2NhcGU6cGFnZW9wYWNpdHk9IjAiIGlua3NjYXBlOnBhZ2VzaGFkb3c9IjIiIGlua3NjYXBlOndpbmRvdy1oZWlnaHQ9IjEwMTciIGlua3NjYXBlOndpbmRvdy1tYXhpbWl6ZWQ9IjEiIGlua3NjYXBlOndpbmRvdy13aWR0aD0iMTkyMCIgaW5rc2NhcGU6d2luZG93LXg9Ii04IiBpbmtzY2FwZTp3aW5kb3cteT0iLTgiIGlua3NjYXBlOnpvb209IjEyLjc3MjExNiIgb2JqZWN0dG9sZXJhbmNlPSIxMCIgcGFnZWNvbG9yPSIjZmZmZmZmIiBzaG93Z3JpZD0iZmFsc2UiPiYjeGE7CTwvc29kaXBvZGk6bmFtZWR2aWV3PiYjeGE7PGcgaWQ9Imc3NDMxMCIgdHJhbnNmb3JtPSJ0cmFuc2xhdGUoLTAuNzUwMDMzMjMsLTAuNzQ1KSI+JiN4YTsJPHRpdGxlIGlkPSJ0aXRsZTc0MjcwIj5QYWdlLTE8L3RpdGxlPiYjeGE7CTxnIGlkPSJncm91cDQ4ODUtMSIgdHJhbnNmb3JtPSJ0cmFuc2xhdGUoMC4yMjUsLTAuNzUpIj4mI3hhOwkJPHRpdGxlIGlkPSJ0aXRsZTc0MjcyIj5Db3NtbyBEQjwvdGl0bGU+JiN4YTsJCTxnIGlkPSJzaGFwZTQ4ODYtMiIgdHJhbnNmb3JtPSJ0cmFuc2xhdGUoNS43NzUsLTIuNTUpIj4mI3hhOwkJCTx0aXRsZSBpZD0idGl0bGU3NDI3NCI+U2hlZXQuNDg4NjwvdGl0bGU+JiN4YTsJCQk8cGF0aCBpZD0icGF0aDc0Mjc2IiBpbmtzY2FwZTpjb25uZWN0b3ItY3VydmF0dXJlPSIwIiBzdHlsZT0iZmlsbDojNTlCNEQ5OyIgZD0iTTI1LjczLDE5LjVjMS41Nyw2LjY4LTIuNDgsMTMuMzUtOS4xNSwxNC45MyAgICAgQzkuOSwzNiwzLjMsMzIuMDMsMS42NSwyNS4zNUMwLDE4LjY4LDQuMTMsMTIsMTAuOCwxMC40M2wwLDBDMTcuNCw4Ljc4LDI0LjA4LDEyLjgzLDI1LjczLDE5LjVMMjUuNzMsMTkuNXoiLz4mI3hhOwkJPC9nPiYjeGE7CQk8ZyBpZD0ic2hhcGU0ODg3LTQiIHRyYW5zZm9ybT0idHJhbnNsYXRlKDYuNiwtNy44NzUpIj4mI3hhOwkJCTx0aXRsZSBpZD0idGl0bGU3NDI3OSI+U2hlZXQuNDg4NzwvdGl0bGU+JiN4YTsJCQk8cGF0aCBpZD0icGF0aDc0MjgxIiBpbmtzY2FwZTpjb25uZWN0b3ItY3VydmF0dXJlPSIwIiBzdHlsZT0iZmlsbDojRkZGRkZGO2ZpbGwtb3BhY2l0eTowLjU7IiBkPSJNMTEuMSwzMi43ICAgICBjMC0xLjgtMS41LTMuMy0zLjMtMy4zbDAsMEg3LjI4YzAuNDUtMS43Mi0wLjY4LTMuNTItMi40LTMuOTdjLTAuMjMtMC4wOC0wLjUzLTAuMDgtMC44My0wLjA4aC0zLjMgICAgIGMtMC43NSwzLjgzLDAuMzgsNy43MywzLDEwLjU4aDQuMTNDOS42OCwzNiwxMS4xLDM0LjU4LDExLjEsMzIuN0wxMS4xLDMyLjd6Ii8+JiN4YTsJCTwvZz4mI3hhOwkJPGcgaWQ9InNoYXBlNDg4OC02IiB0cmFuc2Zvcm09InRyYW5zbGF0ZSgxNy4wMjUsLTE3LjI1KSI+JiN4YTsJCQk8dGl0bGUgaWQ9InRpdGxlNzQyODQiPlNoZWV0LjQ4ODg8L3RpdGxlPiYjeGE7CQkJPHBhdGggaWQ9InBhdGg3NDI4NiIgaW5rc2NhcGU6Y29ubmVjdG9yLWN1cnZhdHVyZT0iMCIgc3R5bGU9ImZpbGw6I0ZGRkZGRjtmaWxsLW9wYWNpdHk6MC41OyIgZD0iTTQuOCwyOC41ICAgICBjMCwwLjIzLDAsMC4zOCwwLjA3LDAuNkgzLjQ1QzEuNTcsMjkuMSwwLDMwLjYsMCwzMi41NVMxLjUsMzYsMy40NSwzNmgxMS4zMkMxNC40LDMxLjgsMTIsMjguMiw4LjQsMjYuMjVINy4wNSAgICAgQzUuNzcsMjYuMjUsNC44LDI3LjIzLDQuOCwyOC41eiIvPiYjeGE7CQk8L2c+JiN4YTsJCTxnIGlkPSJzaGFwZTQ4ODktOCIgdHJhbnNmb3JtPSJ0cmFuc2xhdGUoMjAuMzI1LC01LjMyNSkiPiYjeGE7CQkJPHRpdGxlIGlkPSJ0aXRsZTc0Mjg5Ij5TaGVldC40ODg5PC90aXRsZT4mI3hhOwkJCTxwYXRoIGlkPSJwYXRoNzQyOTEiIGlua3NjYXBlOmNvbm5lY3Rvci1jdXJ2YXR1cmU9IjAiIHN0eWxlPSJmaWxsOiNGRkZGRkY7ZmlsbC1vcGFjaXR5OjAuNTsiIGQ9Ik0xMS40OCwyNi40OEg0LjczICAgICBjLTEuNSwwLTIuNzgsMS4yLTIuNzgsMi43N2MwLDAuNDUsMC4xNSwwLjksMC4zLDEuMzVjLTEuNSwwLjQ1LTIuMjUsMi4wMy0xLjgsMy40NUMwLjgzLDM1LjI1LDEuODgsMzYsMy4xNSwzNmgxLjggICAgIEM4LjU1LDM0LjEzLDExLjAzLDMwLjUzLDExLjQ4LDI2LjQ4eiIvPiYjeGE7CQk8L2c+JiN4YTsJCTxnIGlkPSJzaGFwZTQ4OTAtMTAiIHRyYW5zZm9ybT0idHJhbnNsYXRlKDAuNTI1LC0yNC4zNzUpIj4mI3hhOwkJCTx0aXRsZSBpZD0idGl0bGU3NDI5NCI+U2hlZXQuNDg5MDwvdGl0bGU+JiN4YTsJCQk8cGF0aCBpZD0icGF0aDc0Mjk2IiBpbmtzY2FwZTpjb25uZWN0b3ItY3VydmF0dXJlPSIwIiBzdHlsZT0iZmlsbDojQjhENDMyOyIgZD0iTTUuMSwzNmMtMC4yMiwwLTAuMzctMC4xNS0wLjM3LTAuMzcgICAgIGMwLTIuNC0xLjk1LTQuMzUtNC4zNS00LjM1QzAuMTUsMzEuMzUsMCwzMS4xMywwLDMwLjk4czAuMTUtMC4zOCwwLjM4LTAuMzhjMi40LDAsNC4zNS0xLjk1LDQuMzUtNC4zNSAgICAgYzAtMC4yMywwLjE1LTAuMzgsMC4zNy0wLjM4YzAuMjMsMCwwLjM4LDAuMTUsMC4zOCwwLjM4YzAsMi40LDEuOTUsNC4zNSw0LjM1LDQuMzVjMC4yMiwwLDAuMzcsMC4xNSwwLjM3LDAuMzggICAgIGMwLDAuMjItMC4xNSwwLjM3LTAuMzcsMC4zN2MtMi40LDAtNC4zNSwxLjk1LTQuMzUsNC4zNUM1LjQ4LDM1Ljg1LDUuMzMsMzYsNS4xLDM2eiIvPiYjeGE7CQk8L2c+JiN4YTsJCTxnIGlkPSJzaGFwZTQ4OTEtMTIiIHRyYW5zZm9ybT0idHJhbnNsYXRlKDI5LjI1KSI+JiN4YTsJCQk8dGl0bGUgaWQ9InRpdGxlNzQyOTkiPlNoZWV0LjQ4OTE8L3RpdGxlPiYjeGE7CQkJPHBhdGggaWQ9InBhdGg3NDMwMSIgaW5rc2NhcGU6Y29ubmVjdG9yLWN1cnZhdHVyZT0iMCIgc3R5bGU9ImZpbGw6IzI2QkNFRTsiIGQ9Ik0zLjA3LDM2Yy0wLjE1LDAtMC4yMi0wLjA3LTAuMjItMC4yMiAgICAgYzAtMS40My0xLjItMi41NS0yLjYzLTIuNTVDMC4wNywzMy4yMywwLDMzLjE1LDAsMzNzMC4wNy0wLjIyLDAuMjItMC4yMmwwLDBjMS40MywwLDIuNTUtMS4xMywyLjYzLTIuNTUgICAgIGMwLTAuMTUsMC4wNy0wLjIzLDAuMjItMC4yM3MwLjIzLDAuMDgsMC4yMywwLjIzYzAsMS40MiwxLjIsMi41NSwyLjYyLDIuNTVjMC4xNSwwLDAuMjMsMC4wNywwLjIzLDAuMjJzLTAuMDgsMC4yMy0wLjIzLDAuMjMgICAgIGwwLDBjLTEuNDIsMC0yLjU1LDEuMTItMi42MiwyLjU1QzMuMywzNS44NSwzLjIyLDM2LDMuMDcsMzZDMy4wNywzNiwzLjA3LDM2LDMuMDcsMzZ6Ii8+JiN4YTsJCTwvZz4mI3hhOwkJPGcgaWQ9InNoYXBlNDg5Mi0xNCIgdHJhbnNmb3JtPSJ0cmFuc2xhdGUoMCwtMy4zNzUpIj4mI3hhOwkJCTx0aXRsZSBpZD0idGl0bGU3NDMwNCI+U2hlZXQuNDg5MjwvdGl0bGU+JiN4YTsJCQk8cGF0aCBpZD0icGF0aDc0MzA2IiBpbmtzY2FwZTpjb25uZWN0b3ItY3VydmF0dXJlPSIwIiBzdHlsZT0iZmlsbDojMEYwRjBGOyIgZD0iTTM3LjUsMTIuMTVjLTEuMi0xLjk1LTQuMTMtMi40LTguNjMtMS4yNyAgICAgYy0xLjM1LDAuMzctMi43NywwLjc1LTQuMDUsMS4yN2MwLjgzLDAuNDUsMS42NSwwLjksMi40LDEuNWMwLjc1LTAuMjIsMS41LTAuNDUsMi4xOC0wLjY3YzEuMi0wLjMsMi40LTAuNDUsMy42LTAuNTMgICAgIGMxLjQyLDAsMi4yNSwwLjM4LDIuNTUsMC44M2MwLjQ1LDAuNzUsMCwyLjYyLTIuNTUsNS42MmMtMC40NSwwLjUzLTAuOTgsMS4wNS0xLjUsMS41OGMtMi44NSwyLjctNS45Myw1LjEtOS4zLDcuMTIgICAgIGMtMy4zNywyLjEtNi45LDMuODMtMTAuNjUsNS4wM2MtNC41LDEuNDItNy41NywxLjQyLTguMjUsMC4zYy0wLjY4LTEuMTMsMC42OC0zLjksNC4wNS03LjJjLTAuMjMtMC45OC0wLjMtMS45NS0wLjMtMi44NSAgICAgYy01LjMyLDQuOC03LjA1LDktNS43LDExLjI1QzIuMSwzNS4zMywzLjY3LDM2LDUuOTIsMzZjMi43LTAuMTUsNS40LTAuNjcsNy45NS0xLjcyYzMuMy0xLjI4LDYuNDUtMi44NSw5LjM4LTQuNzMgICAgIGMzLTEuOCw1Ljg1LTMuOSw4LjQ3LTYuM2MxLjA1LTAuOSwyLjAzLTEuODcsMi45My0yLjkyQzM3LjcyLDE2Ljg4LDM4LjcsMTQuMDMsMzcuNSwxMi4xNXoiLz4mI3hhOwkJPC9nPiYjeGE7CTwvZz4mI3hhOzwvZz4mI3hhOzwvc3ZnPg==;" parent="1" vertex="1">
          <mxGeometry x="1076.98" y="143.24" width="60" height="56.76" as="geometry" />
        </mxCell>
        <mxCell id="OIpXf6CerVtjoZWrU3Lm-7" value="" style="endArrow=none;startArrow=classic;html=1;strokeWidth=2;strokeColor=#177CFF;entryX=0.75;entryY=0;entryDx=0;entryDy=0;exitX=0;exitY=0.5;exitDx=0;exitDy=0;startFill=1;endFill=0;" parent="1" source="OIpXf6CerVtjoZWrU3Lm-5" target="OIpXf6CerVtjoZWrU3Lm-49" edge="1">
          <mxGeometry width="50" height="50" relative="1" as="geometry">
            <mxPoint x="770" y="651.79" as="sourcePoint" />
            <mxPoint x="953.9940000000001" y="170.00087999999997" as="targetPoint" />
            <Array as="points" />
          </mxGeometry>
        </mxCell>
        <mxCell id="OIpXf6CerVtjoZWrU3Lm-8" style="edgeStyle=orthogonalEdgeStyle;curved=1;rounded=0;orthogonalLoop=1;jettySize=auto;html=1;entryX=0.5;entryY=0;entryDx=0;entryDy=0;fontColor=#000000;strokeColor=#66B2FF;exitX=0;exitY=0.5;exitDx=0;exitDy=0;" parent="1" source="OIpXf6CerVtjoZWrU3Lm-15" target="OIpXf6CerVtjoZWrU3Lm-16" edge="1">
          <mxGeometry relative="1" as="geometry">
            <mxPoint x="119.45000000000005" y="575.96" as="sourcePoint" />
            <mxPoint x="74.03500000000008" y="621.76" as="targetPoint" />
          </mxGeometry>
        </mxCell>
        <mxCell id="OIpXf6CerVtjoZWrU3Lm-9" style="edgeStyle=orthogonalEdgeStyle;curved=1;rounded=0;orthogonalLoop=1;jettySize=auto;html=1;fontColor=#000000;strokeColor=#66B2FF;exitX=1;exitY=0.5;exitDx=0;exitDy=0;entryX=0.5;entryY=0;entryDx=0;entryDy=0;" parent="1" source="OIpXf6CerVtjoZWrU3Lm-15" target="OIpXf6CerVtjoZWrU3Lm-14" edge="1">
          <mxGeometry relative="1" as="geometry">
            <mxPoint x="315.45000000000005" y="575.76" as="targetPoint" />
            <mxPoint x="231.3900000000001" y="575.96" as="sourcePoint" />
          </mxGeometry>
        </mxCell>
        <mxCell id="OIpXf6CerVtjoZWrU3Lm-12" value="" style="shape=image;verticalLabelPosition=bottom;labelBackgroundColor=#ffffff;verticalAlign=top;aspect=fixed;imageAspect=0;image=data:image/svg+xml,PHN2ZyB4bWxuczpjYz0iaHR0cDovL2NyZWF0aXZlY29tbW9ucy5vcmcvbnMjIiB4bWxuczpkYz0iaHR0cDovL3B1cmwub3JnL2RjL2VsZW1lbnRzLzEuMS8iIHhtbG5zOmlua3NjYXBlPSJodHRwOi8vd3d3Lmlua3NjYXBlLm9yZy9uYW1lc3BhY2VzL2lua3NjYXBlIiB4bWxuczpyZGY9Imh0dHA6Ly93d3cudzMub3JnLzE5OTkvMDIvMjItcmRmLXN5bnRheC1ucyMiIHhtbG5zOnNvZGlwb2RpPSJodHRwOi8vc29kaXBvZGkuc291cmNlZm9yZ2UubmV0L0RURC9zb2RpcG9kaS0wLmR0ZCIgeG1sbnM6c3ZnPSJodHRwOi8vd3d3LnczLm9yZy8yMDAwL3N2ZyIgeG1sbnM9Imh0dHA6Ly93d3cudzMub3JnLzIwMDAvc3ZnIiB4bWxuczp4bGluaz0iaHR0cDovL3d3dy53My5vcmcvMTk5OS94bGluayIgdmVyc2lvbj0iMS4xIiBpZD0ic3ZnNTg1MzciIGlua3NjYXBlOnZlcnNpb249IjAuOTIuMyAoMjQwNTU0NiwgMjAxOC0wMy0xMSkiIHNvZGlwb2RpOmRvY25hbWU9ImF6dXJlX2Z1bmN0aW9ucy5zdmciIHg9IjBweCIgeT0iMHB4IiB2aWV3Qm94PSIwIDAgNTcuMzEgNTIuODEiIHN0eWxlPSJlbmFibGUtYmFja2dyb3VuZDpuZXcgMCAwIDU3LjMxIDUyLjgxOyIgeG1sOnNwYWNlPSJwcmVzZXJ2ZSI+JiN4YTs8c29kaXBvZGk6bmFtZWR2aWV3IGJvcmRlcmNvbG9yPSIjNjY2NjY2IiBib3JkZXJvcGFjaXR5PSIxIiBmaXQtbWFyZ2luLWJvdHRvbT0iMCIgZml0LW1hcmdpbi1sZWZ0PSIwIiBmaXQtbWFyZ2luLXJpZ2h0PSIwIiBmaXQtbWFyZ2luLXRvcD0iMCIgZ3JpZHRvbGVyYW5jZT0iMTAiIGd1aWRldG9sZXJhbmNlPSIxMCIgaWQ9Im5hbWVkdmlldzU4NTM5IiBpbmtzY2FwZTpjdXJyZW50LWxheWVyPSJzdmc1ODUzNyIgaW5rc2NhcGU6Y3g9IjM5LjQ3MTQ0MiIgaW5rc2NhcGU6Y3k9IjI2LjM0NTIxNyIgaW5rc2NhcGU6cGFnZW9wYWNpdHk9IjAiIGlua3NjYXBlOnBhZ2VzaGFkb3c9IjIiIGlua3NjYXBlOndpbmRvdy1oZWlnaHQ9IjEwMTciIGlua3NjYXBlOndpbmRvdy1tYXhpbWl6ZWQ9IjEiIGlua3NjYXBlOndpbmRvdy13aWR0aD0iMTkyMCIgaW5rc2NhcGU6d2luZG93LXg9Ii04IiBpbmtzY2FwZTp3aW5kb3cteT0iLTgiIGlua3NjYXBlOnpvb209IjYuMzkxNjgyOCIgb2JqZWN0dG9sZXJhbmNlPSIxMCIgcGFnZWNvbG9yPSIjZmZmZmZmIiBzaG93Z3JpZD0iZmFsc2UiPiYjeGE7CTwvc29kaXBvZGk6bmFtZWR2aWV3PiYjeGE7PGcgaWQ9Imc1ODUzNSIgdHJhbnNmb3JtPSJ0cmFuc2xhdGUoLTkuNTYzNDE2MSwtOS41Njc2MDUyKSI+JiN4YTsJPHRpdGxlIGlkPSJ0aXRsZTU4NTEwIj5QYWdlLTE8L3RpdGxlPiYjeGE7CTxnIGlkPSJncm91cDQ0MzYtMSIgdHJhbnNmb3JtPSJ0cmFuc2xhdGUoOS4zOTU0MywtOS41NjI1KSI+JiN4YTsJCTx0aXRsZSBpZD0idGl0bGU1ODUxMiI+QXp1cmUgRnVuY3Rpb25zLjQzNzwvdGl0bGU+JiN4YTsJCTxnIGlkPSJzaGFwZTQ0MzctMiIgdHJhbnNmb3JtPSJ0cmFuc2xhdGUoMzkuMjA1OSwtMTAuMjkzOCkiPiYjeGE7CQkJPHRpdGxlIGlkPSJ0aXRsZTU4NTE0Ij5TaGVldC40NDM3PC90aXRsZT4mI3hhOwkJCTxwYXRoIGlkPSJwYXRoNTg1MTYiIGlua3NjYXBlOmNvbm5lY3Rvci1jdXJ2YXR1cmU9IjAiIHN0eWxlPSJmaWxsOiMzOTk5QzY7IiBkPSJNMTcuOSw1Ni4xOGMwLjU0LTAuNTMsMC40NS0xLjUyLDAtMi4wNiAgICAgbC0yLjc3LTIuNzdsLTEyLjM2LTEyYy0wLjUzLTAuNTMtMS4zNC0wLjUzLTEuOTYsMGMtMC41NCwwLjU0LTAuNzIsMS41MywwLDIuMDZsMTIuOTcsMTIuNzFjMC41NCwwLjU0LDAuNTQsMS41MywwLDIuMDYgICAgIEwwLjU0LDY5LjM0QzAsNjkuODgsMCw3MC44NiwwLjU0LDcxLjRjMC41MywwLjU0LDEuNTIsMC40NSwxLjk3LDBsMTIuMjYtMTIuMTdjMCwwLDAsMCwwLjA5LTAuMDlMMTcuOSw1Ni4xOHoiLz4mI3hhOwkJPC9nPiYjeGE7CQk8ZyBpZD0ic2hhcGU0NDM4LTQiIHRyYW5zZm9ybT0idHJhbnNsYXRlKDAsLTEwLjI5MzgpIj4mI3hhOwkJCTx0aXRsZSBpZD0idGl0bGU1ODUxOSI+U2hlZXQuNDQzODwvdGl0bGU+JiN4YTsJCQk8cGF0aCBpZD0icGF0aDU4NTIxIiBpbmtzY2FwZTpjb25uZWN0b3ItY3VydmF0dXJlPSIwIiBzdHlsZT0iZmlsbDojMzk5OUM2OyIgZD0iTTAuNTQsNTYuMThjLTAuNTQtMC41My0wLjQ1LTEuNTIsMC0yLjA2ICAgICBsMi43Ny0yLjc3bDEyLjM1LTEyYzAuNTQtMC41MywxLjM1LTAuNTMsMS45NywwYzAuNTQsMC41NCwwLjcyLDEuNTMsMCwyLjA2TDQuOTIsNTQuMTJjLTAuNTMsMC41NC0wLjUzLDEuNTMsMCwyLjA2TDE3LjksNjkuMzQgICAgIGMwLjU0LDAuNTQsMC41NCwxLjUyLDAsMi4wNmMtMC41MywwLjU0LTEuNTIsMC40NS0xLjk3LDBMMy40LDU5LjQxYzAsMCwwLDAtMC4wOS0wLjA5TDAuNTQsNTYuMTh6Ii8+JiN4YTsJCTwvZz4mI3hhOwkJPGcgaWQ9InNoYXBlNDQzOS02IiB0cmFuc2Zvcm09InRyYW5zbGF0ZSgxNS45MzMpIj4mI3hhOwkJCTx0aXRsZSBpZD0idGl0bGU1ODUyNCI+U2hlZXQuNDQzOTwvdGl0bGU+JiN4YTsJCQk8cGF0aCBpZD0icGF0aDU4NTI2IiBpbmtzY2FwZTpjb25uZWN0b3ItY3VydmF0dXJlPSIwIiBzdHlsZT0iZmlsbDojRkNEMTE2OyIgZD0iTTI2Ljg1LDE5LjEzSDkuNEwwLDQ1LjYybDExLjQ2LDAuMDlMMi41MSw3MS45NCAgICAgbDI0LjctMzVIMTUuMjJMMjYuODUsMTkuMTN6Ii8+JiN4YTsJCTwvZz4mI3hhOwkJPGcgaWQ9InNoYXBlNDQ0MC04IiB0cmFuc2Zvcm09InRyYW5zbGF0ZSgxOC40MzkzKSI+JiN4YTsJCQk8dGl0bGUgaWQ9InRpdGxlNTg1MjkiPlNoZWV0LjQ0NDA8L3RpdGxlPiYjeGE7CQkJPHBhdGggaWQ9InBhdGg1ODUzMSIgaW5rc2NhcGU6Y29ubmVjdG9yLWN1cnZhdHVyZT0iMCIgc3R5bGU9ImZpbGw6I0ZGOEMwMDtmaWxsLW9wYWNpdHk6MC4zOyIgZD0iTTEyLjcxLDM2Ljk0bDExLjY0LTE3LjgxICAgICBoLTkuMTNMNS41NSw0MS4xNGwxMS40NiwwLjA5TDAsNzEuOTRsMjQuNzEtMzVMMTIuNzEsMzYuOTR6Ii8+JiN4YTsJCTwvZz4mI3hhOwk8L2c+JiN4YTs8L2c+JiN4YTs8L3N2Zz4=;" parent="1" vertex="1">
          <mxGeometry x="124.25" y="613.75" width="45.17" height="42" as="geometry" />
        </mxCell>
        <mxCell id="OIpXf6CerVtjoZWrU3Lm-13" value="" style="shape=image;verticalLabelPosition=bottom;labelBackgroundColor=#ffffff;verticalAlign=top;aspect=fixed;imageAspect=0;image=data:image/svg+xml,PHN2ZyB4bWxuczpjYz0iaHR0cDovL2NyZWF0aXZlY29tbW9ucy5vcmcvbnMjIiB4bWxuczpkYz0iaHR0cDovL3B1cmwub3JnL2RjL2VsZW1lbnRzLzEuMS8iIHhtbG5zOmlua3NjYXBlPSJodHRwOi8vd3d3Lmlua3NjYXBlLm9yZy9uYW1lc3BhY2VzL2lua3NjYXBlIiB4bWxuczpyZGY9Imh0dHA6Ly93d3cudzMub3JnLzE5OTkvMDIvMjItcmRmLXN5bnRheC1ucyMiIHhtbG5zOnNvZGlwb2RpPSJodHRwOi8vc29kaXBvZGkuc291cmNlZm9yZ2UubmV0L0RURC9zb2RpcG9kaS0wLmR0ZCIgeG1sbnM6c3ZnPSJodHRwOi8vd3d3LnczLm9yZy8yMDAwL3N2ZyIgeG1sbnM9Imh0dHA6Ly93d3cudzMub3JnLzIwMDAvc3ZnIiB4bWxuczp4bGluaz0iaHR0cDovL3d3dy53My5vcmcvMTk5OS94bGluayIgdmVyc2lvbj0iMS4xIiBpZD0ic3ZnNTg1MzciIGlua3NjYXBlOnZlcnNpb249IjAuOTIuMyAoMjQwNTU0NiwgMjAxOC0wMy0xMSkiIHNvZGlwb2RpOmRvY25hbWU9ImF6dXJlX2Z1bmN0aW9ucy5zdmciIHg9IjBweCIgeT0iMHB4IiB2aWV3Qm94PSIwIDAgNTcuMzEgNTIuODEiIHN0eWxlPSJlbmFibGUtYmFja2dyb3VuZDpuZXcgMCAwIDU3LjMxIDUyLjgxOyIgeG1sOnNwYWNlPSJwcmVzZXJ2ZSI+JiN4YTs8c29kaXBvZGk6bmFtZWR2aWV3IGJvcmRlcmNvbG9yPSIjNjY2NjY2IiBib3JkZXJvcGFjaXR5PSIxIiBmaXQtbWFyZ2luLWJvdHRvbT0iMCIgZml0LW1hcmdpbi1sZWZ0PSIwIiBmaXQtbWFyZ2luLXJpZ2h0PSIwIiBmaXQtbWFyZ2luLXRvcD0iMCIgZ3JpZHRvbGVyYW5jZT0iMTAiIGd1aWRldG9sZXJhbmNlPSIxMCIgaWQ9Im5hbWVkdmlldzU4NTM5IiBpbmtzY2FwZTpjdXJyZW50LWxheWVyPSJzdmc1ODUzNyIgaW5rc2NhcGU6Y3g9IjM5LjQ3MTQ0MiIgaW5rc2NhcGU6Y3k9IjI2LjM0NTIxNyIgaW5rc2NhcGU6cGFnZW9wYWNpdHk9IjAiIGlua3NjYXBlOnBhZ2VzaGFkb3c9IjIiIGlua3NjYXBlOndpbmRvdy1oZWlnaHQ9IjEwMTciIGlua3NjYXBlOndpbmRvdy1tYXhpbWl6ZWQ9IjEiIGlua3NjYXBlOndpbmRvdy13aWR0aD0iMTkyMCIgaW5rc2NhcGU6d2luZG93LXg9Ii04IiBpbmtzY2FwZTp3aW5kb3cteT0iLTgiIGlua3NjYXBlOnpvb209IjYuMzkxNjgyOCIgb2JqZWN0dG9sZXJhbmNlPSIxMCIgcGFnZWNvbG9yPSIjZmZmZmZmIiBzaG93Z3JpZD0iZmFsc2UiPiYjeGE7CTwvc29kaXBvZGk6bmFtZWR2aWV3PiYjeGE7PGcgaWQ9Imc1ODUzNSIgdHJhbnNmb3JtPSJ0cmFuc2xhdGUoLTkuNTYzNDE2MSwtOS41Njc2MDUyKSI+JiN4YTsJPHRpdGxlIGlkPSJ0aXRsZTU4NTEwIj5QYWdlLTE8L3RpdGxlPiYjeGE7CTxnIGlkPSJncm91cDQ0MzYtMSIgdHJhbnNmb3JtPSJ0cmFuc2xhdGUoOS4zOTU0MywtOS41NjI1KSI+JiN4YTsJCTx0aXRsZSBpZD0idGl0bGU1ODUxMiI+QXp1cmUgRnVuY3Rpb25zLjQzNzwvdGl0bGU+JiN4YTsJCTxnIGlkPSJzaGFwZTQ0MzctMiIgdHJhbnNmb3JtPSJ0cmFuc2xhdGUoMzkuMjA1OSwtMTAuMjkzOCkiPiYjeGE7CQkJPHRpdGxlIGlkPSJ0aXRsZTU4NTE0Ij5TaGVldC40NDM3PC90aXRsZT4mI3hhOwkJCTxwYXRoIGlkPSJwYXRoNTg1MTYiIGlua3NjYXBlOmNvbm5lY3Rvci1jdXJ2YXR1cmU9IjAiIHN0eWxlPSJmaWxsOiMzOTk5QzY7IiBkPSJNMTcuOSw1Ni4xOGMwLjU0LTAuNTMsMC40NS0xLjUyLDAtMi4wNiAgICAgbC0yLjc3LTIuNzdsLTEyLjM2LTEyYy0wLjUzLTAuNTMtMS4zNC0wLjUzLTEuOTYsMGMtMC41NCwwLjU0LTAuNzIsMS41MywwLDIuMDZsMTIuOTcsMTIuNzFjMC41NCwwLjU0LDAuNTQsMS41MywwLDIuMDYgICAgIEwwLjU0LDY5LjM0QzAsNjkuODgsMCw3MC44NiwwLjU0LDcxLjRjMC41MywwLjU0LDEuNTIsMC40NSwxLjk3LDBsMTIuMjYtMTIuMTdjMCwwLDAsMCwwLjA5LTAuMDlMMTcuOSw1Ni4xOHoiLz4mI3hhOwkJPC9nPiYjeGE7CQk8ZyBpZD0ic2hhcGU0NDM4LTQiIHRyYW5zZm9ybT0idHJhbnNsYXRlKDAsLTEwLjI5MzgpIj4mI3hhOwkJCTx0aXRsZSBpZD0idGl0bGU1ODUxOSI+U2hlZXQuNDQzODwvdGl0bGU+JiN4YTsJCQk8cGF0aCBpZD0icGF0aDU4NTIxIiBpbmtzY2FwZTpjb25uZWN0b3ItY3VydmF0dXJlPSIwIiBzdHlsZT0iZmlsbDojMzk5OUM2OyIgZD0iTTAuNTQsNTYuMThjLTAuNTQtMC41My0wLjQ1LTEuNTIsMC0yLjA2ICAgICBsMi43Ny0yLjc3bDEyLjM1LTEyYzAuNTQtMC41MywxLjM1LTAuNTMsMS45NywwYzAuNTQsMC41NCwwLjcyLDEuNTMsMCwyLjA2TDQuOTIsNTQuMTJjLTAuNTMsMC41NC0wLjUzLDEuNTMsMCwyLjA2TDE3LjksNjkuMzQgICAgIGMwLjU0LDAuNTQsMC41NCwxLjUyLDAsMi4wNmMtMC41MywwLjU0LTEuNTIsMC40NS0xLjk3LDBMMy40LDU5LjQxYzAsMCwwLDAtMC4wOS0wLjA5TDAuNTQsNTYuMTh6Ii8+JiN4YTsJCTwvZz4mI3hhOwkJPGcgaWQ9InNoYXBlNDQzOS02IiB0cmFuc2Zvcm09InRyYW5zbGF0ZSgxNS45MzMpIj4mI3hhOwkJCTx0aXRsZSBpZD0idGl0bGU1ODUyNCI+U2hlZXQuNDQzOTwvdGl0bGU+JiN4YTsJCQk8cGF0aCBpZD0icGF0aDU4NTI2IiBpbmtzY2FwZTpjb25uZWN0b3ItY3VydmF0dXJlPSIwIiBzdHlsZT0iZmlsbDojRkNEMTE2OyIgZD0iTTI2Ljg1LDE5LjEzSDkuNEwwLDQ1LjYybDExLjQ2LDAuMDlMMi41MSw3MS45NCAgICAgbDI0LjctMzVIMTUuMjJMMjYuODUsMTkuMTN6Ii8+JiN4YTsJCTwvZz4mI3hhOwkJPGcgaWQ9InNoYXBlNDQ0MC04IiB0cmFuc2Zvcm09InRyYW5zbGF0ZSgxOC40MzkzKSI+JiN4YTsJCQk8dGl0bGUgaWQ9InRpdGxlNTg1MjkiPlNoZWV0LjQ0NDA8L3RpdGxlPiYjeGE7CQkJPHBhdGggaWQ9InBhdGg1ODUzMSIgaW5rc2NhcGU6Y29ubmVjdG9yLWN1cnZhdHVyZT0iMCIgc3R5bGU9ImZpbGw6I0ZGOEMwMDtmaWxsLW9wYWNpdHk6MC4zOyIgZD0iTTEyLjcxLDM2Ljk0bDExLjY0LTE3LjgxICAgICBoLTkuMTNMNS41NSw0MS4xNGwxMS40NiwwLjA5TDAsNzEuOTRsMjQuNzEtMzVMMTIuNzEsMzYuOTR6Ii8+JiN4YTsJCTwvZz4mI3hhOwk8L2c+JiN4YTs8L2c+JiN4YTs8L3N2Zz4=;" parent="1" vertex="1">
          <mxGeometry x="188.64" y="613.75" width="45.17" height="42" as="geometry" />
        </mxCell>
        <mxCell id="OIpXf6CerVtjoZWrU3Lm-14" value="" style="shape=image;verticalLabelPosition=bottom;labelBackgroundColor=#ffffff;verticalAlign=top;aspect=fixed;imageAspect=0;image=data:image/svg+xml,PHN2ZyB4bWxuczpjYz0iaHR0cDovL2NyZWF0aXZlY29tbW9ucy5vcmcvbnMjIiB4bWxuczpkYz0iaHR0cDovL3B1cmwub3JnL2RjL2VsZW1lbnRzLzEuMS8iIHhtbG5zOmlua3NjYXBlPSJodHRwOi8vd3d3Lmlua3NjYXBlLm9yZy9uYW1lc3BhY2VzL2lua3NjYXBlIiB4bWxuczpyZGY9Imh0dHA6Ly93d3cudzMub3JnLzE5OTkvMDIvMjItcmRmLXN5bnRheC1ucyMiIHhtbG5zOnNvZGlwb2RpPSJodHRwOi8vc29kaXBvZGkuc291cmNlZm9yZ2UubmV0L0RURC9zb2RpcG9kaS0wLmR0ZCIgeG1sbnM6c3ZnPSJodHRwOi8vd3d3LnczLm9yZy8yMDAwL3N2ZyIgeG1sbnM9Imh0dHA6Ly93d3cudzMub3JnLzIwMDAvc3ZnIiB4bWxuczp4bGluaz0iaHR0cDovL3d3dy53My5vcmcvMTk5OS94bGluayIgdmVyc2lvbj0iMS4xIiBpZD0ic3ZnNTg1MzciIGlua3NjYXBlOnZlcnNpb249IjAuOTIuMyAoMjQwNTU0NiwgMjAxOC0wMy0xMSkiIHNvZGlwb2RpOmRvY25hbWU9ImF6dXJlX2Z1bmN0aW9ucy5zdmciIHg9IjBweCIgeT0iMHB4IiB2aWV3Qm94PSIwIDAgNTcuMzEgNTIuODEiIHN0eWxlPSJlbmFibGUtYmFja2dyb3VuZDpuZXcgMCAwIDU3LjMxIDUyLjgxOyIgeG1sOnNwYWNlPSJwcmVzZXJ2ZSI+JiN4YTs8c29kaXBvZGk6bmFtZWR2aWV3IGJvcmRlcmNvbG9yPSIjNjY2NjY2IiBib3JkZXJvcGFjaXR5PSIxIiBmaXQtbWFyZ2luLWJvdHRvbT0iMCIgZml0LW1hcmdpbi1sZWZ0PSIwIiBmaXQtbWFyZ2luLXJpZ2h0PSIwIiBmaXQtbWFyZ2luLXRvcD0iMCIgZ3JpZHRvbGVyYW5jZT0iMTAiIGd1aWRldG9sZXJhbmNlPSIxMCIgaWQ9Im5hbWVkdmlldzU4NTM5IiBpbmtzY2FwZTpjdXJyZW50LWxheWVyPSJzdmc1ODUzNyIgaW5rc2NhcGU6Y3g9IjM5LjQ3MTQ0MiIgaW5rc2NhcGU6Y3k9IjI2LjM0NTIxNyIgaW5rc2NhcGU6cGFnZW9wYWNpdHk9IjAiIGlua3NjYXBlOnBhZ2VzaGFkb3c9IjIiIGlua3NjYXBlOndpbmRvdy1oZWlnaHQ9IjEwMTciIGlua3NjYXBlOndpbmRvdy1tYXhpbWl6ZWQ9IjEiIGlua3NjYXBlOndpbmRvdy13aWR0aD0iMTkyMCIgaW5rc2NhcGU6d2luZG93LXg9Ii04IiBpbmtzY2FwZTp3aW5kb3cteT0iLTgiIGlua3NjYXBlOnpvb209IjYuMzkxNjgyOCIgb2JqZWN0dG9sZXJhbmNlPSIxMCIgcGFnZWNvbG9yPSIjZmZmZmZmIiBzaG93Z3JpZD0iZmFsc2UiPiYjeGE7CTwvc29kaXBvZGk6bmFtZWR2aWV3PiYjeGE7PGcgaWQ9Imc1ODUzNSIgdHJhbnNmb3JtPSJ0cmFuc2xhdGUoLTkuNTYzNDE2MSwtOS41Njc2MDUyKSI+JiN4YTsJPHRpdGxlIGlkPSJ0aXRsZTU4NTEwIj5QYWdlLTE8L3RpdGxlPiYjeGE7CTxnIGlkPSJncm91cDQ0MzYtMSIgdHJhbnNmb3JtPSJ0cmFuc2xhdGUoOS4zOTU0MywtOS41NjI1KSI+JiN4YTsJCTx0aXRsZSBpZD0idGl0bGU1ODUxMiI+QXp1cmUgRnVuY3Rpb25zLjQzNzwvdGl0bGU+JiN4YTsJCTxnIGlkPSJzaGFwZTQ0MzctMiIgdHJhbnNmb3JtPSJ0cmFuc2xhdGUoMzkuMjA1OSwtMTAuMjkzOCkiPiYjeGE7CQkJPHRpdGxlIGlkPSJ0aXRsZTU4NTE0Ij5TaGVldC40NDM3PC90aXRsZT4mI3hhOwkJCTxwYXRoIGlkPSJwYXRoNTg1MTYiIGlua3NjYXBlOmNvbm5lY3Rvci1jdXJ2YXR1cmU9IjAiIHN0eWxlPSJmaWxsOiMzOTk5QzY7IiBkPSJNMTcuOSw1Ni4xOGMwLjU0LTAuNTMsMC40NS0xLjUyLDAtMi4wNiAgICAgbC0yLjc3LTIuNzdsLTEyLjM2LTEyYy0wLjUzLTAuNTMtMS4zNC0wLjUzLTEuOTYsMGMtMC41NCwwLjU0LTAuNzIsMS41MywwLDIuMDZsMTIuOTcsMTIuNzFjMC41NCwwLjU0LDAuNTQsMS41MywwLDIuMDYgICAgIEwwLjU0LDY5LjM0QzAsNjkuODgsMCw3MC44NiwwLjU0LDcxLjRjMC41MywwLjU0LDEuNTIsMC40NSwxLjk3LDBsMTIuMjYtMTIuMTdjMCwwLDAsMCwwLjA5LTAuMDlMMTcuOSw1Ni4xOHoiLz4mI3hhOwkJPC9nPiYjeGE7CQk8ZyBpZD0ic2hhcGU0NDM4LTQiIHRyYW5zZm9ybT0idHJhbnNsYXRlKDAsLTEwLjI5MzgpIj4mI3hhOwkJCTx0aXRsZSBpZD0idGl0bGU1ODUxOSI+U2hlZXQuNDQzODwvdGl0bGU+JiN4YTsJCQk8cGF0aCBpZD0icGF0aDU4NTIxIiBpbmtzY2FwZTpjb25uZWN0b3ItY3VydmF0dXJlPSIwIiBzdHlsZT0iZmlsbDojMzk5OUM2OyIgZD0iTTAuNTQsNTYuMThjLTAuNTQtMC41My0wLjQ1LTEuNTIsMC0yLjA2ICAgICBsMi43Ny0yLjc3bDEyLjM1LTEyYzAuNTQtMC41MywxLjM1LTAuNTMsMS45NywwYzAuNTQsMC41NCwwLjcyLDEuNTMsMCwyLjA2TDQuOTIsNTQuMTJjLTAuNTMsMC41NC0wLjUzLDEuNTMsMCwyLjA2TDE3LjksNjkuMzQgICAgIGMwLjU0LDAuNTQsMC41NCwxLjUyLDAsMi4wNmMtMC41MywwLjU0LTEuNTIsMC40NS0xLjk3LDBMMy40LDU5LjQxYzAsMCwwLDAtMC4wOS0wLjA5TDAuNTQsNTYuMTh6Ii8+JiN4YTsJCTwvZz4mI3hhOwkJPGcgaWQ9InNoYXBlNDQzOS02IiB0cmFuc2Zvcm09InRyYW5zbGF0ZSgxNS45MzMpIj4mI3hhOwkJCTx0aXRsZSBpZD0idGl0bGU1ODUyNCI+U2hlZXQuNDQzOTwvdGl0bGU+JiN4YTsJCQk8cGF0aCBpZD0icGF0aDU4NTI2IiBpbmtzY2FwZTpjb25uZWN0b3ItY3VydmF0dXJlPSIwIiBzdHlsZT0iZmlsbDojRkNEMTE2OyIgZD0iTTI2Ljg1LDE5LjEzSDkuNEwwLDQ1LjYybDExLjQ2LDAuMDlMMi41MSw3MS45NCAgICAgbDI0LjctMzVIMTUuMjJMMjYuODUsMTkuMTN6Ii8+JiN4YTsJCTwvZz4mI3hhOwkJPGcgaWQ9InNoYXBlNDQ0MC04IiB0cmFuc2Zvcm09InRyYW5zbGF0ZSgxOC40MzkzKSI+JiN4YTsJCQk8dGl0bGUgaWQ9InRpdGxlNTg1MjkiPlNoZWV0LjQ0NDA8L3RpdGxlPiYjeGE7CQkJPHBhdGggaWQ9InBhdGg1ODUzMSIgaW5rc2NhcGU6Y29ubmVjdG9yLWN1cnZhdHVyZT0iMCIgc3R5bGU9ImZpbGw6I0ZGOEMwMDtmaWxsLW9wYWNpdHk6MC4zOyIgZD0iTTEyLjcxLDM2Ljk0bDExLjY0LTE3LjgxICAgICBoLTkuMTNMNS41NSw0MS4xNGwxMS40NiwwLjA5TDAsNzEuOTRsMjQuNzEtMzVMMTIuNzEsMzYuOTR6Ii8+JiN4YTsJCTwvZz4mI3hhOwk8L2c+JiN4YTs8L2c+JiN4YTs8L3N2Zz4=;" parent="1" vertex="1">
          <mxGeometry x="247.27999999999997" y="613.75" width="45.17" height="42" as="geometry" />
        </mxCell>
        <mxCell id="OIpXf6CerVtjoZWrU3Lm-15" value="" style="shape=image;verticalLabelPosition=bottom;labelBackgroundColor=#ffffff;verticalAlign=top;aspect=fixed;imageAspect=0;image=https://www.globant.com/sites/default/files/2021-04/Globant_.png;" parent="1" vertex="1">
          <mxGeometry x="129.25" y="493.75" width="102.14" height="53.23" as="geometry" />
        </mxCell>
        <mxCell id="OIpXf6CerVtjoZWrU3Lm-16" value="" style="shape=image;verticalLabelPosition=bottom;labelBackgroundColor=#ffffff;verticalAlign=top;aspect=fixed;imageAspect=0;image=data:image/svg+xml,PHN2ZyB4bWxuczpjYz0iaHR0cDovL2NyZWF0aXZlY29tbW9ucy5vcmcvbnMjIiB4bWxuczpkYz0iaHR0cDovL3B1cmwub3JnL2RjL2VsZW1lbnRzLzEuMS8iIHhtbG5zOmlua3NjYXBlPSJodHRwOi8vd3d3Lmlua3NjYXBlLm9yZy9uYW1lc3BhY2VzL2lua3NjYXBlIiB4bWxuczpyZGY9Imh0dHA6Ly93d3cudzMub3JnLzE5OTkvMDIvMjItcmRmLXN5bnRheC1ucyMiIHhtbG5zOnNvZGlwb2RpPSJodHRwOi8vc29kaXBvZGkuc291cmNlZm9yZ2UubmV0L0RURC9zb2RpcG9kaS0wLmR0ZCIgeG1sbnM6c3ZnPSJodHRwOi8vd3d3LnczLm9yZy8yMDAwL3N2ZyIgeG1sbnM9Imh0dHA6Ly93d3cudzMub3JnLzIwMDAvc3ZnIiB4bWxuczp4bGluaz0iaHR0cDovL3d3dy53My5vcmcvMTk5OS94bGluayIgdmVyc2lvbj0iMS4xIiBpZD0ic3ZnNTg1MzciIGlua3NjYXBlOnZlcnNpb249IjAuOTIuMyAoMjQwNTU0NiwgMjAxOC0wMy0xMSkiIHNvZGlwb2RpOmRvY25hbWU9ImF6dXJlX2Z1bmN0aW9ucy5zdmciIHg9IjBweCIgeT0iMHB4IiB2aWV3Qm94PSIwIDAgNTcuMzEgNTIuODEiIHN0eWxlPSJlbmFibGUtYmFja2dyb3VuZDpuZXcgMCAwIDU3LjMxIDUyLjgxOyIgeG1sOnNwYWNlPSJwcmVzZXJ2ZSI+JiN4YTs8c29kaXBvZGk6bmFtZWR2aWV3IGJvcmRlcmNvbG9yPSIjNjY2NjY2IiBib3JkZXJvcGFjaXR5PSIxIiBmaXQtbWFyZ2luLWJvdHRvbT0iMCIgZml0LW1hcmdpbi1sZWZ0PSIwIiBmaXQtbWFyZ2luLXJpZ2h0PSIwIiBmaXQtbWFyZ2luLXRvcD0iMCIgZ3JpZHRvbGVyYW5jZT0iMTAiIGd1aWRldG9sZXJhbmNlPSIxMCIgaWQ9Im5hbWVkdmlldzU4NTM5IiBpbmtzY2FwZTpjdXJyZW50LWxheWVyPSJzdmc1ODUzNyIgaW5rc2NhcGU6Y3g9IjM5LjQ3MTQ0MiIgaW5rc2NhcGU6Y3k9IjI2LjM0NTIxNyIgaW5rc2NhcGU6cGFnZW9wYWNpdHk9IjAiIGlua3NjYXBlOnBhZ2VzaGFkb3c9IjIiIGlua3NjYXBlOndpbmRvdy1oZWlnaHQ9IjEwMTciIGlua3NjYXBlOndpbmRvdy1tYXhpbWl6ZWQ9IjEiIGlua3NjYXBlOndpbmRvdy13aWR0aD0iMTkyMCIgaW5rc2NhcGU6d2luZG93LXg9Ii04IiBpbmtzY2FwZTp3aW5kb3cteT0iLTgiIGlua3NjYXBlOnpvb209IjYuMzkxNjgyOCIgb2JqZWN0dG9sZXJhbmNlPSIxMCIgcGFnZWNvbG9yPSIjZmZmZmZmIiBzaG93Z3JpZD0iZmFsc2UiPiYjeGE7CTwvc29kaXBvZGk6bmFtZWR2aWV3PiYjeGE7PGcgaWQ9Imc1ODUzNSIgdHJhbnNmb3JtPSJ0cmFuc2xhdGUoLTkuNTYzNDE2MSwtOS41Njc2MDUyKSI+JiN4YTsJPHRpdGxlIGlkPSJ0aXRsZTU4NTEwIj5QYWdlLTE8L3RpdGxlPiYjeGE7CTxnIGlkPSJncm91cDQ0MzYtMSIgdHJhbnNmb3JtPSJ0cmFuc2xhdGUoOS4zOTU0MywtOS41NjI1KSI+JiN4YTsJCTx0aXRsZSBpZD0idGl0bGU1ODUxMiI+QXp1cmUgRnVuY3Rpb25zLjQzNzwvdGl0bGU+JiN4YTsJCTxnIGlkPSJzaGFwZTQ0MzctMiIgdHJhbnNmb3JtPSJ0cmFuc2xhdGUoMzkuMjA1OSwtMTAuMjkzOCkiPiYjeGE7CQkJPHRpdGxlIGlkPSJ0aXRsZTU4NTE0Ij5TaGVldC40NDM3PC90aXRsZT4mI3hhOwkJCTxwYXRoIGlkPSJwYXRoNTg1MTYiIGlua3NjYXBlOmNvbm5lY3Rvci1jdXJ2YXR1cmU9IjAiIHN0eWxlPSJmaWxsOiMzOTk5QzY7IiBkPSJNMTcuOSw1Ni4xOGMwLjU0LTAuNTMsMC40NS0xLjUyLDAtMi4wNiAgICAgbC0yLjc3LTIuNzdsLTEyLjM2LTEyYy0wLjUzLTAuNTMtMS4zNC0wLjUzLTEuOTYsMGMtMC41NCwwLjU0LTAuNzIsMS41MywwLDIuMDZsMTIuOTcsMTIuNzFjMC41NCwwLjU0LDAuNTQsMS41MywwLDIuMDYgICAgIEwwLjU0LDY5LjM0QzAsNjkuODgsMCw3MC44NiwwLjU0LDcxLjRjMC41MywwLjU0LDEuNTIsMC40NSwxLjk3LDBsMTIuMjYtMTIuMTdjMCwwLDAsMCwwLjA5LTAuMDlMMTcuOSw1Ni4xOHoiLz4mI3hhOwkJPC9nPiYjeGE7CQk8ZyBpZD0ic2hhcGU0NDM4LTQiIHRyYW5zZm9ybT0idHJhbnNsYXRlKDAsLTEwLjI5MzgpIj4mI3hhOwkJCTx0aXRsZSBpZD0idGl0bGU1ODUxOSI+U2hlZXQuNDQzODwvdGl0bGU+JiN4YTsJCQk8cGF0aCBpZD0icGF0aDU4NTIxIiBpbmtzY2FwZTpjb25uZWN0b3ItY3VydmF0dXJlPSIwIiBzdHlsZT0iZmlsbDojMzk5OUM2OyIgZD0iTTAuNTQsNTYuMThjLTAuNTQtMC41My0wLjQ1LTEuNTIsMC0yLjA2ICAgICBsMi43Ny0yLjc3bDEyLjM1LTEyYzAuNTQtMC41MywxLjM1LTAuNTMsMS45NywwYzAuNTQsMC41NCwwLjcyLDEuNTMsMCwyLjA2TDQuOTIsNTQuMTJjLTAuNTMsMC41NC0wLjUzLDEuNTMsMCwyLjA2TDE3LjksNjkuMzQgICAgIGMwLjU0LDAuNTQsMC41NCwxLjUyLDAsMi4wNmMtMC41MywwLjU0LTEuNTIsMC40NS0xLjk3LDBMMy40LDU5LjQxYzAsMCwwLDAtMC4wOS0wLjA5TDAuNTQsNTYuMTh6Ii8+JiN4YTsJCTwvZz4mI3hhOwkJPGcgaWQ9InNoYXBlNDQzOS02IiB0cmFuc2Zvcm09InRyYW5zbGF0ZSgxNS45MzMpIj4mI3hhOwkJCTx0aXRsZSBpZD0idGl0bGU1ODUyNCI+U2hlZXQuNDQzOTwvdGl0bGU+JiN4YTsJCQk8cGF0aCBpZD0icGF0aDU4NTI2IiBpbmtzY2FwZTpjb25uZWN0b3ItY3VydmF0dXJlPSIwIiBzdHlsZT0iZmlsbDojRkNEMTE2OyIgZD0iTTI2Ljg1LDE5LjEzSDkuNEwwLDQ1LjYybDExLjQ2LDAuMDlMMi41MSw3MS45NCAgICAgbDI0LjctMzVIMTUuMjJMMjYuODUsMTkuMTN6Ii8+JiN4YTsJCTwvZz4mI3hhOwkJPGcgaWQ9InNoYXBlNDQ0MC04IiB0cmFuc2Zvcm09InRyYW5zbGF0ZSgxOC40MzkzKSI+JiN4YTsJCQk8dGl0bGUgaWQ9InRpdGxlNTg1MjkiPlNoZWV0LjQ0NDA8L3RpdGxlPiYjeGE7CQkJPHBhdGggaWQ9InBhdGg1ODUzMSIgaW5rc2NhcGU6Y29ubmVjdG9yLWN1cnZhdHVyZT0iMCIgc3R5bGU9ImZpbGw6I0ZGOEMwMDtmaWxsLW9wYWNpdHk6MC4zOyIgZD0iTTEyLjcxLDM2Ljk0bDExLjY0LTE3LjgxICAgICBoLTkuMTNMNS41NSw0MS4xNGwxMS40NiwwLjA5TDAsNzEuOTRsMjQuNzEtMzVMMTIuNzEsMzYuOTR6Ii8+JiN4YTsJCTwvZz4mI3hhOwk8L2c+JiN4YTs8L2c+JiN4YTs8L3N2Zz4=;" parent="1" vertex="1">
          <mxGeometry x="62.379999999999995" y="613.75" width="45.17" height="42" as="geometry" />
        </mxCell>
        <mxCell id="OIpXf6CerVtjoZWrU3Lm-18" style="edgeStyle=orthogonalEdgeStyle;curved=1;rounded=0;orthogonalLoop=1;jettySize=auto;html=1;entryX=0.5;entryY=0;entryDx=0;entryDy=0;fontColor=#000000;strokeColor=#66B2FF;exitX=0;exitY=0.5;exitDx=0;exitDy=0;" parent="1" source="OIpXf6CerVtjoZWrU3Lm-15" target="OIpXf6CerVtjoZWrU3Lm-12" edge="1">
          <mxGeometry relative="1" as="geometry">
            <mxPoint x="122.30999999999995" y="579.9200000000001" as="sourcePoint" />
            <mxPoint x="81.83500000000004" y="630.75" as="targetPoint" />
          </mxGeometry>
        </mxCell>
        <mxCell id="OIpXf6CerVtjoZWrU3Lm-20" style="edgeStyle=orthogonalEdgeStyle;curved=1;rounded=0;orthogonalLoop=1;jettySize=auto;html=1;fontColor=#000000;strokeColor=#66B2FF;exitX=1;exitY=0.5;exitDx=0;exitDy=0;" parent="1" source="OIpXf6CerVtjoZWrU3Lm-15" target="OIpXf6CerVtjoZWrU3Lm-13" edge="1">
          <mxGeometry relative="1" as="geometry">
            <mxPoint x="270.03499999999985" y="626.76" as="targetPoint" />
            <mxPoint x="234.25" y="579.9200000000001" as="sourcePoint" />
          </mxGeometry>
        </mxCell>
        <mxCell id="OIpXf6CerVtjoZWrU3Lm-21" value="" style="shape=image;imageAspect=0;aspect=fixed;verticalLabelPosition=bottom;verticalAlign=top;labelBackgroundColor=none;fontColor=#000000;image=data:image/png,iVBORw0KGgoAAAANSUhEUgAAARwAAAEZCAYAAABFOZpTAAAAAXNSR0IArs4c6QAAIABJREFUeF7tfQmYZUV59le3ezZmGAGVxRgBjQpMzwBGETQimAgD+V0AN0xU0CQuSRSX0DNoZAYRpllFo4JJRMyTuAv4RzZXTCKD/srMdI/Ar7+A8RE0yjAzzNIz3ff8z1nq1FdVX1V9dc65t2/fvjxPYs+9deqcU8t73+/9lhIw+G8wAoMRGIxAl0ZAdOk+g9v08gi8b+PzQYiFAOJgEHBE9qhCvLjyIwvYAO1kK7SS3TAN67N+2sMPwpVHPVS5z8GFfTECA8Dpi2n0vMQHNj4b9g4dBklyfNaqJZ4NCRwMor2fgNax5JWeVUF9lfjGkPgygfY9kLQeA4DdkCR3l8DU2rMBxp67td+nZC6/3wBw+mn2U3CZbB0DQ62jc4BJjhdCLCpfEc22+nMmlkCOQhoWFf9IEvEAQHJfBkQi2QDzkvvg4qPv76dpmsvvMhOrbS6Pd3Pv7gOXYlZDoDKTk+9mRQYYJQBJkuwCEOshNdWS9v3Qhvvg8hV3NjeYg566NQIzuea69Y79cZ/RiZS1vDLXVhBzEQBNAIvowkpIvLZXPk0sICrZENwKkNwO89q3DVjQ7FjmXVhms2Mgeu4p//anC2CfXSsBhl4Bor1SgDgke0YHwIQmMhZQQv1xxouBL1o3IUDS+0sUOGUsSDwAIrkJErgdxkZu5zzfoE33R6CJddX9p+7XO773J4fC8NRKEEOnCkjOkABT4EyONug/avJCwBKe8BBf4g2+CQ6+q0LARAGRfY0CoKSd7ALRug2S6dthavi2gXeMN2fdaBVef914irl8j9QlPTz8CoDplaXXqGQx1QDGPanCgCwLw4IzEe2lono00IKQkMurKDCKAqCM/cC9IOA2mJr+Alxx9N3Blxw06NgIDACnY0Pr6Xh04mkg4DyA5HW2qeRnGBSDoWBJ+4yY5V6YeJLZoA8pIKoGQAX7keAD7WsA9nx+4ILv/uLvhXXX/beeqTv+3fhroSXeJAScpusxbpDhAEx5tTGbnMnltCGHK70wZAs5xplzmdVGCsVZn+pbDgBR2k9mdkHr8zA9dd2A9XRvQ1Reb917xFl+p3eNHwSLknMgGXqrEMnh0qbJBx7/f/WeJsiYDIYCGN9EOr9DX/gXQswyCfmZivd0NPOBERm3Y6Ceeb1pfmGoyv4esJ6ubrCYldTVB5v1N8u0maF3CYCzKTZjDrwPZErlJQAQ5GSS14SnPdwiPEMcJiPZCgUm+A4kk5ENNDPMzX5Y4APwOUjghoGnKzy/VVo0sa6q3Lc/r7lw/VLYvc/ZAK13CQFHKhc2bTK5QQaJu8Wl1ERZnzUUk+OaHJ8HLOTS9k14iBNJJhILQFgD8jEf2uRKI57b18DOhdfCx5452Z8LtvtvNQCcJsb8fRsPhOGhVQBwjgDY3wQaH5vB35lMxrrOfFYPwIQmNuQ+b2JYQn2EQIpyfZcKjiUu63crvy61H5r5hFhPkiQPQwJjA+AJzSbv+9C65PUyV1uljGZy31WQtM/LcpYMd7YGJg5zKApkNLZDsyY8FRxQqbYA8FU8wynETswl5AIjio1k13oAqAr4mFrPAHia2eTV1lsz9569vazZPB92T78boDUaYjR402OIyP52mEtlOwfAoEvLMfSBi3uS82/Yi8DXkIk7fv+S2/EVG3sjB8YypdAXLpML34sGnmQtjK24bvYu4Jl7cvZam7lH7LE7j256KwhxYRY/w2A0XJNJmwgi8I/UcIgP7Y8cTMgz800uCi8OOVmJyWPsNRAGIBV7Q4EPh/V4gactHoAkWQuXjdzQYyu0px+nybXV0y9a++FGN70CYOhq6drG3IAynThsJhZkODE5FmMxZrjqhHOuY5Icayqs60gg8nMjtxaT21um8IzvicGHYj0D4Km9exQTb66rPu3p7za9GIbg6iztwMFoYs0mbDKZRg0FXpouow2zcTW6OAQQoe+pFcK2qJjIE2qmfV+KvzZfscwm4wNS97H6Q+ZcGpuT3Qb///y+EnwsUytlPO32arh8+Rf6dCc08lrsddfI3WZTJxeMr4Bp8REh4OSMNWQjpW/wGKDxsRlzEuh+5eDZLnOL1RRNnZNbfOEwtjo8S8YmdqAO9bEbgNwmWMgLRYnNIcbjBJ48iPBW2J2cC9cs/3WHB3JWdj8AHHPaMkEY1ghIVmdfZawmDmg0lqJwQuvFBzI6gNQAmA7H5VRd8W5mg8DIy1IKtoEfQGMsNjPBIEFxJGxyWeZWBONJjbckgS0A7TFYt2Ks6hj163UDwMEzm0YHDw1dbwbt+TQa7NaOBZqmA/9Uf/q0ciYZm3mNL3bCfKHuQQNRAR4xAGQAhDKO1F19uoxkPVzgsfvKNaMkEXfB8NS5g+Jgatw5a7Hx9ddzHRqshmc+FVCjsQjkYmZ4sGxTSPVJmUluVsQzjpBV6J2CphZFSKMpH6IECPqxKIPJLxK79RgTfOoCjwZKhM6U9p+AuBR2zF87iFiOCMHoOZBo6oEsVhM2nzJYqAE0Jv8w2QXJlErzzjS47IEIAYsbUKp8g1iDd058/MVxIQFEdi98D5QCGyz5FuYZ6tgUhP2MRzffKADLzKw23AvT0+fO9cz0pn7Mmtr+3esHsxrERoLmkyG4YrDAUOXrR6lCdPCfNikVY3JC0GF9342VQG5qyuApQMBYDbGxNyY4YTHYBB/5XQzj0cVlGnhM8Era4nqAXe+eq7V4urHMugci3Dudv+E4EMOfUVpNiNXY5lMIaGI8WPKxQ33i12siJocy27hDWKcdyXUcDEPeh7rGD0A68/GBD4aKoImE8LEEqeIz2Y+vj1xUTvOzxLlzMSN97gHOqk2jAlrrss1W2B4cVmOZOQFWZBo+2MxxmUxYOzLBgDKTTNNMuwZ9yZlkTps6IOPmMXqvGjAQmogTgAzzy9R9aOZSL/Ymq6WDHj/7O/ssZGZlnqxUVP4k7Jz/7rmk7XRjndVdp81cv3rDsyCZ9xkByQk4gE8OgGQM5b+RSKM+yx+FJyrn2z8END6QUfcq7quNhM7KcEKUa1K9k22YiupWVZYIJfP6KwTSCo/jsLzs4Rz3QMF5NDjlm93sQTeP1LchtmLqO3wzC3mydrXPmCtxO1VWUzMA0M1eRjedDyDWqIxu2oSSn0qQMIGGisnBoKAGMw5ozElwB/7ViMmR4+0o0O6bjphF4gIOun9b8MXtSDOKaKDzCYN1GJ1omkoF4HG5wEngQe55UyNS5lhhYk0nZ8+Fw/1i1lI3IaKZe2UFsZZ8XtYQNk0oF6vxmU85b8FMRz+ILobRUPdBuCDvosiLk4UQ7sYAsNSZeHxtHMCoafVfRwORF4A08DAhSJo61P2rMR4yxcEFYIWZ5WZL0sRKzoOx5dc0s/h7s5c6664330g+VXYyQvsmMwcqZEJxWI3NQGhGUw5uF2JyqOqCGBxdk4UBsisTGoi5sY2l/BOpj/gYkMsssswntPMpxoPbU31WMrM82o6Ex/R/kwQ+BzsWnNuvuk5/Ak6aB9WG21QJiYAJZTAH3aTSz3KK0Xpiy1f4NB8LPGLOrrJpk4YtcYuAas3nOc6WBDuQD2lfo1iJqw0HfJp2gSugQsfSFA+om1To0D7jvXMvVvse2Dt8Rj8e4Be31rryE1jzJlkZCfG5VK+JNaF09uMDqXz7+7UeBREaa7LMIn/9Ym2CUF6XD0Mo1uKeaP092aOfXsbHmaxbzCao+1jdOdiQ2S7bviRr0b1QGBC050GXa4ynaKQxGu0z3XTjmFmSqbk8WbLHdpqPlcDZ/eY67y/AGR1/lxDiI9lWL3ZdlAlFuLp95pOlwbhc7YieqGv4aQxBT5ZBf+xJxXc1tjqxAppcFCQmGR/q//TAUjDyWGc+NjApuoGhwmZDOjiaQBJnZtkaERd0Mtd5O1kDly1fy/4h6PGGTa6tmX3V0c2fECJ5e9jlLQowQuJvsWFdWeGKoah8BlPrIV3lkUCjAZhBU8yJ8h0rQ553hTqInfSY9pGkRydJJEtxA1Cw6BaD9dQGHkcmuQ1SecPStJLYV6CPbnKpSjzp50kiboQd88/uB10nZi3NLKC47o49UY5SEiZguMDC3vBq65rmU4kl1D2rAo1hMvlARv+OMIss080ewKjJNxqTFlUE2viaYgZhazQ0APnAB5tclnnkMZFIgCg+9JlZNHjkNyLZkiEoU2CVtOFW2LngjNkOOlFrrucQx/JEqY0XcnnrAKJ0lBhRmBOpXDf4DxMdE2S0f3sAxjnJ2jXdWApKLHXpPxQQuQGIAB9mxHEM8JCxN0UHJmPxRRpLNsUBnQyeNEaUJYB+B2D3GbM5D6sbq6wzOOXxRPHBRmcG+nVuUdgXaawGNOAqd0QsY+ZkSDNKqCYZlBpma1IZwX7dWAh+AsRzfZtir1MIdgm+2TDRWk+cNhNiLMX3mumETSrCxHK4zhWoFR6sZM/JsxV0urHOmgecVeOnQAI34cjh0kwyfrUxiOhtfO5uB9iwzKcaQINmwwIuD8jEAExowinWVGkCHfoJ1RcNRDwAMtkPqckY6Q6YF9HlJCRK2HlRHDNLicI06GCQxGxHN8Vo13npNp+loBNaf5XWWkcvyjK9h74bdnvn4nAJMsVDVfJeMRM9va5yH6MhzSHdXW5OlAkMOlfLX9Y1udhMC81VlQXClnI8QYB2H/66N+Um1kwd2+Ryxt4QAGkCB2ZXbDOLE/BHmGd5//0HOlXWU2iNdu77zIwS300Pn/MBh1kgi6fX+Ewo2vRSm9pf/U8glxIecNP0M+vkhEFGb0FNpg9c6MkPLwncggcuFHw4lkkDsTc+8DEFXc1EI0Rd3FepwchHt7xOPlHYZ2LRgYI+0EnBqJ0W9ZpqnTabAgTDq6tz8BHXc5btPby+OtjQoCE/1UGpYAeeAuqKOcW5yjOQshiNm83YTAYbW/YQUgBjT3IYqLwUiTNzDiQKQY/1fTD2puABDhNOshRsxviZSgEMlUVh9TyaoMxM5LRMNiMPSxecU9ARD8CUOHm2gM7sAJzUGwXiu+khdNWYjQIblqBMBQ4WdAZvdxKkyna2kVMVaBqtk4PBAs1+NxaCBiYEINkGEBHMzPRC6cyl6Icwt3yMh3KnO82sKLaDlSbbG9XPoNONdcb5PXS3mRGwiWNDWC+R5hPLdDKYjn2Nm834SlhY+o3FqOjh7uRi8JleLiAyAcjsgxv4h68r/2YG7GXAVdzI6ieoz9jXKsCam6DTyTVWD2jSq9Ogvsl9vqsyvul4Gbdm44qvifBCaZs10lXuYUUaSKGRolzu8mtWnRzUMTW5oQnXI5hDrX1TjOAiIPRQX2NgMHUWk73koKA/CwarsCfKMLioiGBEO5ozlQrzrXh03WPldpubrCz9d16ovffNqzorqj6g+HqoATZ+TxQNGtY1Blg4T2ogdJ7s0gBQmSzEBTSmJmOZdEZH5oS6Jtg001xTUWWBBPBFbi8LJOQzWEyG+ALzA5MhkYymQuwNCVQG29EZE3oqh4kVA1bSpLOvCXivdiw6oVcjkqusp84CTdp7eqLCruS27JjdYkPLB9XjavTjWtI2MWCj9xnJhgKlRsu+pXOacNErYHLrPTqeGO2Mo2osU6qYKewlw5NXdfLxdTxwsZcMfZ1ddoJkM+hDn9lVxQWOOQfFJPI34aUoYOYlociKuwmKyUVxrhKmVd1kN9OBW2Fs5PTOb9T4O1Rdc/F34l6Rg81NWZW+psGGjMuJ02sUSBnXGYwoHJND6zNUdroGJAyQodiLb6LL7zq5Gord4QMo+zt/3Ruf2aWxHPQP/XNdRylxjNJ3yMRL/frsX0EAoXWdkAtcT3NggE4CV8O6kfdwt1232nVyiVV7h1WbvyogOcOsH1yb2QTARpouGjOhDrsLuso7E5Njshc8cVyACQELbzFQrcI8x9nCA0QhACJNJ60/lLvFiDa2+uOAh5HMGTKxFCuxwaoJ0FHmV6rptN8GYyuuq7YRO3MVb4115t52r1o9G8Ug6oCNT1CWm1gHm7AwrEApD+dlmU8srSd/IgwMGrAYI+YKKJTN5HuFzSiabTU17TpwUDCC7sQEIOk5kldSYKEsL2NzE4zH5wK3zKyqLvDiOgwKsS5wDtPBoJYksLKXinj1DuCMbjoRQNxmpixUARsXS1HAgvQazRSKjzaWsGgzJLWJolzlhmlmTpCpx5CAhD7Ur/cAC7ES6iwOktEYH7qASPucACDzOlqrqRh743WBY+hRnjEfa7FMLAOsqgjDJkhRzEhCbFY5cHj6BLj46Pub+gGp00+dNVXnvvq179t4IAy3NqQ1iLHoa3l6TLOoaY2H2uyBGjs+rSYqq9wDNDGBfxTAaJ85wYg3ndUMKrtvClQUI3H8VRF8pLYSYjzqmaqmKFSLMm4adMho5N3tE3rh7KuZBxzkkaI8TCWD6CLYlAypoC1eE4ryPsVklTOBxmI6SNQxeQsFML6Jjl4E+IKwfKOhja851j9sU0k3i8xTL02IcsbeuDSe6Ngb9DwBE0sCnrxCMaL8LcvPzX48aQ0USGGmY4FOIu6CHfNPnml3efRa4/0ORrRaNXGVAHg35ZFSG58ygfhBgEFXeQe9VxkuFC+imV9eoKFNH2m2ydHFrcq/tXvp8+Cc7PKazi2HUr51II75sdusMoCn2LGWhlNsZR/w4J5MEMAAZkYa8wCkO94ozbzyVA7My1rA52DdyOsjdmfjTTu3wjiPunrjy0UydDPX/S03HK49HDK7mgIba3M7GBciHu4kTWdMThhoYkCGmlxXTI4NYpwJ5LUJkSCfAKwxHdQRBRbkWd9FB/geJbhoYEV7tFRbV+Rv3gnNWpoBHbdGo5twCgh9gYHiUli37ALezDXfauYAJ83+bg9t4IrETYMN6b3K2IjkIflgp/9UJpUdaKgYjM3CFPjQnifM4KgNTyV7YkDDHjInYBh1kjnAElwUESYVy4RC69o88gUzDQp8NN0FNaAZjzu3Sd3HDR7cgD+rhCgVnRzIAje9UV7QQf27QEcz22bQcxVcW81jXBlJvEEIONIlEmNAUBsz327pv6swmzBwKLBRAKfuqbvAJSDZAIWBpvzbUwxMAxFG+QqrPZ4kJsBYE0+shDqLgwQa40OvGSWZSc0zp0LRxi62UwJQxYC/uqAT0miy58NxQkibMkHH1nOShyGZPHImypTWWVPVscgI7sOAIrevziz0lAVKE9E+i/ReWUGGxY4un0X7N7dWjtvFnrMiA6gQirjMJjxZ6d8HzRdw8R/vAyOHLoAdu9tw7Xd2wFd+MZUzM2N2yn8bX9ALwL0sqG/8JpP9rfUJ2iz4sS1AMjI0LRaj9aNrPb68KMyi2PoMFfBnBgqacTeRTAeDDvVcJpD4WJGZGDpTek73AWf1+DtFIq4J6TZa/E1BN0hgQmCgWAlfULaewwM2FNPCDAYzG50hIbPMAJocfAq2VO62cPBfCjYf+dMlcNhB88qrfvnbKXjtV7brgINmWJ9sDGuM3w7OSgmJNdZhndggQs9AAJAPfNjA46ilEysKK4DS3eckWNUM9osBHYsV+bxcSXYKxDlw2cgNjNlvrAlnGTV2M3DUI3YF97kApNz4hY2T/luBQQ2w0TY+ZbrRGg8PaHArBDDEPSVimIxGfn7w/BZcffpiDWzS71LAeV0KOBaA2ffWJpVs39y0YwZBHQ9DwU75WQB8vGdOGYwH96mZUtmrErE3juuD5pKD6chxiI67cWg0ZX+aOaXE7ZCekwUF7kqO7GZ8TvcAJ4232T29Pq1tE6fbKNPDC0yGmRLSeEIMi2IelKDMAxv1Dl5GpLErnfXIe6fMhgIbCThnfzVnOOTpm0T/FKw0uShCpEduCvwcJgBRQCHbK+BQ9CXEeMprUEP1mWGKFbtafmpe67wukIcVp9HoYrcfSPxt7aBA+A6Mjbyk2Z8Xd29Nri3/M6/aNCqgtc4db2OfssABJrm1MBjo5gxxekOsxuPwXrnAxjS9VDus/8jh4id7+sBGAc7jun5DZJfj53FNWsh9zlmgprvbvIYCIxOAuOCjgQwjPaFkXR5RWDGSilngJfNwu6m9aQqEBqQxM8JkKoHRTKEoBjb9H0vP6WKSZ3cAJysTmtyXu8DdJg9btzE8Phowab/iPLChTDQNJJDuYoGZwRqwaUcBjY8RUfeUnx3oYTZyI6cm1eu/+riWUKpgjYaIGGDxLZYQk9EYjCH+mmxF+7fFQnQGwom9oRiPyVjs86Z46Q1B86pkSA7QIYRkzQWugY5dG8cVXczRc+S4tNvtXTCvfWw38q26BTi3pPVtOIzFr9vYuooXbAhB1gd4ltvbSFGoCzbSsCoH3RPhjMGHAzaS4fzZjY+Xe9uc3KYLcXFYDovVEABkAhhmPiTrcQnCntKgJcuRgXsVXeDyFqZ5x2MjLhMofzplPjlSIALRxdqzeRhRO019WLfsBVXmNOaazgPO6PhrhBBfcJlSdLwNU7chTCNtUxcbmmIdoSz0Ot4rnank00E9F25nuuYxs7mKEIipSU4Zzp8jwMn6kC9aXOCbcAyEMYvI2ZbQSKoAUBh8EOsJeKIUyKhscq4+I6/FIGCCgmrjikymQCQMOqYZxAOSvF8X8Fmm1XSyBi5bvraRuXd00lnAyeoSL76PygInvUpGidAQKJhshTKNSLApdnP6HRVxHEyH0K4vAMURV6M9E2JcOiipaVDtAQ5cIOCq02xvlGtBSMDhgIxka1Rf7kURb1Q5TS0DGORzWOBSNfaGYCsZGDhiYRCf0FiFBlCktwhfaesj3no3njgdLAyXIFZqQn4gyd/TnRSqgRBq124nu2C6fTJccfTdnQKdzgLO6OZPCJG8HbMFn6eJ2uglM/DpNsVbmAASApsMbiKy0M1SFCG9piqrSccrFYivjACbdIGkgPOGm3YgRqWWDQUw+uT7/lVt+dlgYxpDqF8CgHzgQ+kyChxoxmOaPEG2EzCxSKZDiLJ2giUCKSbolM/uBRLVbxVGlJ/8APfCzgXHdiqrvHOAc/6G40RrOENKiolYplTAPHIJynIjudmKMs/yZ9HNG26EMp1SUScux3guRHlysEmD+oajdnoKOG80AQfNsM2j3OePU3laMQ+DNRfzOh1IDBG4QAHSjCo6ohIxS/BALAAnVdqisO/MKDdrMVlSE6BDCc/YDOKIyEFGhCKj07ZOsTk1wZLkPBhbfk3MfHPbdgZwmDE3ThDxMRYfMHlYUKfBBgNfjh0FoJgb3lMrJ2164PxWwWziwEYynDelgIPGL18IFNTo5VE5CybeoKJ7NcHIC0AB5uM7pA4zHh0Y1ImeriA8DDlqg6LrTNMsFHcTaF8nTYGn5xgeLq+AnDwMu+DYTgQEdgZwRjedL0RrjC0UO0CE1ld0t7rSPFQmt9r8VFt3BLEykdQ25WSV62ATUaa0wAJ53zpgUwLOzTtKgVqHmuKdHDPemYWgA45LzzGdVNjw0q5xCMIm65B3NTcxZkGakOrRdjRBOZQb5QAdZQ4pNkcxo1gzSL5PjDDsAici16ojpz40v860mBv1W6+ZMhYTcQBDTd0GAwilp1AaTDAx1DQRNdCoCjYCUtd3rtnEMxu5wX7522k4pwSc4lMi8M816eUsNLkqkNuW4juk6aSZRSV8qKyICODBbIoCD8WCmCaWFVCnm4SaWFt0njGk4jUwIwuCjiOloYqeg++vm2sIBE0BeTcc3jTLaXJp5UNaZIJzY24qtUOb3MWC5K97VDoEAR7eYEQO2HhjeXLT68kp2KSu7wOrg03OcKbh3JtzkwpPLDXJctwoEGhyUbhYTf5LSxlT6olssMCGDo7+za8xN7X2Gdr8lLajNqHLnY3u3RHQ0QMD3QBhP0cJpJiBMaKQFeDZ9+5UhcAm1xbABeMrRFtsrGtKYe9R0DxiRh0H430CYJN9jaOkPWBDMScJgAoMcj7RFNhkgPO7aXhzCjiK3Gh4wnGX4wvqLA4n0MhfegPpQlX/TGHVJQhTwIOfxdJKNCDiMxE7JaEJppNv/Mp6jhFzw4lCVvez752ZagkcA2MjG6kfpiqf1VlT9v1C7MbYsD524xOUK+k2hBlXggDhvZLAgMGD0njY3isCoJoEGwk4b0GAI0HSByLWAqih8fjYjHwGqo1lVvlib1BjzURyAEf2sSP2JsbEoswfH+iEzCX5XKR55HGt+1iJzHjX+6SYU4SA3G722ODmAKcGu+HG5mBx1sVYXLoNO08LAUMTYKMLysp71TTYYMBhHZCH0dYq2NXcslCcAf+l7B8LbDzMR2MqiMpwgCcEOrK7YG6UKQx7zKsQ6ND5TvmTmEyH1n7sqGW6fg7Rn+Emlyaudd8sNqf9ShhbcXMVRmNe09zKcrCbUqytLBRzBWV5J72gVWy8j5fZaGDkqm+MnoNgNelHqUB8RQOajTmZqUn1F1/bmX1MajjoQ/Un9ZdnaVErJmA/2V/r5kd2t6KRBSqIGsnfagp41Gf6JjSZlQU82n3DaQc5M0FRvIhZKWah3i8IOmxh2I4u9sbSFC8eNJk87eRbtJP2PbBuxXN6B3AY7KZKzE0lk8sBCpSuop5J9y6RbU3w8CReptfrzEb1f+C8zoCNZDh/WQBOCTrFy7AAxmpbf4mVQGCgjv5PA4B8sTdGsmIJKBRwIDBAmBZlYlEgUh103MJwybDKZ/brOVzTqmo7y03eUAmLZhgOk92oTehnLb52UaaUR7fhmGdy01LgQUUo+9qnCNRJsEnvvWdvAv+zrV0fJXqkh6npBH7xu2ntaX77eAK/eTyBHz48Df+9O39XjfE4gCdoKmng1Emm4+6bpecYjMjHcjCIxQjIJZPEbvIkeRh2LDy8bspDfcBhsBtsppispWQTRV5TuWmNujk+00xd405b8OZpGWUsvMW8zJIXZtCiyYSKf3cabHoEI7r+GKkZuXtPGx7e0oaHHm3D1x+Ygt/uNV3bBYNCyMQ1f6zSE6EIYyI4kAUkZlF2w2xTZpwtK30yAAAgAElEQVRhWjnb8YVh2bfJhjSW01DKQ33AaYDdmKzFVePGp8d4GUsDeVo+b5QCTZwuoCKan9xBM6rrO3wW3PCRLdPw04en4Ef/PQVf/+V0wYBsbacJ0AlpNLTnKOcelkDr0XPYUcgI8KoKyM5s8gZYTj3AuWB8BbTFxkyzIBiJF0hwEmWHBOWquo26jq5jw9J4CiY0AJuZRajULHvw11Pwfx7cCzf+rGA/VqwL4TqfQWGYZQpxY24C7aR6xmY5NU96qAc4zLibGE2mklCsAVZecgKbZpS2EqUFITMpBDY4aXMANjMLNubdJ/cmGfP5xr2T8O8p8zE8Y5QHq9yQSOPhMiPTJHEJw7rZ5jGFNHNNtWtMGEbj4WY59TxW1QGni+yGCw6xLvA6wBQSlAdg01tgYz7N9l1t+MHPJuHmn0zBxPY2meuUAUQlptOsMOyMkeGaYATLoYRhNsuZmj6+apGu6oBTFNdyMpLCxKrDbuoLxbxscY5mFGJMWOMZgE1vgw1+utTk2vDAXvjsjyZhfHvh9aojDBu1ZlzsxaX9YPbkE5vJdkSdm2iTqRicXF9y5ViJG2HdsjOrzHI1wEnr3exqP0adwpDHoOilImjPFHUsjA0QVYViDohg88il23BY0ABsqiy93rpGAs8NP5rMGU8d0CE8R6U55Qv0Ywq+GMTYwrAFHv6UB5/HKjvloWImeTXAGZ14oxBwg7N0qJUzFQaSRkHJIWJbSaG+dqZugzxdrricAbPpLRCp8jQSeP7h7t3w4E4V5xPyRtEbn+GNigCnqpHFHWE5FQuuVwWcbwsBJ+c1bgrDpzwhwc9usGmC3cm1vFy+OJpSQLYLb7nibbiaEa5xPIizqbK9e/eaVGD++o93wUc37ckeMjMxkHAc69am4nnMPm1dhTJrqjMT20SK70uCV7uiizwecEYnniYEPNSz7MbBRHwg4orh8es23UlX6N0tOTee7MHfTMHHv7cTfrglF5Yx6FisxtQ9PHqOLxmTG3NjBeZp+osq4KEJ346aOf6+HFrOVPI6uHz5F2JWQjzgrNp8iYBkNWUChbQb5dmxXdemhhLqqxSUCXbj02Oa0m3k8w2YTcxym51tUzPrzs274UN3TxqgU98bFS0MOyKLm9RyzL5MU06xnHgXeQXAGf9Vfs4UrcuYImtlIGEEA4ZACQOcM72i1GqIBM6AbtOprO/ZuS37/6nTCOaL79gB49tSUVnPGOeykrDXigIxd8yNk5kwK/6xdCHUl53uEFegKw5wVo2fIkDcHjKnTFe4We+mMVDSCmfR0c5coThWtxmATf8DDPWGO3a34brv7oCb/zsPHMSBgb5Av9pJloSLGutIubmncsiCeVHS/HIAk81yXC5y+BysG3k9dzVEAs7mrwpIzqhiTpkxNZn7vEAm9Xcuw+ZidP5f/l28lyu/NiAUe86oogXlvL9OFM/iTtig3cyPQGpi3XLPLrjinj0Z4pCb3RHHYoJEpkM74l3y7+wTNOuCCc7vUvlcKreL49Uqzar0tE6YPATGnruVMzN8wHnfxgNhqPWgL/YmnrmEgcRkUzHaTSeSQgdgw1lWc6PNxgf2wEV37oL/2ZNuVtsU8jEOLZamSsSwA+hiWU4V8LLMqoj8Kj7grB5/p0jENbQ5pViJ25zitFEMp0l2ExSKGYwqfbLsKJcOVOqbG9uzP98y9WK995Yd8Js9Jc9BrCRcSiJjMUyWEwsmiiE5zaFsUrz3x8GIDUQe8wFn1aYfC2gdW9WcCgm8melkRCh3nt1wY3MGYNOfcNHMW2HQ8bnKrSRLTzJmrJjriz52eZlw7hSnjZnTpZlVOxfuzynOxQMcmaiJvTZlQB2lsRAb2VFgy4yBiTfLpFqDaxmr+/vYDTc2JzsRc8BsmtmdfdqLAp0iXsfIvC6ZROhcb03MtWNpQizHzLFqxGQiBGbbW8UrtM4DnPPHLxQtsSaUfkAJwZRY7GQuZbRyIRg7EkBrgZJTrM6BU5lyuWBd9/jdPt1fg9ciRiCtu/PeW1PzSrnNySRLp9Csu79rsRxDF8rZTMFJXPpPgU5SSKbEcIoJZfpVW1wPY8veHFoYPMAZnShSGZqLvYlNieCYXD7PVCgeSAPBAnUOyo7fXVLr+N3QBAy+768RyEHncfh1qukwkzH9sTS2u5vHcvyxOzGeqHDZigTaCWyBHQsOCZlVYcC5cP1S2L34EdESi1xu5hwMZHnNzppTIXZjxt3QWeO0doNBaQA2/QUE3Xyb+365F/7ylsfJEqJmZDEV71LN/FJubbcQTHjSGFnkGYMxTETqPZKp9klw+Yo7fWMdBpzVG18ukqGbKTOIIwR7AYAoM0oBF8csa5LdHLRgwGy6uUH78V7f3LgL1ty928tyGjOZHLE63BSFWPHYY1Z9EsaWvaMe4DgKbUkTJ8Q4bFAKx95QWgrVj6m3NMFuUrC56rTFcNhB8/pxHwzeqYsj8Nnv7YBP3bcn6CaPZTnNmkPKdc8RmKk2ylslHoCxZU+vCzg/FyI5nIz2rSTqBswZT2QxB9w4bbTTNZHnLTWjrkq9UQOw6eK27N9bpRHJY7dsh1t/lZ8cwRFhTXOIAwLZNb58J8LLZAYe6iZSIG7Hd69A+VG/SeUtRaEH8nXVg2W4583oY9MV7tWXCtBMg/quHoBN/+7+GXqzR7dPw198ZTv8ehJvYnpDO6OPsVcJpTtwTCZOG06qAzu3KlCYyw84qzb9lYDWddxgv7DniWdOhTxKvNwq+15WImcBXCmzGYDNDO3IOXDbDQ/sgb+5Y4diOYTL2pdj5c538ptDVWJyfCaTz1sl2VvShnthbOQo17QGAEcla1JgwjFfqDbqMyPdAZlTbvFYBRrGtaHTJgZgMwd2fA+8YqrnXHfvHu10CMqM4ZSb4LRxmkw4jcKbtsD3elkJpntbh8GVRz1EDXsAcCYeFQD7S0ZBgofTHd6MydVJT9jB81sDZtMDm3EuPEJa1uL8G7fDhrSWTrHplV5DZ4RrVQGZhbc4KQouL5MOUpxAQQcoTbsrAboBZ3TTiUK07uQka3L1m6omF4dJ6QW2wqbbwQsGYDMXNnovveNPf7UHzvnfuWmVC73Fhi2QR2acUwyGIx5XbUN5vbjARUUvJwlcDetG3hPHcDzpDBTr4IIJJ3fKnSJR1ZyyPWP/eNoSGDl0fi+tx8GzzIER+MdvbYfP/GwqKkPbZEJeN7ozbcEUqt0mUx0dJ+VF7UTcBeuWvSAOcFZt/r6A5ATXyQx+bcbQS1xeJZw7xWjDZVL4nCgqaPDtR82HN564ZA4s78Er9toIpF6rt3x5e5b60JQHqZqXiTCZHFHHHM1ItUmgnRblcmSPe0yq8Z242BZXv6E2ONfLZQJF1aDBkJfrS69aCk990nCvrcXB88yREbjtnp1w0Q8mu2ZWNW0yUYK0nT1O1zqmAWf1hmeJZPh+TlY3D0zCmkpMUfY475RtTt3+xv1g6T6tObK8B6/ZayOQBgS+64vb4J6sGHuNmJyKXia31uPPVncBF6njtJPzYGz5NebY04AzuukVQrRuqgMmfkbkruyn6TfRJpfkV3ltHJptCfjiWfsOGE6v7cI59jw//OkkvOvbOxszqzTzLFLHIRmLU8jmZaG3HeUqaMBZtWlUQGtdUL9xFeTCxbYY2gwvMdQGE67JZYLfB49bACuP3WeOLfHB6/bSCFAsp9NeJkozcniZCnMv13mszHCP1qPyqugAQAfgyIA/whTy5E9V129oMOG4w+O0JeXl+vgpi+GYwwdeql7ahHPtWUqWwzSrZD6WWepTebHcbvY6Ok7oOJrSvW+WsEh272ee5uAwqSZ+IgQcGQr4a9rkSgdOmkJZ7R1c3DwIdMhl7jGnsnsAQJoVvvqFi+DYp8+H4SF//ONc2wiD9+3OCKQs552ZljOtl7EoqI5eNkJChjo6JpzfFOf6zoErrOOE71vEGCWwEsZGbsejae+0NZvnw+5kUppTSlPRz4xyxcq4zBwt/gaDB05nqFEfh1vSgvJgrTykBfstahVFxPQhKbkX+ljeyxpI3KY8WatoVQyA2btkaFkrBLCyb/P+6nrFPvGtnM+GHla7p7yxRGJZTK2hPSfpeMnL1R8lbce3KtsXHy5dkMBB++Zvve8iAYc+SWT/2y//mSyHGwPDjRa2XeZ0PA5Xx4kSjolETnvmLhhfIdpiI09XkY5sm5nI9YtZUtMmFye6uKrJVdcTVr53CSSBEyJKgbwYJYLdYQaIQwjKsTZPvTDqN8vrFbYUoFWsgk5uYww85aItUAO7VPEGkaYCNiHSz459ooCjnyJg2VOH4IkFGM1WAEpZzqs/uxUemcxTHrJ3DpSa4IISdcoCS8dhaDShol05UxI3wrplZ/oZzuj4a4QQX2jEXGIIxq77cPUbxViKDU1scAs8iELqOWOztSS7qFdkG8e9XJnrOqO0j84xx4sCGwX2+V+Y1Wlg0wWgMYEAbyoVepZvshJgEK2nQEdtOIDfXwxw5rIhOPbwodmKOfCV9Tvgig1FXI63/ETz0cLO6n1yPiqCXw44ycOwbvlT/ICzauIqAfDuGCBwsYhGQMswueQWkhvTZdpxgKKql0s3yxRLyJ6FLCBGt1FgIRmiyW7chwdabMc6zM8Gm/K5EROaqV1q/krLX3Yf6DhLckICf7CvgFetGIIjnzr7gOeXv52CV39lG63jYADCZS0iXd8qo1vP4eKZZtU8Vdk9F4oFsGbZHrnObBY9OnGLEHCazyXuNjfCGeLhTa5MD/59eiOwkM22AmU4FENB7xU43kaBiX5muw5MOmOaKbCR98WgI4FGi1gthIWSFfnO6y424B8+ScCrnzMMTzlgdgV2vveLW+H7j6rKgPShcwywsEApTjiO0mi8LKgQn4enj4CLj77fDTirxn8lQBwSW1LUpc9w6+hoTAUF/DXOklwmlwECvPsWLEJ7XmRylV43nblUKbmBNTVNu/KcVtrLYEOBjm5u0SU5tY1YoFTuLlbHsiyZJ+Bvnz+72M73Nu+C0f/YFaXj8NgJccxMMGequqfKSnGY1k9y0BlOeiTM5JKt2CzolLlksQGGKxu7zCnB2MmIsJaEmYILKLCAa7TRzSlKY3FrSSRz8QRP6u+oTCQqitrVtzLb8hfppDBclTG5zCvz11axINtFbHpj0p17zvIW/PHI7CiGv21nG0797GOljqVEWeN8K09JC26sjZ1O4WdBPGBzmF1tOAcuG7mBZjgeDxXnuJewS9ytSYTABP9a+2J0SmbSEJhwvVzmhudqS3S+mrsMh9Mz5zO5ekCzCYERF3QsD42D5WSsJ0ng5U8fgjOfOzwrYq0u/tpW+LosuF5Bo8GA7AoSNNmgHCcsxOPPuB4x6VmTWpy8T2K4xvUfPEfRrVwMVb+QSrC1TQVygzrZi/2rHa3xMOJ4XDE6XDChtBnK5KJAOVwniA4tiGE3JrPzCcqhjT+T3+cLPd826m/3aQdmWD7FctI2L3v6ELz2+b3PdNIs8rV370a1j4uxMJI0sd4VW7SLBpwqpSrCOVXZs7WFdlaVATjxLnFt0+LoYJZLHOkdyIyJAQKe1hJwmcfqN2yTi469obxc/jCAgCfM6XpXTGkmgYR7b6Xh2PTcBSb6L7mKlDV/7f/q6CF48VG9DTppRcA3fq04sbNkbgp8LZOpAgtim134tM06rvE23ApjI6fTJtXoprcK0bo26BIndYcmPFR6NHP+S214rRCoSa1JmTOFW9piYxGA49GSuEBBaUmUycUp/1GlzWzQbVwgRFH4EjyQMKyZAoHYFXn9RSfPg2cc3Ltu88m9CZz0z1tKhkN7qmxB10rADIrCnNMezPtUc423jVMcdIYTKCta/gqz2AvfXGKJvWwgYJa+wHlbRMCf1In4QKHrLr1kcnEZRq+0o0wr6peZsyFxm32HBVz1snmwz8LedZl//I7t8C8/35uLxwxmERR0GX1wxtGp0Thc43K+2glsgXUjBzgYzuZPCJG8vakYnG66xN0xOw4gYIjKMaYdS7+xgK1Zk8s0b3vVKxUCNi/Lwb/eZCFyt1mVbpqzntmCs57Xu1UCUvf4+f+xiw04XLDg5lThUqG89IV8Nk1w1H4gUNa4oeFs/rQQybkk4ASztU2Tig7GixOVaY2nsku8gvbCFYxjKhYqUdc0FzlF4sOmKwa/0Obu1e8ly6HqtVQ9zkRujI/+rwXwpKW9GCAA8OCv98LZN24vRXOfVynGg2SVmAiaXZGxOCSTsoP/DMCZ+LYQcHIzQX9uwHHF4IQ9VB6NJzK+Jo698FhSHY3H5QmsW+e5VwEl9FzczRT1C1/8Ev/J77fgzS/qTZYj43GkGF6aMsxyoqbw7jJPOxmLY7EkVKZCB5xVm34soHVsFcAJx+CEf71rAU5k4GAM4GjPFWBJMaZd2GXOz9NyeblCG7uXv3cKwy6zSuoJRk0XCpQ+cvp8OGi/3tRyXvnpLfBIdqoDChOo4RondZ4gw2GkUThEfCvaGAX/mSbVz4VIDm+y8JbagDMHOC7m0QlzyQ04tilkAU5htlImF1+81guX9TKghJ7N+evM9FaVC5+g+284qgWnHdObLOfim7fCvz9c5FUZcUkShEvPXUVR2D7Vs7loYxtwkjVw2fK1cg2reV81kUhXs4qU1TOg1ee6/tAdhuPRPJpgHmxPmFvsZY2PK50hWifzewJDG7rXv+d6q4IeFCwuFyzoyQsSuPKVC3syAvlz//k4XDORn0PuYie1AccF2oTp5jJv2ZX/2hTgePOowkJlGHCqpzW4WEPjQX8VAMfFkjrBXlgmJ2JJvQ4ooedze6t4Ua5UFTvlUQFYe9I8eNZTei8u55sbd8IH7sojjskiWo4yFRazyC+n+2gAcMKer8IsIwFndOJpIOAh6aHSGU4NwCl2JM5/8rGAKG2lQCLZHy28xgf9scATxfFwXeJ+0443xi4vn2lyhTbzbPke6ziNbCgUJPj6I1rwsuf0nll13y/3wDn/nkccB0XxQLQxH3DcWeWs53CUDsnE6U4BTpzLmzYHug04zeRZOfQZb6Z5KIKaGJ+gxtM/+o0ERJZwbOgYVJCgrVkAHPdkgHe/dGHPYW9akOtVX97WCOAoRudJkUBxNJgBlqcxcIDP10cM4MhIGJXNTVenc0bmRiZu+n/B7Vgf9cuu0hpcoEWaYI1EGXcGcFxmGUeY7rldVPGBfPE4JOMpfvE5523vOw/gE2cu6DkdZ6YAJyZWhwZ1Igk09RiijHHlpRqdeJoQ8FAjxdNZqQ90UF8cS4oILoyoYxyf1sAHHKce5crGJ1jSXAQc6mykuoCT/ub/QxYE2Fvu8Ue3T8Hp/9p9hhMDODnp4QUHNgA4gY3OBBxd06iWuOnqg3Ijd4rhNGGWOQXhAeDQnppgDAhvM3zwxPlwVI/VQU6D/06RxbhIc9GOkYlJ4HSxEy+o+yKJA+L0AHBq5FG5QKv5KGN30N+A4XgEzojgv3STzjbAUe7wQpPxuM5V1HHBRpBgnms1gT6CJSp43sIkEZfCumUX6HE4USZVMwyHrb+w3dUzkyneGYYTV77U1NoqSiY9d5kv+M9lUsXQ/V4EnPT5j7/20Wwu6KTILjGcYDQyj0UmbXE9jC17cw3ACRyAxzKpIrxUTtd6hA400HB6Dkw4D9RJ0bhXGY4EHJY7upNFuJo6EI8EnPQt00hjJliwS0804aUqoDETc7U6NjRoxWSTN8FOnHE4Nd3iAy9VUV600A80ly2m+0YkcYxG0YsMJy3E9eKiEFfdOJwZd4vnZUYJhuMAHLmlTbc4lcUc52GKYDgdBJysa6OqYGOBfzUBxxpjHIdDHhA4u0qK8hlOtWpzej0XCUPSTMl1jYtOmt9z0cZSNG6C4XQ38M9RGznxAY7rpEtt80Qwi1kYaUyd2hmbABqT2sBOInWUTs1B0z71k7Ohe71NJyONe9UtHgIcKohRuqgpUZlMj7C8fB2MNI4HnHD5TBYrQKDFi/fxpyX0Qi5Vdfe7PwGUNz7+Ex96HUxCz8f6hXd5aYIZ5QnsO0/Ap17d25HGvZy8WS+XSppUAarOyoYmj7JtojxFF7PFHayBzjWLBGSc2R51n3C+VT9U+5NA1Fh5CiJbPGUELzq4Be94yYIQ7nX9exxp3MuA48oWt7yHSXIejC2/RvdSEYBDUXV+pKzJTpoAnCaCAyuUlnCkP8SI06wEz+JECjXucSzI1Nu6vlMavqEzj8olGBf2RHYdioJ1Ca9vWT4Mf7K8946OSY+LeYM8LkbWw6lRgIuXcd7Jejjq9E2V2pBO1uj4TiHEoioV/8K6RxgsWOUX8NlXNY6RiUoSxdpJhbrIlNlV2WRyCMfajwMCroYxoGvduUtTqBgUrgfGpWF8+CXze/LYmB/+dDf87bd29kHFvyJOx1lidHTiJ0LAkZ0GHGsDVgjs8wqtjEhi55G5ZFhAd2oaVztO2Rbw+8Gs4hbf4gmitofq2UsB1vyv3tNv0tn82g92wCU/niyC/qqIuYwo4oaC+sqaQ77Uh6np4+GKo++2TarRiVuEgNOaObUhEBzIYicR3rDibcxYHR6TMCOn40yZXNdCQYilLpMjX16nR3dZc7Qg89k5TMls0zVK0vCNfOZUqLCWy2OjGBHA350wDM85fLjhp26muytv2QZf+sVUDcBxRAAzC7HnlikzilimkvgAZ2/rMLjyqIcIwPEcExN9jG8E4DhPXOADjsukwBtdE7wZLCjG7IpmJy7h2KHjOIGLBDI9LaKZbdC9Xih2Y24CypwqJBwtR8hkQGmbtCzFx85YAPOHdUWhe2/ov9M7/u0x+PG2doMH4VVhSYwTPj25Vlrw5Y4FC+Fjz5y0AafiyZsSFjjBgf5ffEPnYUU9d65ERZPsxFVXKHwMDAd09TazmeWY2g1mJbZXRMKQCubj1MF5y4oh+JOR3hOL07cJRxnzzCUFvnriJgeUo2rdOBiO7KPdTnbB2PJ9JMTqEH/+xJtECz7jim/hlreMdZ2z2ElkAGGcB8lxhrnXZe1OrlTvE2+a5de6448oMKHNtQKESn2sV36//c/hZjeGWOwqaenwYEngOmyJgA+c0rvH/T7y6BS88oudroXDAC0cx4TMJe0HgJFr1W6LB2Bs2dNpwFk1fooAcXs13cPI1GaxE/rXO8aUiQn+YwFbsaOtvC2iQBaVelACQqSOw3k2s40Oqg6Wg5671yEnht0Ec4yKn/JMiyiDAwEuXzkffu+A3iq4heeF9FChshJNRBlzWGDsQXku8T5J2vfAuhXPoQFn9YZniWT4fh7gRGg0DnbCu4/bZLI8VR5vl2IG/lKkFDuhPGLUs5vshAJDjtZjtgmJxyTrQcwGC9q9Cjo+sMEbxDQJtF9cIlwfF5X6mz8chhc8uzeFYjkvn73zcfjEvcYRMU3H4HQkrSGfGZXdX5hybfgOjI28hAYceVQMeW5SOMo1nN7QbPCfudG0oMQKaRR1QMn7LKUornurqCBKN3jQwItZDgYmzIZ63U2OC0XhRVuCi7FBKCFYC/QrKtDhX+k/OrgFf3nivJ6rX2z+APz5DVvgZ7uwYJujTR7MqJtCNMtjmEvWMTNFcmzUfUxR2ZFgi/Ko5NrW33nVxKMCYP/Q6Zv0L7xd5JxdAjSyjEVljcZRF0djJ/hZDB2HAiWOEG62IfvB9wqYcCQwEe+mJrl3T3Tw6TZV2Q3ejM99koC/Pjn1SvUqv8uf63+2TsPLPrc1+1tluucb22R20XlmHXCJk0BoP+vVsG7kPTTDST9tNPgvwuwqdoYsYC5jVxoHNnyfCObBzehuwmQy76XYis1yTPZCCfa9CjoUs8GbjQYbm7rLT6iN+bwnC3jHSb0PNuk7YP2GZnEM9uIQexsBLQMIWUF/SfttMLbiOh/glMF/lMu2FHQbNruwCYBBhwc4+ZbSinNZDIFfHdDc4FwR22QdnTSZtGcy3pUyrUzQoelt9xhAGGzs2BFtExY/+TJvCv/aynbPnUVgk74Oqd9odYiRGYMr/RmiMh5bUzTnmWVMc6lYLnQZ1KIPFGVMr7lVm/9ZQPLmJlzjPLDgA4ErcTQHCOVKLp+9IR2nislUshTsrfKYTCERWoGZDq4myJWTin4QJIBqoFMyve6BjLyTMgcUW9GZDQE2Dje4y+SabWAzNd2GV92wFR7Z49dvCpwNRiGr8QwfgBd/WgNHSyreY6FYAGuW7fEwnE0fFKK1tq4HiWIJ1YPfwoJpTOyKK05IAy6XjsNwj4fMKhIkCIDIzUo9PYIrDJvgbIOO6rtbbEf+8koGIjePD2zUBtPzocrPDUF5ybCANyxvwXF/MNTzAjGG+omHJuEvbt2RfWQyBjwGUjzmmFyc0AFX+Qs/S2Ke1tCGe2Fs5Cj8nnZs9+qNLxfJ0M08dqL/2lIbxBafdWG56fsooHMH5nFMnabamMCrsaUIYbgEKUMY1rxUZiZ9yWJ0Fqn/2hRgXoYuNM94dKCxWY0GPAhA8K95+StcfEiZUi88SMBrnzcM+y/p3Tgb1+h+/I7t8C8/35t5ojhgQgEFN75GgTUKpqzloSJKi2YBmOJGWLfsTD/gjE48DQQ8RCcXVneNm0DA1UXcZlT4WaiSGYpdqHgclgeJkXvl7IfhGbOAEplfMcIwZkQlcynYE2YyePzzBdE88FBAY7KaGLBRv/4FaBWbZMUBAlYeOQwjvz/7gCZ9k7Sk6KmffQy5vhUoS2+VBiYe/QaDtE+/UWPpr4PDY0mumtPqPCr9R86E3VXjvxIgDmnGNU57qji6SBQoxeo4DBDgakahwDzLvMHg5TGZOMIwBlDFgpQZpoMOAhbkocNAZAKPf6HoC6cEGPkxOuebAhr1me76LT93hNSnm2/kAAEvOLQFRz6lNSsZDR65723eBaP/scsKmjPdznXARJlI6vA7HpjY4Mev9Nd+JYytuBm/q21Spd+u2vxVAckZsWUq5HIOJXGGNH5N+5UAACAASURBVA6faZbdI1AEq1PmEAWAoedRIJA/N/amKbBwuLtNtz1Dz/GCDgJZDDLyveRny58IsO+CMjAhXy/0SlFriUIb84cMpRjgr6xLUZ1i2e7wAwDmDQk46AkA+y8Wsx5k8Pu/94uPwX892s4+qqLfdANM1LOp0hXu5y00nuHpI+Dio+9nAM6mUQGtdTGeKnPj+RM9m9FxKJOJCjRswmSy7hWhv1AxRS7txSX2krE5BRDIvC85Bwof8nHWwKW8RoGfXBBL5glYc+oQLOnNulQEfM3+j9Jyom+U5USzHaxnd1NgQgq9gbQO6Q4vbqFFLVMBfBzwo9pIad/MEpcz5WA4eRInLzFSLdwQ82CBkrGJZJ/5tWb2tRF7YzAIyiummT8NmVXqvZQOIkGGKszlYjkSGPygo0cMs7xRqDgYBh8JepK+vOrZAl66fGj27+JZ9AYX37wVvv7wtGZOUachlEDhOWlTb+PWZjhgwo1kpgAyTzPRkzb9gHPh+qVicslWWptohp3E1C8uNyKu54vMKhKUCOAy+1Gb1ch0ZxS1yl3ryPvDAC8TcPG/MaCq59TBXIGFG3T0a5UlZIrJFPBccuowPHHfkO00i3Zzjz8qZjccEKjaZkZMLnTaJp4G9+qqmOLg3tTmES9hLxMXlDgCdGNmleY9ciej+jxWWiwNDk60CsQjT5pHzynBw/RG4YzxbNZtE0tee9xBAv7ixB5PNupxAIl9vIu/tg2+/qupgHeKE2QXbsMpXsYpzaq1IcuKFs+CjoZhAo4qN+pNcfCwAb+XydishskUNIccgXmYKeQsRGcJphbCaWMyE/O9SpD1JE9qhel97eoKw8a4yGfHjEYCOf7svS8YgiN+b3a6lWM3ei+0p9kNXQo0YzZmHpMrrwkfDMhI2Kyq3wRNrun2SXD5ijvNsXYznNXj7xSJuIYXcWxvai474Xh+utkmxIRM8DUBTl1vRAgbbnutHcGaMIhR0cXqe54LXOk1tpn1xAUAH/7T4VkVmdsLoFHnGUx2wwn2C7XhmFzcwMI6LvMkLSu6qLUfTmmQY+UGnAvGV0BbbKQDAMN1baq6vpVJxg/M4wT4edswmFAMy/HF5TiBRDOtjBMeiotC3ig8mVhM1tgNaiT//PNlQ3DysoFYXAdAYq7N2M3/ftyoc5PzGMxkOJHDZhsOUHDa8Dxhrho4etEtnkm1ZvN82NV+zHkwXs1TIqNMJk8SpuRW0jSiTCZ+YB6dDmGCoI/lYGAKtvOYVlR0sY/pUPoMFsUlr8FhA3IhXH7avIFYHIMYNdtidqNYSYQ55aoAyD5n3QY3lzajPV/wLCupJbVXwboVY9Qw+V0SqzZ/X0ByAs89Hnd6AjYpmjKZaonHUSyHcH/7tBeGMEy5yuNBRwdMzGxMF7ic+JOe2oI3vXAgFtfEEPblGx7YA++4Y0fwKJtQGQml65gsg+8Op/Qbt8kVTtgs2VYCx8DYyMZ4wFm9+cMiSS6gdJyqJhP+hc1jVXStgwdutmbEeZ6q+ovm/ibEasWAEOgGBGTbtCqTCrRgPV9ulMlWyn8jwUZ9Vkw/ev70k/efOAzPPGQgFrMRo0bDHbvb8Oef2waPTLbzJE2z1o2r9o2DuXTTnOKYdwVL2gLrRg5wDZOf4Zy/4ThoDd/dSR3HBIrcJCFq2zDd0f6YnC6bTAFwskFHZ4nqe5cwrOKApCmHWU0o9ubQxQI+eFrv1/mtscd76tJPfWs7fOZn6Yma7nwmzFzU37KmsV3fOKoNSp3wm3J09rffoyXd4eJ6GFv25mqAk15lJHLKhS3ZSWkOkRUA3QF1VYLuOKYXy8vkEGhDz+QCCJ+b3B1zEycMu5mOYnsU6Phib940MgQvGRmYU91ApYmH9sBf3aZMqRh2E/JOVfU8YXDjVglUz22aboXJ1YZz4LKRG6oDzujmTwiRvL2qqdOUycTpp1MmkylEY9DlCMNNgY5b09FBx8d2MAP6+Cvmw76LBpHFnQac1JR62xe3wf/LTmOowW44sTeRbTimUpTplsChMDbyixqAs+lEIVp3cnScKqkQcqvgDHPTrKLvbTAETwZ5yUwcJ0PQ97PNryrtXOCkNr6dpoDB3QYPX0ImbWJhkJGgdcrTBLzhBfM7vdcG/QPA5/7zcfjY5r0Z2JgmkO0K90cNh1iJ0+ypeFIpVejMPiSvSDglKvyZC4D382YcHeM0qyJykMLiMa+sKAkmQb0noOVwBV+fRkN6rRQT0bO4Y0FHz+MqAYWIMsaAhYHnopPnwdMPHsTedBoRf/jTSXjXt3fmQONgN/66NznE+OJzOBnmTZhl+Tvo2ewGAGpHwlBjywOcUX+ag66b6JuKireh0w3ik0K5jMPpZfIF2zkYE75niL2YyZ1UdLECTIOdFF+4g/1sFzgXeA5bLGDtn84fRBZ3GG0e/PVe+LObHi9LQZSb0+l14rObEFPi5E41b07ZBbcqMhz6zHG8WXIROf9/cpP4RV7liaobk0OyHKYwzE2yDAvDulub1H0CIGIeyWuOZzZ5jIRMeZ1iNIotpp/NhiNvO4wFHe8+PdTuPTdvz3Ubo1YNZhtNsxuDcRTMSrESTu6UYjJ0MKLp0s/e0JPOgAebx3Bioo4bNavCbCmG5ZhmHBVsFxNzUwKdCSQxaQoOANHiZyomZLqA55/OnA/7LBzE3nQKdVKR+INf2w53bZFV/OwUgDraTZgp+YP0TFDieLkUCDkCCxN3OkM84KRXrJr4NwFwdlVvFTswj2nmOBlHXWEYMzTEKKzjWhzASkcMB1zgDYGOzwWe00+AM54xBK99/kAs7hTYTE0n8NE7Hoev/KIoO4GF4mKnu4qbh8ykfNPzvFwlC2EGDVY9BaI0ywLucDnePIaTth4df40Q4gshk8lrVhn1WOyzpCIC81z5VR6QMNmL5E+ZOViMRP630lPUd2a1wXwItbITTBE5v05lN2HmJVkT6QI3xOz8AWQ/+H/Vh3iC078//Mfz4RkDsbhTeAOf/d4OuO7ePSiSmEhwNE2sKoIyE0hCYrHJXNS/jdrFfi/XFlgoDqayw82B5gMOw6wyxWOpHLhLj8otb2xApv5Sh+VYm57BrIImmAYANkBZwXtB0OF7o+RYKMAqxhYB6eFLBKx7xaBgcSfQJmU2X1q/A/5hYm/WPc6FwswFm1K4XQy7MUHCPDe87KsiKEnnvTyiJphflYhPwtiyd3DGlQ84aW/nj39dtMTpHC8Tp43GlgxmEg0mTFNIey4PG/I9mwQrubk77o1CjKsEFCMnymRJFPC87/nz4Lg/GEQWczZGTJsUbK6/83G44aeoeh9TKPYF1TkF5QpA4o/P4aQy5DBmFQJL3eTtqefDZcf8gDNmcYAzOv4aEOILodwqxR78v/LSXDGZUCi/yufVUiCgmyyhtIgY9hLUc0ogs2OJ8rFxu8Dx81OgYZpIOAtc+w79I/3zCfMEXPOKBbB4IBZz9gW7zeTeBK64bTvc+quiEHpxJRUc5xOKFWuxN3b+HS8rvC67IdmZN/aGLpbuGsA4wEnNqt3tB/ND8vLtoECD0l/sNhaYeJhJiOVYGx/1pUCvfsRwCQLe+jW2niPfXulats7i9UZR+gwFVoipKed8PuVyDM96xhCcfcIC9kYaNAyPwPadbfjotx73g02xg4NCMcFa8OYPAwkzsDA7USF/N8lWqgUWFp4wR+3iZgAn7WV00/lCtMaqpzHQwjDpsmYKwzow6SDn2vS0GWTXuck3LcVUeCIydX8FYPkL1gUd2R/uywSej56+EH7viQNXeBhGeC1SsFn79e2wfkvb2MAofcEAG2zWZF+5Io8dZSrya9wxNWFQYrrLDXPQncqQ7ILp9mFwxdG/4Y2aWuvc9gDv23ggDLUeZFUCdBa18kQVo1/rLIDQ5T1iuL/lL7w0YDAbiwGSWhpNQBiOzQIvwYUwzTDwqHYCXnCggPeduog/x4OW3hFIS4R+6Fs74ee7jHIRaKMqcMhhQLEJJShjllEKtSXT4QnP5hEwXlCygER/Nr5YLMFS3Ajrlp0Zs1ziTCrZsyfVwWsyYfCwCm85WAST5WAPmVfwRf1RSZIlOBnMo5OgI8FPB5N8sDFYUi5wTuzN2hMXwIpDB2JxzMag2qbi8Nf+zy64euNk7vZGpT4xY4kCGw8L8kUox3imJKy4vE74eaNSIhJYCWMjt8eMazXAuWB8hWiLjc6YHIuZ5FtHZxj+3Cm52dgsxxdL44uPMWJutHwnwlWunkvFwFAsxRKGS7Cli2yRoFPcTAMd7TNMUekzp56yEOCjZ+0zyJuK2RVE20e2TMMn79wJ3/5N7omiwKZkLB4QcQGTlIQlKHAArJPsxmRKGsBlOlDyMKxb/pTYYa0GOOldRie+LQScHO3+NlhOyHsU9AiVoKD0EKUHMVgTodFIeCTFXqznlJtf135KUDIFXgQ6qg1mMuG4G8V6lCCMPzMZz18fMwwvXTEQi2M3Bm6//v5JOP/OXZlhhMGmBBgymtjOQ5IggoHJjPD19xkwzQLCc15qQoJlOCDRH30sLoV1yy6IHdfqgLN648tFMnQzn+WEN78JXpjlODPS0S++zYYkdBiRxGbpiBhh2OEJK0VaDyvKWQwGGIfwjGwnr6BssB0KeD5z5kLYf8mgDEXsxkjbP7p9Gj7zXzvhpl/kLm8cM6NAQ+k4ihUUbQk9BoONK4mTHZvji/WpUYhLvQcBcPKegUJbrvGuDjhpj2X5UX1jZ6aTuamx+zuS5VBh/k7PEaG9kB4wDaj0EzolMJhic7mhmaBTAmYgcA8zKQwarngd1QZlgaP3lt+fcfgQnHviQCyOBZs0+fJbE7vhinv2lKYTKfxGiMQ0iOgBd5jdhIusG7E5DHZjAgkGyCjtBuLFYjkH9QDHcTonZiYhkykmLsclDGOA4MbmVA30c4KI6Y3yiM46cCmwlu+hgU6Q7ejXY2H56lMWwh8cMhCLuYCTBvHd/X8n4aM/nITf7MXMxfNLX3RuxrRUFpQ9rMUnFDtLXgQ8U5KL6doRcr1TTKmVHA2XLN/EHVfcrh7gXLh+Kexe/EjuIm+S5dh9yU9YbnJLQEb9IWbji2g2QSEkDOsshdZ0ckBBpiVCljLaGj27j+3g56MYz7P3FXDlWYurrIk5ec0PfzYJN/xoEsa3FUe4FB4oitnkzABpIAU1MTUeLOqW7MVgIjowqTgZzD58gXmqnaMEBvak4Rgej8llJnzq5mR1doPXc/VFtnriSpHAe0JZ5JgZ+IL8uO18wnAQHDzueQsUHG3xc5Z/m2Cm/RsF+DnFZAWMtAvcFpVdwPPBFy6A5z9zXvV5nQNXpqbT+EN74Svjk/CDsnZN/uKuuJgg2MToNlqAX5yJ5AIwkwX5ylSUfTjSJjDolSZXDXbTDODIM8jZhbfUptLYihWXU6Ed2uBc75ZP7MXAKJ+G0lsoF7jpytbF4rA3yrw3niz5buYEymfbf56AT521zyBvygGaD/5mCtb/bA9cu3kPApc8ijffhDpbUAAUYDYssHHrNhhEuCZSJeF5hthNM4CT9jI68RUh4MxusxySZWjaieEqD4i9rhSJ7D4OjQYzLQ0UTGZkeajcoKP6ccfslHCseb3yDfPWkXnwyucNylBgvMnYzC+m4Kvjk/DDLB1BpSDIX3INbEqTSrIdF9jIqzBgFZ/hPjwmmivATzEQ9zP43Oph4Zky4Tzu8prspjnAYaQ71BV89ZiYiJibGD3H09YHOhTwlYOL44QQA9PBSfKhfIuYepD9mZ6TYjKefzlrMTxp6SBvKmUy/++RvbDpV9PwtV9O5+zFBJpiV2MTSuoqYWZTDWxidRsFPO48LTMwTy9HQT8nL5JZglI97UaCfz3RGP+ErJq4SgC8mx+XU/5GW2dph5Mxc0NIM1MYmeIUMLjMOieINOGNYmSBS4BTwOR3gcvRPPngFoyePjfF4l/+dgp+/psp2PzwNHzpgalydVLibQkmBvMwwQZvStc1eLOTsTpFtJ3NOCJ0G9IFX10otp4zJCg3wG6aYzhpT6nHanLxfXnpinCQHwYmiz1wY2li8p2IgDxbo3GXsigBSGMpDm+UCX7UNR4TS2M/6B+mLqRnh+es57SnDsF5p/Qn4KS5TI881obde9rw8JY27NyTwAO/a8Ovd0zD9/4nL1juYicSffCmVwzGEUFsbnKCDelg04TGoz+LM+AQgVhVobhkTsEYnriaN5iHmH83x3DSnkfH3yWE+IiP5Tgjhj2eI3aVPrMecaSeo0CFNtmqgA59DSoewWU7EcDz9pF5cMZx/Rfw9x8/mYSL7ioSJwt0kQBCAU22oTgmFAIS5dUxIoiZYIM3sSbomoKyI96mvF7Tf7gueHf5iXwsigx0bqyPbCemXwGXHv01H5Bwv2sWcLK6x8kGIeBIZ5qCEYcSysUqN6zBmkLg4IouDplheb86c/EJwxrrYIAHN14nZ326tlNijiYUG/pP8V0/g87au3YXbmud0SjGooBG+4wADR8jwi5lH3iYwObKV1Jg1FA6hM+tXphINoAZQrEZU4RNzOzv5tgN+s3k4hOjHZFjlW+enPJzI4G57aiIYZe5RsfnSIjJ3622N6oq6BSzUYJbMdQSdMzJksClPrfB6R3L58HL/nBh32WKf+8nu2Ht9zHTUV4cH6tR4EObUL5rQ65ym9nkn5h1cCiNxwy0awKYnN6rGWQ3nQGctNdVm78vIDnBl4zJFYZdJpgFDhX0HMWeGgYdKlq40HXKe6LRd8Xs4AniA48OQa97xhC86UX9V54iBZ01JugY5lMOIDlya16o4oMye1pCAzJj5LXmdZRm0xTYeL1XPp2FmcTJFYrLdgncCmMjpzNoBrtJsyaVvG0gGDCYUoA9QRaQKHDguMp1ULFZlvreNk0oc0kXml1xMv7UBg1Iin+oiXBfm4MsbqnmGTMe/ZdEQAo65/Qp6FyYgg4FNAhUFNz4RWXbhFIshQQvBGZ62Yp4ZqMDnK49WSaaVvgrnA5RAqKRjkGXnyiE7yTZBSCOgLGRX7DRhNGwM4CT3njV5q8KSM7gmDcKOKhyDapQFwaHGA+Trec0442yKgZq4BEPOpiblBNDZIGbwKMDjIrjkfOf9vWqw4bh3BP3gQXzOjfljPXWeJPvbd4Nf//93WW/cnNarIYI5Ms3uREAaACVDiSIKZn91cm9YkUoUy7wam51E8DIGJ6kPQpjKy5resI6t/q0YEDESrA3KiAglwDjKXWRbz69FGdIGFY6id8bRfVt5jj5QUd5oxAxQYF9BqtysR3rcyPwz8F6SiAqXvhPDm7Be05Z0peg84EUdALmkwIhvThW+TlKbcCfacynOPXAx4Z4ZhcK4tOYUicE5QpC8cKh4zknacYCUucAJ30SIrETb2K+MGwzEmuje8wwb8wP2syKCbnMK/05MLNwlxRVYEslZFImEjYV8wkNB/2FWI9cGC9NQefU/gSd9/9XynQQY6nDaiz9x8eG/LlXErwwsyg/84GNR7fxFuliuuBNQbsMcow42K63AEcLBnSwnBj2UkHPKVlSsYtt84rvAqcYlxd0NGZim1jBayMYD+6LAh/8fQo6f/OSxbDvPv2V/vDNjTthzd2TBtPR85Awy7FZTO96r7omKEcc2xsLNuYarXJ9+JrRTSeCaN2ZucTJCGS7RozLu8Wp/OcDBS8r4iRXInOQdMcTsTMmWym5CuE+l0xMAyI5wpqWgxiPBUq6uVVejm06AHje/i34+9P6D3S+sn4HXLXRyAJHwTYuU8gGH12vwUClilXFMpu8l1hXeXaVJxAQi796W9qUwuxKj2ROHoYFO46AtcdvC2/sai06a1LJZyLyrPJfYZ/XqDoj8oNO57xRpgdLZzD5YJieLwpcQp4o00/lEphdvyiy/34GnSsl6DhEYQUgYdAoN2jxh99VbpxsSVwTyr3yRiiTBdv9OVUYYLylUpPktTC2/IvVoIR3VXcAhxOBzDateMGDFOhQGo3OQGjPEsWMKPBQYnQBLmahLYuN8MwsEziwCzwGfCgASkHn/Jcuhic/ob8KradM54oNRHAg8ia5WQ3Te0XF+XTSe8WIt1HgqB/SR4GYxm46EHNDQVB3ACe9cxqbMw3r5YmdJSBgrxUbdChXuWJEmD2VnxLJmyYDMdkHBpCmQEc+mwVYFhjZFQJJ4EEfYvCxJtZwr+PFcPgiAZe/bElfgs7lEnQcHizJNjTGo7V1Bw+6SkLYQEaZUe5YG52RuF3xVaKJs77N9IUOxdzMLOCkd1+1aVRAa53ba1RXz2kKdBzeKEcWuIvt4E1f9wSGbPJQtDKP9eAnM6Zf06MADlsk4Ip+BJ27dsBlJdNRpkdcDlUOAaX+I/8ofGLuEha06zvf9Oi7AmHkHTgaTx3dxmJBHYq5mXnASZ+gOECPExCosyA7KLBTuVFUnE65dY0UBSdjIXOqbACo5AL3AA9+TjnhOtvRNSyT6aw9dTEcdmB/nfTw5bseV6BDusp13cXFUCQ7UGzIHc/jBg8X2ChQq6Lx6OJvPqsKuGyGpUCyfQ90KOamVwDnaSBggwDY35drFaoQWIIRMsNIgCqZgWI/wfrCjrIWmFVUjbvJAcre9OYzcWNvfKxHY0EIdWw7Wn1y4HwBV562GA47qP9AZ909k+UeUGyFjjRWoFLNVa5veNo131Q6hMVYZDSSo6gWiuHZAgkc03T6AgU09I+fr2WT341OvFEIuMHcfK7qe4oF0LlLIabjE4ZNz5L+b7cXTTEb9Exoh/v0IHytBgqEa94HPPa1PijJJxB7tMwpld8p0OmvUx9SpnNpATrSpNHZCs61cptQcsPS17q8XmHvVSjWpkp9HWwGWiyowTo3XHjonmhsPlEg10qCkeb5MTUUh+CsmI5iEh3zRnFNLI1pMQRhQ2MxgccCGwI9jGgdHXBQe0pgTkHnopP3gZFD53PX0qxo9+W7tsMlP86ZjhmTY7EaKtqYUQUw68cUqQPeKx1sIisHEs+kaURUNLOAq+DSkfd2e9JmDnDSXKvh1oa0JGlVPUcyBUpzUUylC6DjCfhTwFAxC9wyhQxzzAImg8kUKwrH9riYDbX4rlu5uP9A5/vb4cOS6RQoY8bWNCEqZxoKB6C07O/6gnKwvk4C34FFYmUncqVCADZzgJM+2arxUwDE7elDcPQcxVzyv7D5Uw104rxR1D0w0zBd5xIQdTZSEXhQJ2rSqoGPpDoUA6IWzKf6FHQu/rGM0zF0HMMtHjKhSmZksBiO94piNrK/UO5VqJiXZFpWNPFU+xi44ujfhMChE9/PLOCkb7R684dFklyQb07ERoLmkgt0wrlRunnlBx0TUPBmt/vRXdd4cHVRmE7GtNsbgIKOkJGLwXoe4wvXBHsnvhx71WrdHy2EE5f1V53kL39/O3zox6pcqR2TUzUAsNe8V8hES9ovhrEV3+sEmHD6nHnAyZjOxL8JgLMp06pkNWZQoIcVsfOcOuiNkmzHZkDY5KkOPGW/lsml7qhNrsP0ijGvxl60qC9B56IfIdApB6SGq9xZYyc2LifnOpy4HJ6g3F4F61aMcYChU216A3DS1Ifd8N20LGnToKO51w2QMk0eytul2tjeKJeJpYMMwVKszR8GHswAdRMNARgJPg4AIjrhLIYUdF7ch0xnzY9QES9vBUFkflkxPT6QquG9IqKDKbPLDEzUNaRmDrKrC0ScNVb3Hrzr01IWu/fdIERyeBTomLWCtc0cnxtlgg5mEhIWKO2o1JSYWeAm2EnYKCfEUekPA6BtVmH2hH3gZga5Pu3OReD44vxjFsBZx/fX2Vdf+v52WPOjXXRpC/OwPK73qkAFdwF2O5tbidXuCn/RYJOIB2Dh9mM6mQXO2+R0JQPutc23W73hWZAMrzeDAuUmoxiF0lFo/ccFBE3lRllBhFLKZkYa1wEeDvhgwOSZT/7fIPltBjon9Bno/Nc2uLBgOlKwVUYNDt7LRzIUPMjJKjdd89Q1qg2dkFkCEOWKT/OkkumT4LJjftD8ho3vsXcYjnz2tH4OiNvyJM98u1CMQqutU+wqzEBIIPAU8LI3vq8msfFc5f0V51BAqCZFvQeWetH3lklkmGMe1kOBTwk2xLrATMq3bHwLJAWdV52wJH7V9fAV/3rnVrh4Y17EywUYCmz8JpQOShikXMzG9pZRYJP1S5w7ZT5XDpqdLzkRM529Bzjp049OvBEE3JA+XJVSonKjVQIdAzxiTSy8yb3FtnwnMJBajK7zmGBCTSQWrhUU+pdHrHk12megMzXdhn/65jb4yH1GcKDhKidd3sWOx3lUdjxPGGysmshkYF9+M6+gLJJ3waXLPxoDCJ1u25uAk7615i5XjMJyL5umiyPylzLHyk3LjRYmzSSDhVjpCYop6WBkMht3Pzq42KyHYjI0APHMpdhFt+rY/mI6Oehshavv21NGDOtshc6/8ptQFV3lVcEmaV8IYysuip3LTrfvXcDJQGfiX0UCr882FDKveKCjQEpdH8qN0jczGTvDFIVtk6o68ODnrwI+FCDhhUUxodiFt7rfQGeqDf/0ra1w1b17UAqEckvZ2os/eNB9HA3PeyUBL1SWImsnxCVw6bL3x85hN9r3NuAQ7nK5eYKg02EXOMVWfLE3WLWRYMRhPCZY4Gu94IO+dE1y1cnH5ZFxsNwFKei8YN9urNuu3GNqqg3/mIFOethefksNaIoPOCaUeS0FHKoNrQ25wQYHKIpPw7plb+nKAFW4SdU1V+FWFS8h3OVO0Cm+yLSf4naVvFEVTCwNPGLKTxQPiicCC7o4/cCcLDf4qKfRrjE64E4+t116174EnW8+BlfcmxdmL0Ghqqs8eJ0rq5whKCfiehhb9uaKO60rl8Wspa48EHmT0YmnAYjv4hgdGnSIescBpuOLn/HXvFH30sBGvgABWlk7C2DooD/cZ9ZlZNEt63pVmAL9hUbbsRKqLJD39yPT+eZjcHkKOiXTpoL2cwAADVhJREFUqWpC5ZBFBen5cqM0hqQFHBau8rQm8SLxyplIyIwBhirrKab/5tpmZ1zt810BrWPJ41QCaQp+puM74C7fuiVjQjtZKj62XmMzLBMAYoCHvhYbafYwm+zHBiCEjGHciZ7HDzynD82rbz4Gl/0kZTq+UqWdc5U7vVezBGzcazB6eXXpgpqgY0Yw24zDEXsTNLEQKFGiMsMFbmk8FrDlY2yaSLrMTbQppoYCIDxr/F8eqqX8vdbXwd8/Z2H/aTrffAzGflK4zDmuckY8Dyer3KqvU1CeBLpbIrTuTuevs7p3aur6TNNZcpMQcLICDH4lQBc7UpuZH/BnA1bAzELmXZjx6MwKBTCXI2lNXgl2+jehSQ6BUZ2p+2A/gs43HoN1EnSywamR6Omsl8PxXrXvgQU7T+qFlAXuGgmtRW4/3W2Xn3OVgs5p1UFH39CcIEF8LwwYeMOaZpbVTjIOdBGeBLsvObRurUe1MKbB0H3MSao6+fg6mtvod7rwD/uQ6XzjMbj0J2k9HZVuIN9apkVo3itHFcCCqBSwJUuc9ifYmD+y3QWNunerCzqEmGwzljDb0QDFJQgbn2sA4wAe/Cz6RBlls6x7qoElAcXBgnzTEQNMLgBKQefV/eYy/8YWuGSzOmxPAU3BeopBNbWXUEEvn6BcANS3YcHjZ8wmZuP8UayLA12/ftXmfwZI3pxuiqALnNr4QX3GBp0SAGI9UQQ4yM1sBt+5WI8JPtavhgeAgr8w1mF5MVBjzryCHrkR16Sg88KlXV8inbphFqfzjS3wYQk6QZe3I9q4ZD8c75X4NCyEt/e6N8o15nVWVKfmMb5fNuj4qvvl21EHACzSRrIdtLvVINPRxiYQVAMf1Ut5PzS7oYkOfR8/KfYVKfCs7UfQuWMLfGhzKiT7XOUNeK96NF0hZm10Y53FPE/1tqs3fxiS5AJpoaRb2wUe3EJbtonlF4XJmsY1gKeJ2BuXWYUHupuLIN2SF/Ul6DwKF2WgY57YUJhXVKSykfFtXlvqQ/lRvG+DsZHPVt8gvXFlN9da5994dNP5IFpjGHQwe6DSIbTvi39Qhbbkw+cDxjOzqL51NuNmPDGsR3s2FquRb0FMCXNFpM04gnG+A+37XPTcPjSv7ngU1k6YR9DoorKuz7hMKM302gKQvA7WLb+j8xuo83dgLq/OP0hjd8hPgvh8WsRLlhf1mUok20HCqi3w8swsfG828JBsKB8Z+zn0qaMmUgKvObbuSa/yjerdD0D2tx967qK+03Q+VYJODROqAOkkrdQ31H4lXLJ8U2P7Y4Y76j/ASQc0TYUQ7ZuyqOSgmOyOMvbF7OggotTW0oxDtAPzCQrASNbjAB9rwirE3riASGdxzaxMLwglABenoPNH/SUkp6CzZjyvkUxlleMxoQ7My69r3wNTycqZOs6lmdm3e+lPwEnfM8s0T64GgHfUMrEcwXrO1IRiRC3gYQT9mUwGm272dzbzkVTIZTBxJltrw7nAtTLRrgqZXh/uR9C5/VG4cKI4DSLWe9VOboFFO86ejW7vEFDVWVKhvnvj+7R6ICTXpiVLq5hY5UavYGZZplAxIlQZC3wfmmnoek88ALmucABXB2bPBzyXpJrOHz2hA3edmS5Tl/mnbn8UPjiegk7Ae1VQoWJ8PgHrRv56Zp6683ftf8BJx/CC8RUwLT4vBByZbbuC8pQsxGAlsScw4PowakDDLvA67u/yPmgGnTqOax1VCAKsvySL7Uegz6XPS82rfgOd38EHCvMqwxXNW6XpPFsggfP6wRPlWyNzA3DSEchzsK4HAWfyTCyeCxzzhqrA4xKYS6ZjzBIlF3MBiGZPTBgxwE3DjJDdZNzC1Xxdn4LO+zeZmo7mvfo2TE2f3W96DbWq5g7gyLdfPf5OSMQ1CnRyyDDZjgKSkAsctyzME5J1hBkPZl8uYMCg5jK9NOOJmOHYSee2j8Sc7PGpa8b6EXRu+x1ckDEdxfCSLL4mWQNjKy5jQv6sb8ZdS7P+RbUXOH/DcdAaukmAOMTc5C4zS7rPNUaDdjwWat3ghcDNYQrhCfGZXDz2o0OSNdmO2W9yUThByPjCSISAy45Lzav9+mbdZZrObb+F1SXTad8Dov06uPSY/9s3L8l4kSbXFuN2PdQkq62z79UyD4sSlBUYoYJa6Ixzi2EYmogNHvYJmJJpaayk6BibSRjQnOyH6sSsoaNNAVacGHPjWy0MemOCinlHs4vL+xR0Vo1PXgILYO1szYdirBRnk7kLOHJI0kDBRHxECsq82BuPmVVseorxYADTscF/5pSFI4TY65pIDGjUKqi2APBVDKQxbhyKzcHfp6Dzmhf1D9NJh6Ldbq/ab7/9xups3Nl6bbX1Nlvf1vXcaczOJFxY5mIxY2+og+40cGAwHputRIIPqpOsx0D7J4kSmbs2ragmr++eEniu6E/QubHdbp97wAEHbO3auPfAjQaAgychO9t83mcEJCdkH1eIvdHMKIQmLsbjZj35A5gMhZow7TOtxAQ9vVUmndR/IoL7XGvdzXaK2JWiwZXP36fvmE6SJPcKIc5YunTp/T2ABV15hCprrysPNqM3yT1Za7J8rADbIU0j1xngAVPI9EDpk2MzH8vUKgaNnNTIWjdNLIywsWWoOsQF+KOr+hB0AGALAJy7dOnSm2d0zXfp5k2sqy49apdv876NB0KrdT20xOmSZVAsJSb2hmYitHAbAh/TdLNNM3u8nJNtgRG+tsoSoaEm+9SBQj5wwt9dfdw+8JoT+0vTSYel1WpdumTJkgu6vMq7frsqq6nrDzmjN1y98eWQtK6VLnRnFjgaSQwh2CQizS3DdKNYS93Ym9Akh75vcvxDrMf6XovMzRHrIynTOTEjn33131wAnW6utdm7OLIo5X3OA9E6T5pZvuhgbmKnxUqY3qdoAPLQn5lYACToBOJyTHJ0TX+BzgMA8O65YFbNxHqbc8CDWQv2bJFsBoEDNuF8JlMYgGwTiRSBOz0zDFDBj0ABEz7L/KPHz3qmsyVJkrVLly5Nk4vzyl19/t8AcKpMcEXGYwKMD3xMvUddS2s+JSAFZjQ84dU9WyGPk2uog2aWE6gAPjYLQafdbu9qtVrXTk1NrR24xatswLl6TQ3g0cHHX2rUYkIO13cITCgm5Jq6UF+cKQ8BicZmAo31rwuXeWFn/cMJi2eNptNut29MkuTd+++//0OcMey3Nk2sq34bk/j3iQSeDEBIkTmHFpfQ7DSrArE3oUmOAaL4wdGvwCYR1ZfHv5U7uBxs5+O9Dzp3pUDzhCc84e66Yzibrw+txdn8bt1/dgbwWGzFAz7akXfFTFET5tJj9M+rm0pNDyTH9CrbeMwp+VyyySeOXwyveXHPea/mjCDMWScDwOGMUmybHHjeBjD0NhDJ4eUg1wr8Q0U0nOxIPahzYi3g6vYSMIL9CNZiAok5/BoGlW7z/I9PpkznxQfEzlgn2s85QZgziN1ebZxn6q82aSkMMe9tAO3XZWVOkV2EvVDmRIQ9T/zIYzygrAl3NPJd62QtDCEn1IQGGB2pcJtrZxB05rIgzNm4rPXH6WjQJjAC+VnorwMh3gaQnGB6oXzgk5lhxEyZJpPZp/lEsZMd2x7fLwQiXtZCUBwkE2ffhlzm172g+0xnrgvCHAyos6Y4/Q/aUCOQJonCvDdB0j4XQBziM7kysCH6CAOQolIujSea+dScTX7An90yBDAERsGnugc6A0GYuTYGgMMcqI41S1MnYOi1kMDrKYaCmQ+yxrTHCXmZ3JOsydL0K1ZZISwXt88fRT8K5eGioAkLzv/4wpTpPLFT0zcQhCNHtspyirzFoDlrBNJk0aGhlSBgJUD2f/tzAMg3gdWBiPPE6Z1jDSfVb+hKn/vcjMmhPFqFCfYwJK2b7n/rgUsOedKCN3DeitlmIAgzB8psNgCcigPX8cuyo22SlQCtFIROpswi9Zmp5oSfLgRG4R7qtwjF5KR3cBlXZkwOAp17oQW3gkhuwEfkbt269UIhxJo6Tz0QhOuMXn7tAHDqj2Hne8gqEk6thGToVEjgZBBwpEuXcYGQyxyLeXgfSHHAw3WvUFyOPyYneRjacA+I5E5otW/yFSXftm3bp9PaMzHvLNsOBOEqo2ZfMwCcZsaxu73kZ6evhKR1KoA4Vov1cXDYeA5U79coZDJRxpULWGTbgtV8B1riLmi3NwKI9TA28ouYwa8AOgNBOGaAA20HgNPgYM5YV5nLffp4EHAEQOsISOAYEHBMqgN5aSyaff9CiFkmIb5SjJKjmf5x+x5IhtaDmN4ALbEem0hVxzpJkgXbt2+/EQBOC/QxEISrDrLnupiV1IHbD7rs6AhkQrQ4AgBOAjF0KEB61HFRr3mG7WlNcwF4BIR4AJLph0DAI5DAfbBoaH2njlEJgM5AEO7gohwATgcHt2e7zlMvUgaURhQuhCQ5vnzWRDwfZEQ0YkkV3yWt13tPdm3SvrO433pIkt2wcOcGWHv8tor91r7s0UcffcLQ0NB3hBDHpp0NBOHaQ8rqYAA4rGEaNOrHEZCgkyTJg3O5ZEQ35/b/A/zPQwb95m6kAAAAAElFTkSuQmCC;" parent="1" vertex="1">
          <mxGeometry x="567" y="459.15000000000003" width="69" height="67.77" as="geometry" />
        </mxCell>
        <mxCell id="OIpXf6CerVtjoZWrU3Lm-22" value="" style="endArrow=classic;startArrow=none;html=1;strokeColor=#82b366;strokeWidth=2;entryX=1;entryY=0.5;entryDx=0;entryDy=0;exitX=0.5;exitY=1;exitDx=0;exitDy=0;fillColor=#d5e8d4;startFill=0;" parent="1" source="OIpXf6CerVtjoZWrU3Lm-53" target="OIpXf6CerVtjoZWrU3Lm-21" edge="1">
          <mxGeometry width="50" height="50" relative="1" as="geometry">
            <mxPoint x="837" y="282.67607999999996" as="sourcePoint" />
            <mxPoint x="177" y="280" as="targetPoint" />
            <Array as="points" />
          </mxGeometry>
        </mxCell>
        <mxCell id="OIpXf6CerVtjoZWrU3Lm-23" value="" style="endArrow=none;startArrow=classic;html=1;strokeColor=#82b366;strokeWidth=2;entryX=0;entryY=0.5;entryDx=0;entryDy=0;exitX=1;exitY=1;exitDx=0;exitDy=0;fillColor=#d5e8d4;startFill=1;endFill=0;" parent="1" source="lP3EEBkdG0QTr18v6ItJ-19" target="OIpXf6CerVtjoZWrU3Lm-21" edge="1">
          <mxGeometry width="50" height="50" relative="1" as="geometry">
            <mxPoint x="275" y="390" as="sourcePoint" />
            <mxPoint x="570" y="434.49607999999995" as="targetPoint" />
            <Array as="points">
              <mxPoint x="395" y="375" />
            </Array>
          </mxGeometry>
        </mxCell>
        <mxCell id="OIpXf6CerVtjoZWrU3Lm-25" value="SignalR" style="text;html=1;strokeColor=none;fillColor=none;align=center;verticalAlign=middle;whiteSpace=wrap;rounded=0;glass=0;dashed=1;sketch=1;fontSize=12;fontStyle=1" parent="1" vertex="1">
          <mxGeometry x="568.75" y="518.57" width="65.5" height="33.17" as="geometry" />
        </mxCell>
        <mxCell id="OIpXf6CerVtjoZWrU3Lm-26" value="ComosDB" style="text;html=1;strokeColor=none;fillColor=none;align=center;verticalAlign=middle;whiteSpace=wrap;rounded=0;glass=0;dashed=1;sketch=1;fontSize=12;fontStyle=1" parent="1" vertex="1">
          <mxGeometry x="1060" y="200" width="85" height="25" as="geometry" />
        </mxCell>
        <mxCell id="OIpXf6CerVtjoZWrU3Lm-27" value="Flower Balance MicroServices" style="text;html=1;strokeColor=none;fillColor=none;align=center;verticalAlign=middle;whiteSpace=wrap;rounded=0;glass=0;dashed=1;sketch=1;fontSize=12;fontStyle=1" parent="1" vertex="1">
          <mxGeometry x="61.75" y="703.75" width="235" height="25" as="geometry" />
        </mxCell>
        <mxCell id="OIpXf6CerVtjoZWrU3Lm-28" value="Save" style="text;html=1;strokeColor=none;fillColor=none;align=center;verticalAlign=middle;whiteSpace=wrap;rounded=0;glass=0;dashed=1;sketch=1;fontSize=12;fontStyle=1" parent="1" vertex="1">
          <mxGeometry x="61.74999999999999" y="655.75" width="44.25" height="33.17" as="geometry" />
        </mxCell>
        <mxCell id="OIpXf6CerVtjoZWrU3Lm-29" value="Confirm" style="text;html=1;strokeColor=none;fillColor=none;align=center;verticalAlign=middle;whiteSpace=wrap;rounded=0;glass=0;dashed=1;sketch=1;fontSize=12;fontStyle=1" parent="1" vertex="1">
          <mxGeometry x="119.86000000000001" y="655.75" width="53.95" height="33.17" as="geometry" />
        </mxCell>
        <mxCell id="OIpXf6CerVtjoZWrU3Lm-30" value="Cancel" style="text;html=1;strokeColor=none;fillColor=none;align=center;verticalAlign=middle;whiteSpace=wrap;rounded=0;glass=0;dashed=1;sketch=1;fontSize=12;fontStyle=1" parent="1" vertex="1">
          <mxGeometry x="183.81000000000006" y="655.73" width="50" height="33.17" as="geometry" />
        </mxCell>
        <mxCell id="OIpXf6CerVtjoZWrU3Lm-31" value="Search" style="text;html=1;strokeColor=none;fillColor=none;align=center;verticalAlign=middle;whiteSpace=wrap;rounded=0;glass=0;dashed=1;sketch=1;fontSize=12;fontStyle=1" parent="1" vertex="1">
          <mxGeometry x="239.25" y="655" width="53.2" height="33.17" as="geometry" />
        </mxCell>
        <mxCell id="OIpXf6CerVtjoZWrU3Lm-33" value="" style="shape=image;verticalLabelPosition=bottom;labelBackgroundColor=#ffffff;verticalAlign=top;aspect=fixed;imageAspect=0;image=data:image/svg+xml,PHN2ZyB4bWxuczpjYz0iaHR0cDovL2NyZWF0aXZlY29tbW9ucy5vcmcvbnMjIiB4bWxuczpkYz0iaHR0cDovL3B1cmwub3JnL2RjL2VsZW1lbnRzLzEuMS8iIHhtbG5zOmlua3NjYXBlPSJodHRwOi8vd3d3Lmlua3NjYXBlLm9yZy9uYW1lc3BhY2VzL2lua3NjYXBlIiB4bWxuczpyZGY9Imh0dHA6Ly93d3cudzMub3JnLzE5OTkvMDIvMjItcmRmLXN5bnRheC1ucyMiIHhtbG5zOnNvZGlwb2RpPSJodHRwOi8vc29kaXBvZGkuc291cmNlZm9yZ2UubmV0L0RURC9zb2RpcG9kaS0wLmR0ZCIgeG1sbnM6c3ZnPSJodHRwOi8vd3d3LnczLm9yZy8yMDAwL3N2ZyIgeG1sbnM9Imh0dHA6Ly93d3cudzMub3JnLzIwMDAvc3ZnIiB4bWxuczp4bGluaz0iaHR0cDovL3d3dy53My5vcmcvMTk5OS94bGluayIgdmVyc2lvbj0iMS4xIiBpZD0ic3ZnNTg1MzciIGlua3NjYXBlOnZlcnNpb249IjAuOTIuMyAoMjQwNTU0NiwgMjAxOC0wMy0xMSkiIHNvZGlwb2RpOmRvY25hbWU9ImF6dXJlX2Z1bmN0aW9ucy5zdmciIHg9IjBweCIgeT0iMHB4IiB2aWV3Qm94PSIwIDAgNTcuMzEgNTIuODEiIHN0eWxlPSJlbmFibGUtYmFja2dyb3VuZDpuZXcgMCAwIDU3LjMxIDUyLjgxOyIgeG1sOnNwYWNlPSJwcmVzZXJ2ZSI+JiN4YTs8c29kaXBvZGk6bmFtZWR2aWV3IGJvcmRlcmNvbG9yPSIjNjY2NjY2IiBib3JkZXJvcGFjaXR5PSIxIiBmaXQtbWFyZ2luLWJvdHRvbT0iMCIgZml0LW1hcmdpbi1sZWZ0PSIwIiBmaXQtbWFyZ2luLXJpZ2h0PSIwIiBmaXQtbWFyZ2luLXRvcD0iMCIgZ3JpZHRvbGVyYW5jZT0iMTAiIGd1aWRldG9sZXJhbmNlPSIxMCIgaWQ9Im5hbWVkdmlldzU4NTM5IiBpbmtzY2FwZTpjdXJyZW50LWxheWVyPSJzdmc1ODUzNyIgaW5rc2NhcGU6Y3g9IjM5LjQ3MTQ0MiIgaW5rc2NhcGU6Y3k9IjI2LjM0NTIxNyIgaW5rc2NhcGU6cGFnZW9wYWNpdHk9IjAiIGlua3NjYXBlOnBhZ2VzaGFkb3c9IjIiIGlua3NjYXBlOndpbmRvdy1oZWlnaHQ9IjEwMTciIGlua3NjYXBlOndpbmRvdy1tYXhpbWl6ZWQ9IjEiIGlua3NjYXBlOndpbmRvdy13aWR0aD0iMTkyMCIgaW5rc2NhcGU6d2luZG93LXg9Ii04IiBpbmtzY2FwZTp3aW5kb3cteT0iLTgiIGlua3NjYXBlOnpvb209IjYuMzkxNjgyOCIgb2JqZWN0dG9sZXJhbmNlPSIxMCIgcGFnZWNvbG9yPSIjZmZmZmZmIiBzaG93Z3JpZD0iZmFsc2UiPiYjeGE7CTwvc29kaXBvZGk6bmFtZWR2aWV3PiYjeGE7PGcgaWQ9Imc1ODUzNSIgdHJhbnNmb3JtPSJ0cmFuc2xhdGUoLTkuNTYzNDE2MSwtOS41Njc2MDUyKSI+JiN4YTsJPHRpdGxlIGlkPSJ0aXRsZTU4NTEwIj5QYWdlLTE8L3RpdGxlPiYjeGE7CTxnIGlkPSJncm91cDQ0MzYtMSIgdHJhbnNmb3JtPSJ0cmFuc2xhdGUoOS4zOTU0MywtOS41NjI1KSI+JiN4YTsJCTx0aXRsZSBpZD0idGl0bGU1ODUxMiI+QXp1cmUgRnVuY3Rpb25zLjQzNzwvdGl0bGU+JiN4YTsJCTxnIGlkPSJzaGFwZTQ0MzctMiIgdHJhbnNmb3JtPSJ0cmFuc2xhdGUoMzkuMjA1OSwtMTAuMjkzOCkiPiYjeGE7CQkJPHRpdGxlIGlkPSJ0aXRsZTU4NTE0Ij5TaGVldC40NDM3PC90aXRsZT4mI3hhOwkJCTxwYXRoIGlkPSJwYXRoNTg1MTYiIGlua3NjYXBlOmNvbm5lY3Rvci1jdXJ2YXR1cmU9IjAiIHN0eWxlPSJmaWxsOiMzOTk5QzY7IiBkPSJNMTcuOSw1Ni4xOGMwLjU0LTAuNTMsMC40NS0xLjUyLDAtMi4wNiAgICAgbC0yLjc3LTIuNzdsLTEyLjM2LTEyYy0wLjUzLTAuNTMtMS4zNC0wLjUzLTEuOTYsMGMtMC41NCwwLjU0LTAuNzIsMS41MywwLDIuMDZsMTIuOTcsMTIuNzFjMC41NCwwLjU0LDAuNTQsMS41MywwLDIuMDYgICAgIEwwLjU0LDY5LjM0QzAsNjkuODgsMCw3MC44NiwwLjU0LDcxLjRjMC41MywwLjU0LDEuNTIsMC40NSwxLjk3LDBsMTIuMjYtMTIuMTdjMCwwLDAsMCwwLjA5LTAuMDlMMTcuOSw1Ni4xOHoiLz4mI3hhOwkJPC9nPiYjeGE7CQk8ZyBpZD0ic2hhcGU0NDM4LTQiIHRyYW5zZm9ybT0idHJhbnNsYXRlKDAsLTEwLjI5MzgpIj4mI3hhOwkJCTx0aXRsZSBpZD0idGl0bGU1ODUxOSI+U2hlZXQuNDQzODwvdGl0bGU+JiN4YTsJCQk8cGF0aCBpZD0icGF0aDU4NTIxIiBpbmtzY2FwZTpjb25uZWN0b3ItY3VydmF0dXJlPSIwIiBzdHlsZT0iZmlsbDojMzk5OUM2OyIgZD0iTTAuNTQsNTYuMThjLTAuNTQtMC41My0wLjQ1LTEuNTIsMC0yLjA2ICAgICBsMi43Ny0yLjc3bDEyLjM1LTEyYzAuNTQtMC41MywxLjM1LTAuNTMsMS45NywwYzAuNTQsMC41NCwwLjcyLDEuNTMsMCwyLjA2TDQuOTIsNTQuMTJjLTAuNTMsMC41NC0wLjUzLDEuNTMsMCwyLjA2TDE3LjksNjkuMzQgICAgIGMwLjU0LDAuNTQsMC41NCwxLjUyLDAsMi4wNmMtMC41MywwLjU0LTEuNTIsMC40NS0xLjk3LDBMMy40LDU5LjQxYzAsMCwwLDAtMC4wOS0wLjA5TDAuNTQsNTYuMTh6Ii8+JiN4YTsJCTwvZz4mI3hhOwkJPGcgaWQ9InNoYXBlNDQzOS02IiB0cmFuc2Zvcm09InRyYW5zbGF0ZSgxNS45MzMpIj4mI3hhOwkJCTx0aXRsZSBpZD0idGl0bGU1ODUyNCI+U2hlZXQuNDQzOTwvdGl0bGU+JiN4YTsJCQk8cGF0aCBpZD0icGF0aDU4NTI2IiBpbmtzY2FwZTpjb25uZWN0b3ItY3VydmF0dXJlPSIwIiBzdHlsZT0iZmlsbDojRkNEMTE2OyIgZD0iTTI2Ljg1LDE5LjEzSDkuNEwwLDQ1LjYybDExLjQ2LDAuMDlMMi41MSw3MS45NCAgICAgbDI0LjctMzVIMTUuMjJMMjYuODUsMTkuMTN6Ii8+JiN4YTsJCTwvZz4mI3hhOwkJPGcgaWQ9InNoYXBlNDQ0MC04IiB0cmFuc2Zvcm09InRyYW5zbGF0ZSgxOC40MzkzKSI+JiN4YTsJCQk8dGl0bGUgaWQ9InRpdGxlNTg1MjkiPlNoZWV0LjQ0NDA8L3RpdGxlPiYjeGE7CQkJPHBhdGggaWQ9InBhdGg1ODUzMSIgaW5rc2NhcGU6Y29ubmVjdG9yLWN1cnZhdHVyZT0iMCIgc3R5bGU9ImZpbGw6I0ZGOEMwMDtmaWxsLW9wYWNpdHk6MC4zOyIgZD0iTTEyLjcxLDM2Ljk0bDExLjY0LTE3LjgxICAgICBoLTkuMTNMNS41NSw0MS4xNGwxMS40NiwwLjA5TDAsNzEuOTRsMjQuNzEtMzVMMTIuNzEsMzYuOTR6Ii8+JiN4YTsJCTwvZz4mI3hhOwk8L2c+JiN4YTs8L2c+JiN4YTs8L3N2Zz4=;" parent="1" vertex="1">
          <mxGeometry x="1014.48" y="473.92" width="57" height="53" as="geometry" />
        </mxCell>
        <mxCell id="OIpXf6CerVtjoZWrU3Lm-35" value="" style="shape=image;verticalLabelPosition=bottom;labelBackgroundColor=#ffffff;verticalAlign=top;aspect=fixed;imageAspect=0;image=data:image/svg+xml,PHN2ZyB4bWxuczpjYz0iaHR0cDovL2NyZWF0aXZlY29tbW9ucy5vcmcvbnMjIiB4bWxuczpkYz0iaHR0cDovL3B1cmwub3JnL2RjL2VsZW1lbnRzLzEuMS8iIHhtbG5zOmlua3NjYXBlPSJodHRwOi8vd3d3Lmlua3NjYXBlLm9yZy9uYW1lc3BhY2VzL2lua3NjYXBlIiB4bWxuczpyZGY9Imh0dHA6Ly93d3cudzMub3JnLzE5OTkvMDIvMjItcmRmLXN5bnRheC1ucyMiIHhtbG5zOnNvZGlwb2RpPSJodHRwOi8vc29kaXBvZGkuc291cmNlZm9yZ2UubmV0L0RURC9zb2RpcG9kaS0wLmR0ZCIgeG1sbnM6c3ZnPSJodHRwOi8vd3d3LnczLm9yZy8yMDAwL3N2ZyIgeG1sbnM9Imh0dHA6Ly93d3cudzMub3JnLzIwMDAvc3ZnIiB4bWxuczp4bGluaz0iaHR0cDovL3d3dy53My5vcmcvMTk5OS94bGluayIgdmVyc2lvbj0iMS4xIiBpZD0ic3ZnNDQ4MzAiIGlua3NjYXBlOnZlcnNpb249IjAuOTIuMyAoMjQwNTU0NiwgMjAxOC0wMy0xMSkiIHNvZGlwb2RpOmRvY25hbWU9ImNzaGFycC5zdmciIHg9IjBweCIgeT0iMHB4IiB2aWV3Qm94PSIwIDAgOTcuNzIgNzEuNTUiIHN0eWxlPSJlbmFibGUtYmFja2dyb3VuZDpuZXcgMCAwIDk3LjcyIDcxLjU1OyIgeG1sOnNwYWNlPSJwcmVzZXJ2ZSI+JiN4YTs8c29kaXBvZGk6bmFtZWR2aWV3IGJvcmRlcmNvbG9yPSIjNjY2NjY2IiBib3JkZXJvcGFjaXR5PSIxIiBmaXQtbWFyZ2luLWJvdHRvbT0iMCIgZml0LW1hcmdpbi1sZWZ0PSIwIiBmaXQtbWFyZ2luLXJpZ2h0PSIwIiBmaXQtbWFyZ2luLXRvcD0iMCIgZ3JpZHRvbGVyYW5jZT0iMTAiIGd1aWRldG9sZXJhbmNlPSIxMCIgaWQ9Im5hbWVkdmlldzQ0ODMyIiBpbmtzY2FwZTpjdXJyZW50LWxheWVyPSJzdmc0NDgzMCIgaW5rc2NhcGU6Y3g9IjU4LjE1OTExNyIgaW5rc2NhcGU6Y3k9IjMxLjEzNjI3NyIgaW5rc2NhcGU6cGFnZW9wYWNpdHk9IjAiIGlua3NjYXBlOnBhZ2VzaGFkb3c9IjIiIGlua3NjYXBlOndpbmRvdy1oZWlnaHQ9IjEwMTciIGlua3NjYXBlOndpbmRvdy1tYXhpbWl6ZWQ9IjEiIGlua3NjYXBlOndpbmRvdy13aWR0aD0iMTkyMCIgaW5rc2NhcGU6d2luZG93LXg9Ii04IiBpbmtzY2FwZTp3aW5kb3cteT0iLTgiIGlua3NjYXBlOnpvb209IjQuNTQ0MDE2IiBvYmplY3R0b2xlcmFuY2U9IjEwIiBwYWdlY29sb3I9IiNmZmZmZmYiIHNob3dncmlkPSJmYWxzZSI+JiN4YTsJPC9zb2RpcG9kaTpuYW1lZHZpZXc+JiN4YTs8ZyBpZD0iZzQ0ODI4IiB0cmFuc2Zvcm09InRyYW5zbGF0ZSgwLC04LjQwNzE0NjllLTUpIj4mI3hhOwk8dGl0bGUgaWQ9InRpdGxlNDQ3OTUiPlBhZ2UtMTwvdGl0bGU+JiN4YTsJPGcgaWQ9Imdyb3VwMTc4Mi0xIj4mI3hhOwkJPHRpdGxlIGlkPSJ0aXRsZTQ0Nzk3Ij5DIzwvdGl0bGU+JiN4YTsJCTxnIGlkPSJzaGFwZTE3ODMtMiI+JiN4YTsJCQk8dGl0bGUgaWQ9InRpdGxlNDQ3OTkiPlNoZWV0LjE3ODM8L3RpdGxlPiYjeGE7CQkJPHBhdGggaWQ9InBhdGg0NDgwMSIgaW5rc2NhcGU6Y29ubmVjdG9yLWN1cnZhdHVyZT0iMCIgc3R5bGU9ImZpbGw6IzNGNTc2NTsiIGQ9Ik05My45OSwwQzMuNjEsMCwzLjYxLDAsMy42MSwwICAgICBDMC42LDAsMCwwLjcyLDAsMy43MmMwLDY0LjIzLDAsNjQuMjMsMCw2NC4yM2MwLDMsMC42LDMuNiwzLjYxLDMuNmM5MC4zOCwwLDkwLjM4LDAsOTAuMzgsMGMzLjEyLDAsMy43My0wLjYsMy43My0zLjYgICAgIGMwLTY0LjIzLDAtNjQuMjMsMC02NC4yM0M5Ny43MiwwLjcyLDk3LjExLDAsOTMuOTksMHoiLz4mI3hhOwkJPC9nPiYjeGE7CQk8ZyBpZD0ic2hhcGUxNzg0LTQiIHRyYW5zZm9ybT0idHJhbnNsYXRlKDkwLjk2NTEsLTY2LjI0NzgpIj4mI3hhOwkJCTx0aXRsZSBpZD0idGl0bGU0NDgwNCI+U2hlZXQuMTc4NDwvdGl0bGU+JiN4YTsJCQk8cGF0aCBpZD0icGF0aDQ0ODA2IiBpbmtzY2FwZTpjb25uZWN0b3ItY3VydmF0dXJlPSIwIiBzdHlsZT0iZmlsbDojRkYwMDAwOyIgZD0iTTQuMTMsNjkuNTFjMCwxLjE3LTAuOTIsMi4wNC0yLjA0LDIuMDQgICAgIFMwLDcwLjY4LDAsNjkuNTFjMC0xLjEyLDAuOTctMi4wMywyLjA5LTIuMDNTNC4xMyw2OC4zOSw0LjEzLDY5LjUxeiIvPiYjeGE7CQk8L2c+JiN4YTsJCTxnIGlkPSJzaGFwZTE3ODUtNiIgdHJhbnNmb3JtPSJ0cmFuc2xhdGUoMi4wOTUxOSwtMy4zMDYyMykiPiYjeGE7CQkJPHRpdGxlIGlkPSJ0aXRsZTQ0ODA5Ij5TaGVldC4xNzg1PC90aXRsZT4mI3hhOwkJCTxwYXRoIGlkPSJwYXRoNDQ4MTEiIGlua3NjYXBlOmNvbm5lY3Rvci1jdXJ2YXR1cmU9IjAiIHN0eWxlPSJmaWxsOiMwMEIwRjA7IiBkPSJNMCwxMi40MXY1OS4xNGg5My4wNFYxMi40MUgweiIvPiYjeGE7CQk8L2c+JiN4YTsJCTxnIGlkPSJncm91cDE3ODYtOCIgdHJhbnNmb3JtPSJ0cmFuc2xhdGUoMjYuMTE2NywtMTYuMzI1NykiPiYjeGE7CQkJPHRpdGxlIGlkPSJ0aXRsZTQ0ODE0Ij5TaGVldC4xNzg2PC90aXRsZT4mI3hhOwkJCTxnIGlkPSJzaGFwZTE3ODctOSI+JiN4YTsJCQkJPHRpdGxlIGlkPSJ0aXRsZTQ0ODE2Ij5TaGVldC4xNzg3PC90aXRsZT4mI3hhOwkJCQk8cGF0aCBpZD0icGF0aDQ0ODE4IiBpbmtzY2FwZTpjb25uZWN0b3ItY3VydmF0dXJlPSIwIiBzdHlsZT0iZmlsbDojRkZGRkZGOyIgZD0iTTI0LjQzLDY5Ljc2Yy0yLjM2LDEuMjItNS4zNiwxLjc5LTksMS43OSAgICAgIGMtNC43MiwwLTguMzYtMS40My0xMS4yMi00LjNDMS41LDY0LjI0LDAsNjAuNDQsMCw1NS42NGMwLTUuMTUsMS41Ny05LjMxLDQuNzEtMTIuNDZjMy4xNS0zLjIzLDcuMDgtNC43MywxMS44Ni00LjczICAgICAgYzMuMDcsMCw1LjcyLDAuNDMsNy42NCwxLjM2djUuM2MtMi4xNC0xLjI5LTQuNTctMS45My03LjIxLTEuOTNjLTMuNDMsMC02LjI5LDEuMTQtOC40MywzLjI5cy0zLjIxLDUuMTYtMy4yMSw4Ljk2ICAgICAgYzAsMy41MSwxLjA3LDYuMywzLDguNDVjMi4wNywyLjA4LDQuNjQsMy4wOCw3Ljg1LDMuMDhjMywwLDUuNjUtMC42NCw3LjkzLTIuMTR2NC45NEgyNC40M3oiLz4mI3hhOwkJCTwvZz4mI3hhOwkJCTxnIGlkPSJzaGFwZTE3ODgtMTEiIHRyYW5zZm9ybT0idHJhbnNsYXRlKDI3LjA3MTQsLTYuODc4MjkpIj4mI3hhOwkJCQk8dGl0bGUgaWQ9InRpdGxlNDQ4MjEiPlNoZWV0LjE3ODg8L3RpdGxlPiYjeGE7CQkJCTxwYXRoIGlkPSJwYXRoNDQ4MjMiIGlua3NjYXBlOmNvbm5lY3Rvci1jdXJ2YXR1cmU9IjAiIHN0eWxlPSJmaWxsOiNGRkZGRkY7IiBkPSJNMTcuNSw1OC45NGwwLjQzLTIuMjloLTMuNWwxLjE0LTUuNzNoLTIuNSAgICAgIGwtMS4xNCw1LjczaC00bDEuMTQtNS43M0g2LjVsLTEuMTQsNS43M0gxLjY0bC0wLjUsMi4yOWgzLjc5TDQsNjMuNTNIMC41TDAsNjUuODJoMy41N2wtMS4xNCw1LjczaDIuNWwxLjE0LTUuNzNoNGwtMS4xNCw1LjczICAgICAgaDIuNWwxLjE0LTUuNzNoMy43OWwwLjU3LTIuMjloLTMuNzlsMC45My00LjU5SDE3LjV6IE0xMC41LDYzLjUzaC00bDAuOTMtNC41OWg0TDEwLjUsNjMuNTN6Ii8+JiN4YTsJCQk8L2c+JiN4YTsJCTwvZz4mI3hhOwk8L2c+JiN4YTs8L2c+JiN4YTs8L3N2Zz4=;" parent="1" vertex="1">
          <mxGeometry x="1008.98" y="563.7900000000001" width="68" height="49.96" as="geometry" />
        </mxCell>
        <mxCell id="OIpXf6CerVtjoZWrU3Lm-36" value="Azure Function" style="text;html=1;strokeColor=none;fillColor=none;align=center;verticalAlign=middle;whiteSpace=wrap;rounded=0;glass=0;dashed=1;sketch=1;fontSize=12;fontStyle=1" parent="1" vertex="1">
          <mxGeometry x="788.06" y="116.83" width="120" height="33.17" as="geometry" />
        </mxCell>
        <mxCell id="OIpXf6CerVtjoZWrU3Lm-37" value="Flower Codes" style="text;html=1;strokeColor=none;fillColor=none;align=center;verticalAlign=middle;whiteSpace=wrap;rounded=0;glass=0;dashed=1;sketch=1;fontSize=12;fontStyle=1" parent="1" vertex="1">
          <mxGeometry x="1000.21" y="520.67" width="95.48" height="31.07" as="geometry" />
        </mxCell>
        <mxCell id="OIpXf6CerVtjoZWrU3Lm-39" value="" style="endArrow=classic;startArrow=classic;html=1;strokeColor=#177CFF;strokeWidth=2;exitX=1;exitY=0.5;exitDx=0;exitDy=0;entryX=1;entryY=0.5;entryDx=0;entryDy=0;" parent="1" source="OIpXf6CerVtjoZWrU3Lm-33" target="OIpXf6CerVtjoZWrU3Lm-5" edge="1">
          <mxGeometry width="50" height="50" relative="1" as="geometry">
            <mxPoint x="165" y="617.7249999999999" as="sourcePoint" />
            <mxPoint x="483.0140000000001" y="379.99839999999995" as="targetPoint" />
            <Array as="points">
              <mxPoint x="1140" y="500" />
            </Array>
          </mxGeometry>
        </mxCell>
        <mxCell id="OIpXf6CerVtjoZWrU3Lm-40" value="" style="endArrow=classic;startArrow=classic;html=1;strokeColor=#177CFF;strokeWidth=2;exitX=0;exitY=0.5;exitDx=0;exitDy=0;entryX=1;entryY=1;entryDx=0;entryDy=0;" parent="1" source="OIpXf6CerVtjoZWrU3Lm-35" target="OIpXf6CerVtjoZWrU3Lm-65" edge="1">
          <mxGeometry width="50" height="50" relative="1" as="geometry">
            <mxPoint x="105" y="644.25" as="sourcePoint" />
            <mxPoint x="654.0050000000001" y="489.9950000000001" as="targetPoint" />
            <Array as="points">
              <mxPoint x="773" y="585" />
            </Array>
          </mxGeometry>
        </mxCell>
        <mxCell id="OIpXf6CerVtjoZWrU3Lm-41" value="ImportersFlowersBalance Console&amp;nbsp;" style="text;html=1;strokeColor=none;fillColor=none;align=center;verticalAlign=middle;whiteSpace=wrap;rounded=0;glass=0;dashed=1;sketch=1;fontSize=12;fontStyle=1" parent="1" vertex="1">
          <mxGeometry x="965.24" y="618.16" width="155.48" height="33.17" as="geometry" />
        </mxCell>
        <mxCell id="OIpXf6CerVtjoZWrU3Lm-42" value="" style="group" parent="1" vertex="1" connectable="0">
          <mxGeometry x="465" y="275" width="90" height="91.83000000000004" as="geometry" />
        </mxCell>
        <mxCell id="OIpXf6CerVtjoZWrU3Lm-43" value="" style="shape=image;verticalLabelPosition=bottom;labelBackgroundColor=#ffffff;verticalAlign=top;aspect=fixed;imageAspect=0;image=data:image/svg+xml,PHN2ZyB4bWxucz0iaHR0cDovL3d3dy53My5vcmcvMjAwMC9zdmciIGlkPSJiOWMyNGRmNS1lMGRkLTQ4MzgtYTM4NS03YzExYzJkMzQzMDQiIHdpZHRoPSIxOCIgaGVpZ2h0PSIxNS44NjIyODg0NzUwMzY2MjEiIHZpZXdCb3g9IjAgMS4wNjc3MTIwNjg1NTc3MzkzIDE4IDE1Ljg2MjI4ODQ3NTAzNjYyMSI+PGRlZnM+PGxpbmVhckdyYWRpZW50IGlkPSJhYTJlZTY5Ny1lOGQxLTRkYTEtYThjNS02NGM4ZWJiYjc0Y2YiIHgxPSI5IiB5MT0iMTMuODMiIHgyPSI5IiB5Mj0iMS4wNyIgZ3JhZGllbnRVbml0cz0idXNlclNwYWNlT25Vc2UiPjxzdG9wIG9mZnNldD0iMCIgc3RvcC1jb2xvcj0iIzAwNzhkNCIvPjxzdG9wIG9mZnNldD0iMC44MiIgc3RvcC1jb2xvcj0iIzVlYTBlZiIvPjwvbGluZWFyR3JhZGllbnQ+PC9kZWZzPjx0aXRsZT5JY29uLW5ldHdvcmtpbmctNzM8L3RpdGxlPjxwYXRoIGQ9Ik0xOCw5LjgzQTQsNCwwLDAsMCwxNC40OSw2LDUuMSw1LjEsMCwwLDAsOS4yNCwxLjA3YTUuMjMsNS4yMywwLDAsMC01LDMuNDFBNC44Myw0LjgzLDAsMCwwLDAsOS4xMmE0LjksNC45LDAsMCwwLDUuMDcsNC43MWwuNDQsMGg4LjIxYS43OC43OCwwLDAsMCwuMjIsMEE0LjA5LDQuMDksMCwwLDAsMTgsOS44M1oiIGZpbGw9InVybCgjYWEyZWU2OTctZThkMS00ZGExLWE4YzUtNjRjOGViYmI3NGNmKSIvPjxwYXRoIGlkPSJmMDI3NjEzNS0wMDc5LTQ4OTctYTUxOC0yMWViNjM0NzJjMTYiIGQ9Ik02LjYzLDYuODJoNS4wNnY3SDYuNjNaIiBmaWxsPSIjZjJmMmYyIi8+PHBhdGggaWQ9ImU1Mjg4NzhkLTJlZDctNDM5Mi05NGU2LTk5YzZmYzk3MWJjYiIgZD0iTTEyLjYxLDYuMzdsLTMuNDktMmEuMjUuMjUsMCwwLDAtLjMxLjE1czAsLjA2LDAsLjA4VjE2LjY4YS4yNS4yNSwwLDAsMCwuMjQuMjVoLjA4bDMuNDktMi4wNmEuMjUuMjUsMCwwLDAsLjE3LS4yM3YtOEEuMjYuMjYsMCwwLDAsMTIuNjEsNi4zN1oiIGZpbGw9IiM1MGU2ZmYiLz48L3N2Zz4=;fontSize=12;" parent="OIpXf6CerVtjoZWrU3Lm-42" vertex="1">
          <mxGeometry x="6" width="78" height="69.33" as="geometry" />
        </mxCell>
        <mxCell id="OIpXf6CerVtjoZWrU3Lm-44" value="Front Door" style="text;html=1;strokeColor=none;fillColor=none;align=center;verticalAlign=middle;whiteSpace=wrap;rounded=0;glass=0;dashed=1;sketch=1;fontSize=12;fontStyle=1" parent="OIpXf6CerVtjoZWrU3Lm-42" vertex="1">
          <mxGeometry y="69.33000000000004" width="90" height="22.5" as="geometry" />
        </mxCell>
        <mxCell id="OIpXf6CerVtjoZWrU3Lm-45" value="" style="endArrow=none;startArrow=classic;html=1;strokeWidth=2;strokeColor=#177CFF;entryX=0.25;entryY=1;entryDx=0;entryDy=0;exitX=0.5;exitY=0;exitDx=0;exitDy=0;endFill=0;" parent="1" source="OIpXf6CerVtjoZWrU3Lm-46" target="lP3EEBkdG0QTr18v6ItJ-13" edge="1">
          <mxGeometry width="50" height="50" relative="1" as="geometry">
            <mxPoint x="805" y="275" as="sourcePoint" />
            <mxPoint x="810.0040000000001" y="251.39087999999998" as="targetPoint" />
            <Array as="points" />
          </mxGeometry>
        </mxCell>
        <mxCell id="OIpXf6CerVtjoZWrU3Lm-46" value="" style="shape=image;verticalLabelPosition=bottom;labelBackgroundColor=#ffffff;verticalAlign=top;aspect=fixed;imageAspect=0;image=data:image/svg+xml,PHN2ZyB4bWxuczpjYz0iaHR0cDovL2NyZWF0aXZlY29tbW9ucy5vcmcvbnMjIiB4bWxuczpkYz0iaHR0cDovL3B1cmwub3JnL2RjL2VsZW1lbnRzLzEuMS8iIHhtbG5zOmlua3NjYXBlPSJodHRwOi8vd3d3Lmlua3NjYXBlLm9yZy9uYW1lc3BhY2VzL2lua3NjYXBlIiB4bWxuczpyZGY9Imh0dHA6Ly93d3cudzMub3JnLzE5OTkvMDIvMjItcmRmLXN5bnRheC1ucyMiIHhtbG5zOnNvZGlwb2RpPSJodHRwOi8vc29kaXBvZGkuc291cmNlZm9yZ2UubmV0L0RURC9zb2RpcG9kaS0wLmR0ZCIgeG1sbnM6c3ZnPSJodHRwOi8vd3d3LnczLm9yZy8yMDAwL3N2ZyIgeG1sbnM9Imh0dHA6Ly93d3cudzMub3JnLzIwMDAvc3ZnIiB4bWxuczp4bGluaz0iaHR0cDovL3d3dy53My5vcmcvMTk5OS94bGluayIgdmVyc2lvbj0iMS4xIiBpZD0ic3ZnNTg1MzciIGlua3NjYXBlOnZlcnNpb249IjAuOTIuMyAoMjQwNTU0NiwgMjAxOC0wMy0xMSkiIHNvZGlwb2RpOmRvY25hbWU9ImF6dXJlX2Z1bmN0aW9ucy5zdmciIHg9IjBweCIgeT0iMHB4IiB2aWV3Qm94PSIwIDAgNTcuMzEgNTIuODEiIHN0eWxlPSJlbmFibGUtYmFja2dyb3VuZDpuZXcgMCAwIDU3LjMxIDUyLjgxOyIgeG1sOnNwYWNlPSJwcmVzZXJ2ZSI+JiN4YTs8c29kaXBvZGk6bmFtZWR2aWV3IGJvcmRlcmNvbG9yPSIjNjY2NjY2IiBib3JkZXJvcGFjaXR5PSIxIiBmaXQtbWFyZ2luLWJvdHRvbT0iMCIgZml0LW1hcmdpbi1sZWZ0PSIwIiBmaXQtbWFyZ2luLXJpZ2h0PSIwIiBmaXQtbWFyZ2luLXRvcD0iMCIgZ3JpZHRvbGVyYW5jZT0iMTAiIGd1aWRldG9sZXJhbmNlPSIxMCIgaWQ9Im5hbWVkdmlldzU4NTM5IiBpbmtzY2FwZTpjdXJyZW50LWxheWVyPSJzdmc1ODUzNyIgaW5rc2NhcGU6Y3g9IjM5LjQ3MTQ0MiIgaW5rc2NhcGU6Y3k9IjI2LjM0NTIxNyIgaW5rc2NhcGU6cGFnZW9wYWNpdHk9IjAiIGlua3NjYXBlOnBhZ2VzaGFkb3c9IjIiIGlua3NjYXBlOndpbmRvdy1oZWlnaHQ9IjEwMTciIGlua3NjYXBlOndpbmRvdy1tYXhpbWl6ZWQ9IjEiIGlua3NjYXBlOndpbmRvdy13aWR0aD0iMTkyMCIgaW5rc2NhcGU6d2luZG93LXg9Ii04IiBpbmtzY2FwZTp3aW5kb3cteT0iLTgiIGlua3NjYXBlOnpvb209IjYuMzkxNjgyOCIgb2JqZWN0dG9sZXJhbmNlPSIxMCIgcGFnZWNvbG9yPSIjZmZmZmZmIiBzaG93Z3JpZD0iZmFsc2UiPiYjeGE7CTwvc29kaXBvZGk6bmFtZWR2aWV3PiYjeGE7PGcgaWQ9Imc1ODUzNSIgdHJhbnNmb3JtPSJ0cmFuc2xhdGUoLTkuNTYzNDE2MSwtOS41Njc2MDUyKSI+JiN4YTsJPHRpdGxlIGlkPSJ0aXRsZTU4NTEwIj5QYWdlLTE8L3RpdGxlPiYjeGE7CTxnIGlkPSJncm91cDQ0MzYtMSIgdHJhbnNmb3JtPSJ0cmFuc2xhdGUoOS4zOTU0MywtOS41NjI1KSI+JiN4YTsJCTx0aXRsZSBpZD0idGl0bGU1ODUxMiI+QXp1cmUgRnVuY3Rpb25zLjQzNzwvdGl0bGU+JiN4YTsJCTxnIGlkPSJzaGFwZTQ0MzctMiIgdHJhbnNmb3JtPSJ0cmFuc2xhdGUoMzkuMjA1OSwtMTAuMjkzOCkiPiYjeGE7CQkJPHRpdGxlIGlkPSJ0aXRsZTU4NTE0Ij5TaGVldC40NDM3PC90aXRsZT4mI3hhOwkJCTxwYXRoIGlkPSJwYXRoNTg1MTYiIGlua3NjYXBlOmNvbm5lY3Rvci1jdXJ2YXR1cmU9IjAiIHN0eWxlPSJmaWxsOiMzOTk5QzY7IiBkPSJNMTcuOSw1Ni4xOGMwLjU0LTAuNTMsMC40NS0xLjUyLDAtMi4wNiAgICAgbC0yLjc3LTIuNzdsLTEyLjM2LTEyYy0wLjUzLTAuNTMtMS4zNC0wLjUzLTEuOTYsMGMtMC41NCwwLjU0LTAuNzIsMS41MywwLDIuMDZsMTIuOTcsMTIuNzFjMC41NCwwLjU0LDAuNTQsMS41MywwLDIuMDYgICAgIEwwLjU0LDY5LjM0QzAsNjkuODgsMCw3MC44NiwwLjU0LDcxLjRjMC41MywwLjU0LDEuNTIsMC40NSwxLjk3LDBsMTIuMjYtMTIuMTdjMCwwLDAsMCwwLjA5LTAuMDlMMTcuOSw1Ni4xOHoiLz4mI3hhOwkJPC9nPiYjeGE7CQk8ZyBpZD0ic2hhcGU0NDM4LTQiIHRyYW5zZm9ybT0idHJhbnNsYXRlKDAsLTEwLjI5MzgpIj4mI3hhOwkJCTx0aXRsZSBpZD0idGl0bGU1ODUxOSI+U2hlZXQuNDQzODwvdGl0bGU+JiN4YTsJCQk8cGF0aCBpZD0icGF0aDU4NTIxIiBpbmtzY2FwZTpjb25uZWN0b3ItY3VydmF0dXJlPSIwIiBzdHlsZT0iZmlsbDojMzk5OUM2OyIgZD0iTTAuNTQsNTYuMThjLTAuNTQtMC41My0wLjQ1LTEuNTIsMC0yLjA2ICAgICBsMi43Ny0yLjc3bDEyLjM1LTEyYzAuNTQtMC41MywxLjM1LTAuNTMsMS45NywwYzAuNTQsMC41NCwwLjcyLDEuNTMsMCwyLjA2TDQuOTIsNTQuMTJjLTAuNTMsMC41NC0wLjUzLDEuNTMsMCwyLjA2TDE3LjksNjkuMzQgICAgIGMwLjU0LDAuNTQsMC41NCwxLjUyLDAsMi4wNmMtMC41MywwLjU0LTEuNTIsMC40NS0xLjk3LDBMMy40LDU5LjQxYzAsMCwwLDAtMC4wOS0wLjA5TDAuNTQsNTYuMTh6Ii8+JiN4YTsJCTwvZz4mI3hhOwkJPGcgaWQ9InNoYXBlNDQzOS02IiB0cmFuc2Zvcm09InRyYW5zbGF0ZSgxNS45MzMpIj4mI3hhOwkJCTx0aXRsZSBpZD0idGl0bGU1ODUyNCI+U2hlZXQuNDQzOTwvdGl0bGU+JiN4YTsJCQk8cGF0aCBpZD0icGF0aDU4NTI2IiBpbmtzY2FwZTpjb25uZWN0b3ItY3VydmF0dXJlPSIwIiBzdHlsZT0iZmlsbDojRkNEMTE2OyIgZD0iTTI2Ljg1LDE5LjEzSDkuNEwwLDQ1LjYybDExLjQ2LDAuMDlMMi41MSw3MS45NCAgICAgbDI0LjctMzVIMTUuMjJMMjYuODUsMTkuMTN6Ii8+JiN4YTsJCTwvZz4mI3hhOwkJPGcgaWQ9InNoYXBlNDQ0MC04IiB0cmFuc2Zvcm09InRyYW5zbGF0ZSgxOC40MzkzKSI+JiN4YTsJCQk8dGl0bGUgaWQ9InRpdGxlNTg1MjkiPlNoZWV0LjQ0NDA8L3RpdGxlPiYjeGE7CQkJPHBhdGggaWQ9InBhdGg1ODUzMSIgaW5rc2NhcGU6Y29ubmVjdG9yLWN1cnZhdHVyZT0iMCIgc3R5bGU9ImZpbGw6I0ZGOEMwMDtmaWxsLW9wYWNpdHk6MC4zOyIgZD0iTTEyLjcxLDM2Ljk0bDExLjY0LTE3LjgxICAgICBoLTkuMTNMNS41NSw0MS4xNGwxMS40NiwwLjA5TDAsNzEuOTRsMjQuNzEtMzVMMTIuNzEsMzYuOTR6Ii8+JiN4YTsJCTwvZz4mI3hhOwk8L2c+JiN4YTs8L2c+JiN4YTs8L3N2Zz4=;" parent="1" vertex="1">
          <mxGeometry x="782.14" y="269.89" width="57" height="53" as="geometry" />
        </mxCell>
        <mxCell id="OIpXf6CerVtjoZWrU3Lm-47" value="" style="shape=image;verticalLabelPosition=bottom;labelBackgroundColor=#ffffff;verticalAlign=top;aspect=fixed;imageAspect=0;image=data:image/svg+xml,PHN2ZyB4bWxuczpjYz0iaHR0cDovL2NyZWF0aXZlY29tbW9ucy5vcmcvbnMjIiB4bWxuczpkYz0iaHR0cDovL3B1cmwub3JnL2RjL2VsZW1lbnRzLzEuMS8iIHhtbG5zOmlua3NjYXBlPSJodHRwOi8vd3d3Lmlua3NjYXBlLm9yZy9uYW1lc3BhY2VzL2lua3NjYXBlIiB4bWxuczpyZGY9Imh0dHA6Ly93d3cudzMub3JnLzE5OTkvMDIvMjItcmRmLXN5bnRheC1ucyMiIHhtbG5zOnNvZGlwb2RpPSJodHRwOi8vc29kaXBvZGkuc291cmNlZm9yZ2UubmV0L0RURC9zb2RpcG9kaS0wLmR0ZCIgeG1sbnM6c3ZnPSJodHRwOi8vd3d3LnczLm9yZy8yMDAwL3N2ZyIgeG1sbnM9Imh0dHA6Ly93d3cudzMub3JnLzIwMDAvc3ZnIiB4bWxuczp4bGluaz0iaHR0cDovL3d3dy53My5vcmcvMTk5OS94bGluayIgdmVyc2lvbj0iMS4xIiBpZD0ic3ZnNTg1MzciIGlua3NjYXBlOnZlcnNpb249IjAuOTIuMyAoMjQwNTU0NiwgMjAxOC0wMy0xMSkiIHNvZGlwb2RpOmRvY25hbWU9ImF6dXJlX2Z1bmN0aW9ucy5zdmciIHg9IjBweCIgeT0iMHB4IiB2aWV3Qm94PSIwIDAgNTcuMzEgNTIuODEiIHN0eWxlPSJlbmFibGUtYmFja2dyb3VuZDpuZXcgMCAwIDU3LjMxIDUyLjgxOyIgeG1sOnNwYWNlPSJwcmVzZXJ2ZSI+JiN4YTs8c29kaXBvZGk6bmFtZWR2aWV3IGJvcmRlcmNvbG9yPSIjNjY2NjY2IiBib3JkZXJvcGFjaXR5PSIxIiBmaXQtbWFyZ2luLWJvdHRvbT0iMCIgZml0LW1hcmdpbi1sZWZ0PSIwIiBmaXQtbWFyZ2luLXJpZ2h0PSIwIiBmaXQtbWFyZ2luLXRvcD0iMCIgZ3JpZHRvbGVyYW5jZT0iMTAiIGd1aWRldG9sZXJhbmNlPSIxMCIgaWQ9Im5hbWVkdmlldzU4NTM5IiBpbmtzY2FwZTpjdXJyZW50LWxheWVyPSJzdmc1ODUzNyIgaW5rc2NhcGU6Y3g9IjM5LjQ3MTQ0MiIgaW5rc2NhcGU6Y3k9IjI2LjM0NTIxNyIgaW5rc2NhcGU6cGFnZW9wYWNpdHk9IjAiIGlua3NjYXBlOnBhZ2VzaGFkb3c9IjIiIGlua3NjYXBlOndpbmRvdy1oZWlnaHQ9IjEwMTciIGlua3NjYXBlOndpbmRvdy1tYXhpbWl6ZWQ9IjEiIGlua3NjYXBlOndpbmRvdy13aWR0aD0iMTkyMCIgaW5rc2NhcGU6d2luZG93LXg9Ii04IiBpbmtzY2FwZTp3aW5kb3cteT0iLTgiIGlua3NjYXBlOnpvb209IjYuMzkxNjgyOCIgb2JqZWN0dG9sZXJhbmNlPSIxMCIgcGFnZWNvbG9yPSIjZmZmZmZmIiBzaG93Z3JpZD0iZmFsc2UiPiYjeGE7CTwvc29kaXBvZGk6bmFtZWR2aWV3PiYjeGE7PGcgaWQ9Imc1ODUzNSIgdHJhbnNmb3JtPSJ0cmFuc2xhdGUoLTkuNTYzNDE2MSwtOS41Njc2MDUyKSI+JiN4YTsJPHRpdGxlIGlkPSJ0aXRsZTU4NTEwIj5QYWdlLTE8L3RpdGxlPiYjeGE7CTxnIGlkPSJncm91cDQ0MzYtMSIgdHJhbnNmb3JtPSJ0cmFuc2xhdGUoOS4zOTU0MywtOS41NjI1KSI+JiN4YTsJCTx0aXRsZSBpZD0idGl0bGU1ODUxMiI+QXp1cmUgRnVuY3Rpb25zLjQzNzwvdGl0bGU+JiN4YTsJCTxnIGlkPSJzaGFwZTQ0MzctMiIgdHJhbnNmb3JtPSJ0cmFuc2xhdGUoMzkuMjA1OSwtMTAuMjkzOCkiPiYjeGE7CQkJPHRpdGxlIGlkPSJ0aXRsZTU4NTE0Ij5TaGVldC40NDM3PC90aXRsZT4mI3hhOwkJCTxwYXRoIGlkPSJwYXRoNTg1MTYiIGlua3NjYXBlOmNvbm5lY3Rvci1jdXJ2YXR1cmU9IjAiIHN0eWxlPSJmaWxsOiMzOTk5QzY7IiBkPSJNMTcuOSw1Ni4xOGMwLjU0LTAuNTMsMC40NS0xLjUyLDAtMi4wNiAgICAgbC0yLjc3LTIuNzdsLTEyLjM2LTEyYy0wLjUzLTAuNTMtMS4zNC0wLjUzLTEuOTYsMGMtMC41NCwwLjU0LTAuNzIsMS41MywwLDIuMDZsMTIuOTcsMTIuNzFjMC41NCwwLjU0LDAuNTQsMS41MywwLDIuMDYgICAgIEwwLjU0LDY5LjM0QzAsNjkuODgsMCw3MC44NiwwLjU0LDcxLjRjMC41MywwLjU0LDEuNTIsMC40NSwxLjk3LDBsMTIuMjYtMTIuMTdjMCwwLDAsMCwwLjA5LTAuMDlMMTcuOSw1Ni4xOHoiLz4mI3hhOwkJPC9nPiYjeGE7CQk8ZyBpZD0ic2hhcGU0NDM4LTQiIHRyYW5zZm9ybT0idHJhbnNsYXRlKDAsLTEwLjI5MzgpIj4mI3hhOwkJCTx0aXRsZSBpZD0idGl0bGU1ODUxOSI+U2hlZXQuNDQzODwvdGl0bGU+JiN4YTsJCQk8cGF0aCBpZD0icGF0aDU4NTIxIiBpbmtzY2FwZTpjb25uZWN0b3ItY3VydmF0dXJlPSIwIiBzdHlsZT0iZmlsbDojMzk5OUM2OyIgZD0iTTAuNTQsNTYuMThjLTAuNTQtMC41My0wLjQ1LTEuNTIsMC0yLjA2ICAgICBsMi43Ny0yLjc3bDEyLjM1LTEyYzAuNTQtMC41MywxLjM1LTAuNTMsMS45NywwYzAuNTQsMC41NCwwLjcyLDEuNTMsMCwyLjA2TDQuOTIsNTQuMTJjLTAuNTMsMC41NC0wLjUzLDEuNTMsMCwyLjA2TDE3LjksNjkuMzQgICAgIGMwLjU0LDAuNTQsMC41NCwxLjUyLDAsMi4wNmMtMC41MywwLjU0LTEuNTIsMC40NS0xLjk3LDBMMy40LDU5LjQxYzAsMCwwLDAtMC4wOS0wLjA5TDAuNTQsNTYuMTh6Ii8+JiN4YTsJCTwvZz4mI3hhOwkJPGcgaWQ9InNoYXBlNDQzOS02IiB0cmFuc2Zvcm09InRyYW5zbGF0ZSgxNS45MzMpIj4mI3hhOwkJCTx0aXRsZSBpZD0idGl0bGU1ODUyNCI+U2hlZXQuNDQzOTwvdGl0bGU+JiN4YTsJCQk8cGF0aCBpZD0icGF0aDU4NTI2IiBpbmtzY2FwZTpjb25uZWN0b3ItY3VydmF0dXJlPSIwIiBzdHlsZT0iZmlsbDojRkNEMTE2OyIgZD0iTTI2Ljg1LDE5LjEzSDkuNEwwLDQ1LjYybDExLjQ2LDAuMDlMMi41MSw3MS45NCAgICAgbDI0LjctMzVIMTUuMjJMMjYuODUsMTkuMTN6Ii8+JiN4YTsJCTwvZz4mI3hhOwkJPGcgaWQ9InNoYXBlNDQ0MC04IiB0cmFuc2Zvcm09InRyYW5zbGF0ZSgxOC40MzkzKSI+JiN4YTsJCQk8dGl0bGUgaWQ9InRpdGxlNTg1MjkiPlNoZWV0LjQ0NDA8L3RpdGxlPiYjeGE7CQkJPHBhdGggaWQ9InBhdGg1ODUzMSIgaW5rc2NhcGU6Y29ubmVjdG9yLWN1cnZhdHVyZT0iMCIgc3R5bGU9ImZpbGw6I0ZGOEMwMDtmaWxsLW9wYWNpdHk6MC4zOyIgZD0iTTEyLjcxLDM2Ljk0bDExLjY0LTE3LjgxICAgICBoLTkuMTNMNS41NSw0MS4xNGwxMS40NiwwLjA5TDAsNzEuOTRsMjQuNzEtMzVMMTIuNzEsMzYuOTR6Ii8+JiN4YTsJCTwvZz4mI3hhOwk8L2c+JiN4YTs8L2c+JiN4YTs8L3N2Zz4=;" parent="1" vertex="1">
          <mxGeometry x="847.9999999999998" y="269.89" width="57" height="53" as="geometry" />
        </mxCell>
        <mxCell id="OIpXf6CerVtjoZWrU3Lm-48" value="" style="shape=image;verticalLabelPosition=bottom;labelBackgroundColor=#ffffff;verticalAlign=top;aspect=fixed;imageAspect=0;image=data:image/svg+xml,PHN2ZyB4bWxuczpjYz0iaHR0cDovL2NyZWF0aXZlY29tbW9ucy5vcmcvbnMjIiB4bWxuczpkYz0iaHR0cDovL3B1cmwub3JnL2RjL2VsZW1lbnRzLzEuMS8iIHhtbG5zOmlua3NjYXBlPSJodHRwOi8vd3d3Lmlua3NjYXBlLm9yZy9uYW1lc3BhY2VzL2lua3NjYXBlIiB4bWxuczpyZGY9Imh0dHA6Ly93d3cudzMub3JnLzE5OTkvMDIvMjItcmRmLXN5bnRheC1ucyMiIHhtbG5zOnNvZGlwb2RpPSJodHRwOi8vc29kaXBvZGkuc291cmNlZm9yZ2UubmV0L0RURC9zb2RpcG9kaS0wLmR0ZCIgeG1sbnM6c3ZnPSJodHRwOi8vd3d3LnczLm9yZy8yMDAwL3N2ZyIgeG1sbnM9Imh0dHA6Ly93d3cudzMub3JnLzIwMDAvc3ZnIiB4bWxuczp4bGluaz0iaHR0cDovL3d3dy53My5vcmcvMTk5OS94bGluayIgdmVyc2lvbj0iMS4xIiBpZD0ic3ZnNTg1MzciIGlua3NjYXBlOnZlcnNpb249IjAuOTIuMyAoMjQwNTU0NiwgMjAxOC0wMy0xMSkiIHNvZGlwb2RpOmRvY25hbWU9ImF6dXJlX2Z1bmN0aW9ucy5zdmciIHg9IjBweCIgeT0iMHB4IiB2aWV3Qm94PSIwIDAgNTcuMzEgNTIuODEiIHN0eWxlPSJlbmFibGUtYmFja2dyb3VuZDpuZXcgMCAwIDU3LjMxIDUyLjgxOyIgeG1sOnNwYWNlPSJwcmVzZXJ2ZSI+JiN4YTs8c29kaXBvZGk6bmFtZWR2aWV3IGJvcmRlcmNvbG9yPSIjNjY2NjY2IiBib3JkZXJvcGFjaXR5PSIxIiBmaXQtbWFyZ2luLWJvdHRvbT0iMCIgZml0LW1hcmdpbi1sZWZ0PSIwIiBmaXQtbWFyZ2luLXJpZ2h0PSIwIiBmaXQtbWFyZ2luLXRvcD0iMCIgZ3JpZHRvbGVyYW5jZT0iMTAiIGd1aWRldG9sZXJhbmNlPSIxMCIgaWQ9Im5hbWVkdmlldzU4NTM5IiBpbmtzY2FwZTpjdXJyZW50LWxheWVyPSJzdmc1ODUzNyIgaW5rc2NhcGU6Y3g9IjM5LjQ3MTQ0MiIgaW5rc2NhcGU6Y3k9IjI2LjM0NTIxNyIgaW5rc2NhcGU6cGFnZW9wYWNpdHk9IjAiIGlua3NjYXBlOnBhZ2VzaGFkb3c9IjIiIGlua3NjYXBlOndpbmRvdy1oZWlnaHQ9IjEwMTciIGlua3NjYXBlOndpbmRvdy1tYXhpbWl6ZWQ9IjEiIGlua3NjYXBlOndpbmRvdy13aWR0aD0iMTkyMCIgaW5rc2NhcGU6d2luZG93LXg9Ii04IiBpbmtzY2FwZTp3aW5kb3cteT0iLTgiIGlua3NjYXBlOnpvb209IjYuMzkxNjgyOCIgb2JqZWN0dG9sZXJhbmNlPSIxMCIgcGFnZWNvbG9yPSIjZmZmZmZmIiBzaG93Z3JpZD0iZmFsc2UiPiYjeGE7CTwvc29kaXBvZGk6bmFtZWR2aWV3PiYjeGE7PGcgaWQ9Imc1ODUzNSIgdHJhbnNmb3JtPSJ0cmFuc2xhdGUoLTkuNTYzNDE2MSwtOS41Njc2MDUyKSI+JiN4YTsJPHRpdGxlIGlkPSJ0aXRsZTU4NTEwIj5QYWdlLTE8L3RpdGxlPiYjeGE7CTxnIGlkPSJncm91cDQ0MzYtMSIgdHJhbnNmb3JtPSJ0cmFuc2xhdGUoOS4zOTU0MywtOS41NjI1KSI+JiN4YTsJCTx0aXRsZSBpZD0idGl0bGU1ODUxMiI+QXp1cmUgRnVuY3Rpb25zLjQzNzwvdGl0bGU+JiN4YTsJCTxnIGlkPSJzaGFwZTQ0MzctMiIgdHJhbnNmb3JtPSJ0cmFuc2xhdGUoMzkuMjA1OSwtMTAuMjkzOCkiPiYjeGE7CQkJPHRpdGxlIGlkPSJ0aXRsZTU4NTE0Ij5TaGVldC40NDM3PC90aXRsZT4mI3hhOwkJCTxwYXRoIGlkPSJwYXRoNTg1MTYiIGlua3NjYXBlOmNvbm5lY3Rvci1jdXJ2YXR1cmU9IjAiIHN0eWxlPSJmaWxsOiMzOTk5QzY7IiBkPSJNMTcuOSw1Ni4xOGMwLjU0LTAuNTMsMC40NS0xLjUyLDAtMi4wNiAgICAgbC0yLjc3LTIuNzdsLTEyLjM2LTEyYy0wLjUzLTAuNTMtMS4zNC0wLjUzLTEuOTYsMGMtMC41NCwwLjU0LTAuNzIsMS41MywwLDIuMDZsMTIuOTcsMTIuNzFjMC41NCwwLjU0LDAuNTQsMS41MywwLDIuMDYgICAgIEwwLjU0LDY5LjM0QzAsNjkuODgsMCw3MC44NiwwLjU0LDcxLjRjMC41MywwLjU0LDEuNTIsMC40NSwxLjk3LDBsMTIuMjYtMTIuMTdjMCwwLDAsMCwwLjA5LTAuMDlMMTcuOSw1Ni4xOHoiLz4mI3hhOwkJPC9nPiYjeGE7CQk8ZyBpZD0ic2hhcGU0NDM4LTQiIHRyYW5zZm9ybT0idHJhbnNsYXRlKDAsLTEwLjI5MzgpIj4mI3hhOwkJCTx0aXRsZSBpZD0idGl0bGU1ODUxOSI+U2hlZXQuNDQzODwvdGl0bGU+JiN4YTsJCQk8cGF0aCBpZD0icGF0aDU4NTIxIiBpbmtzY2FwZTpjb25uZWN0b3ItY3VydmF0dXJlPSIwIiBzdHlsZT0iZmlsbDojMzk5OUM2OyIgZD0iTTAuNTQsNTYuMThjLTAuNTQtMC41My0wLjQ1LTEuNTIsMC0yLjA2ICAgICBsMi43Ny0yLjc3bDEyLjM1LTEyYzAuNTQtMC41MywxLjM1LTAuNTMsMS45NywwYzAuNTQsMC41NCwwLjcyLDEuNTMsMCwyLjA2TDQuOTIsNTQuMTJjLTAuNTMsMC41NC0wLjUzLDEuNTMsMCwyLjA2TDE3LjksNjkuMzQgICAgIGMwLjU0LDAuNTQsMC41NCwxLjUyLDAsMi4wNmMtMC41MywwLjU0LTEuNTIsMC40NS0xLjk3LDBMMy40LDU5LjQxYzAsMCwwLDAtMC4wOS0wLjA5TDAuNTQsNTYuMTh6Ii8+JiN4YTsJCTwvZz4mI3hhOwkJPGcgaWQ9InNoYXBlNDQzOS02IiB0cmFuc2Zvcm09InRyYW5zbGF0ZSgxNS45MzMpIj4mI3hhOwkJCTx0aXRsZSBpZD0idGl0bGU1ODUyNCI+U2hlZXQuNDQzOTwvdGl0bGU+JiN4YTsJCQk8cGF0aCBpZD0icGF0aDU4NTI2IiBpbmtzY2FwZTpjb25uZWN0b3ItY3VydmF0dXJlPSIwIiBzdHlsZT0iZmlsbDojRkNEMTE2OyIgZD0iTTI2Ljg1LDE5LjEzSDkuNEwwLDQ1LjYybDExLjQ2LDAuMDlMMi41MSw3MS45NCAgICAgbDI0LjctMzVIMTUuMjJMMjYuODUsMTkuMTN6Ii8+JiN4YTsJCTwvZz4mI3hhOwkJPGcgaWQ9InNoYXBlNDQ0MC04IiB0cmFuc2Zvcm09InRyYW5zbGF0ZSgxOC40MzkzKSI+JiN4YTsJCQk8dGl0bGUgaWQ9InRpdGxlNTg1MjkiPlNoZWV0LjQ0NDA8L3RpdGxlPiYjeGE7CQkJPHBhdGggaWQ9InBhdGg1ODUzMSIgaW5rc2NhcGU6Y29ubmVjdG9yLWN1cnZhdHVyZT0iMCIgc3R5bGU9ImZpbGw6I0ZGOEMwMDtmaWxsLW9wYWNpdHk6MC4zOyIgZD0iTTEyLjcxLDM2Ljk0bDExLjY0LTE3LjgxICAgICBoLTkuMTNMNS41NSw0MS4xNGwxMS40NiwwLjA5TDAsNzEuOTRsMjQuNzEtMzVMMTIuNzEsMzYuOTR6Ii8+JiN4YTsJCTwvZz4mI3hhOwk8L2c+JiN4YTs8L2c+JiN4YTs8L3N2Zz4=;" parent="1" vertex="1">
          <mxGeometry x="913" y="269.89" width="57" height="53" as="geometry" />
        </mxCell>
        <mxCell id="OIpXf6CerVtjoZWrU3Lm-49" value="" style="shape=image;verticalLabelPosition=bottom;labelBackgroundColor=#ffffff;verticalAlign=top;aspect=fixed;imageAspect=0;image=data:image/svg+xml,PHN2ZyB4bWxuczpjYz0iaHR0cDovL2NyZWF0aXZlY29tbW9ucy5vcmcvbnMjIiB4bWxuczpkYz0iaHR0cDovL3B1cmwub3JnL2RjL2VsZW1lbnRzLzEuMS8iIHhtbG5zOmlua3NjYXBlPSJodHRwOi8vd3d3Lmlua3NjYXBlLm9yZy9uYW1lc3BhY2VzL2lua3NjYXBlIiB4bWxuczpyZGY9Imh0dHA6Ly93d3cudzMub3JnLzE5OTkvMDIvMjItcmRmLXN5bnRheC1ucyMiIHhtbG5zOnNvZGlwb2RpPSJodHRwOi8vc29kaXBvZGkuc291cmNlZm9yZ2UubmV0L0RURC9zb2RpcG9kaS0wLmR0ZCIgeG1sbnM6c3ZnPSJodHRwOi8vd3d3LnczLm9yZy8yMDAwL3N2ZyIgeG1sbnM9Imh0dHA6Ly93d3cudzMub3JnLzIwMDAvc3ZnIiB4bWxuczp4bGluaz0iaHR0cDovL3d3dy53My5vcmcvMTk5OS94bGluayIgdmVyc2lvbj0iMS4xIiBpZD0ic3ZnNTg1MzciIGlua3NjYXBlOnZlcnNpb249IjAuOTIuMyAoMjQwNTU0NiwgMjAxOC0wMy0xMSkiIHNvZGlwb2RpOmRvY25hbWU9ImF6dXJlX2Z1bmN0aW9ucy5zdmciIHg9IjBweCIgeT0iMHB4IiB2aWV3Qm94PSIwIDAgNTcuMzEgNTIuODEiIHN0eWxlPSJlbmFibGUtYmFja2dyb3VuZDpuZXcgMCAwIDU3LjMxIDUyLjgxOyIgeG1sOnNwYWNlPSJwcmVzZXJ2ZSI+JiN4YTs8c29kaXBvZGk6bmFtZWR2aWV3IGJvcmRlcmNvbG9yPSIjNjY2NjY2IiBib3JkZXJvcGFjaXR5PSIxIiBmaXQtbWFyZ2luLWJvdHRvbT0iMCIgZml0LW1hcmdpbi1sZWZ0PSIwIiBmaXQtbWFyZ2luLXJpZ2h0PSIwIiBmaXQtbWFyZ2luLXRvcD0iMCIgZ3JpZHRvbGVyYW5jZT0iMTAiIGd1aWRldG9sZXJhbmNlPSIxMCIgaWQ9Im5hbWVkdmlldzU4NTM5IiBpbmtzY2FwZTpjdXJyZW50LWxheWVyPSJzdmc1ODUzNyIgaW5rc2NhcGU6Y3g9IjM5LjQ3MTQ0MiIgaW5rc2NhcGU6Y3k9IjI2LjM0NTIxNyIgaW5rc2NhcGU6cGFnZW9wYWNpdHk9IjAiIGlua3NjYXBlOnBhZ2VzaGFkb3c9IjIiIGlua3NjYXBlOndpbmRvdy1oZWlnaHQ9IjEwMTciIGlua3NjYXBlOndpbmRvdy1tYXhpbWl6ZWQ9IjEiIGlua3NjYXBlOndpbmRvdy13aWR0aD0iMTkyMCIgaW5rc2NhcGU6d2luZG93LXg9Ii04IiBpbmtzY2FwZTp3aW5kb3cteT0iLTgiIGlua3NjYXBlOnpvb209IjYuMzkxNjgyOCIgb2JqZWN0dG9sZXJhbmNlPSIxMCIgcGFnZWNvbG9yPSIjZmZmZmZmIiBzaG93Z3JpZD0iZmFsc2UiPiYjeGE7CTwvc29kaXBvZGk6bmFtZWR2aWV3PiYjeGE7PGcgaWQ9Imc1ODUzNSIgdHJhbnNmb3JtPSJ0cmFuc2xhdGUoLTkuNTYzNDE2MSwtOS41Njc2MDUyKSI+JiN4YTsJPHRpdGxlIGlkPSJ0aXRsZTU4NTEwIj5QYWdlLTE8L3RpdGxlPiYjeGE7CTxnIGlkPSJncm91cDQ0MzYtMSIgdHJhbnNmb3JtPSJ0cmFuc2xhdGUoOS4zOTU0MywtOS41NjI1KSI+JiN4YTsJCTx0aXRsZSBpZD0idGl0bGU1ODUxMiI+QXp1cmUgRnVuY3Rpb25zLjQzNzwvdGl0bGU+JiN4YTsJCTxnIGlkPSJzaGFwZTQ0MzctMiIgdHJhbnNmb3JtPSJ0cmFuc2xhdGUoMzkuMjA1OSwtMTAuMjkzOCkiPiYjeGE7CQkJPHRpdGxlIGlkPSJ0aXRsZTU4NTE0Ij5TaGVldC40NDM3PC90aXRsZT4mI3hhOwkJCTxwYXRoIGlkPSJwYXRoNTg1MTYiIGlua3NjYXBlOmNvbm5lY3Rvci1jdXJ2YXR1cmU9IjAiIHN0eWxlPSJmaWxsOiMzOTk5QzY7IiBkPSJNMTcuOSw1Ni4xOGMwLjU0LTAuNTMsMC40NS0xLjUyLDAtMi4wNiAgICAgbC0yLjc3LTIuNzdsLTEyLjM2LTEyYy0wLjUzLTAuNTMtMS4zNC0wLjUzLTEuOTYsMGMtMC41NCwwLjU0LTAuNzIsMS41MywwLDIuMDZsMTIuOTcsMTIuNzFjMC41NCwwLjU0LDAuNTQsMS41MywwLDIuMDYgICAgIEwwLjU0LDY5LjM0QzAsNjkuODgsMCw3MC44NiwwLjU0LDcxLjRjMC41MywwLjU0LDEuNTIsMC40NSwxLjk3LDBsMTIuMjYtMTIuMTdjMCwwLDAsMCwwLjA5LTAuMDlMMTcuOSw1Ni4xOHoiLz4mI3hhOwkJPC9nPiYjeGE7CQk8ZyBpZD0ic2hhcGU0NDM4LTQiIHRyYW5zZm9ybT0idHJhbnNsYXRlKDAsLTEwLjI5MzgpIj4mI3hhOwkJCTx0aXRsZSBpZD0idGl0bGU1ODUxOSI+U2hlZXQuNDQzODwvdGl0bGU+JiN4YTsJCQk8cGF0aCBpZD0icGF0aDU4NTIxIiBpbmtzY2FwZTpjb25uZWN0b3ItY3VydmF0dXJlPSIwIiBzdHlsZT0iZmlsbDojMzk5OUM2OyIgZD0iTTAuNTQsNTYuMThjLTAuNTQtMC41My0wLjQ1LTEuNTIsMC0yLjA2ICAgICBsMi43Ny0yLjc3bDEyLjM1LTEyYzAuNTQtMC41MywxLjM1LTAuNTMsMS45NywwYzAuNTQsMC41NCwwLjcyLDEuNTMsMCwyLjA2TDQuOTIsNTQuMTJjLTAuNTMsMC41NC0wLjUzLDEuNTMsMCwyLjA2TDE3LjksNjkuMzQgICAgIGMwLjU0LDAuNTQsMC41NCwxLjUyLDAsMi4wNmMtMC41MywwLjU0LTEuNTIsMC40NS0xLjk3LDBMMy40LDU5LjQxYzAsMCwwLDAtMC4wOS0wLjA5TDAuNTQsNTYuMTh6Ii8+JiN4YTsJCTwvZz4mI3hhOwkJPGcgaWQ9InNoYXBlNDQzOS02IiB0cmFuc2Zvcm09InRyYW5zbGF0ZSgxNS45MzMpIj4mI3hhOwkJCTx0aXRsZSBpZD0idGl0bGU1ODUyNCI+U2hlZXQuNDQzOTwvdGl0bGU+JiN4YTsJCQk8cGF0aCBpZD0icGF0aDU4NTI2IiBpbmtzY2FwZTpjb25uZWN0b3ItY3VydmF0dXJlPSIwIiBzdHlsZT0iZmlsbDojRkNEMTE2OyIgZD0iTTI2Ljg1LDE5LjEzSDkuNEwwLDQ1LjYybDExLjQ2LDAuMDlMMi41MSw3MS45NCAgICAgbDI0LjctMzVIMTUuMjJMMjYuODUsMTkuMTN6Ii8+JiN4YTsJCTwvZz4mI3hhOwkJPGcgaWQ9InNoYXBlNDQ0MC04IiB0cmFuc2Zvcm09InRyYW5zbGF0ZSgxOC40MzkzKSI+JiN4YTsJCQk8dGl0bGUgaWQ9InRpdGxlNTg1MjkiPlNoZWV0LjQ0NDA8L3RpdGxlPiYjeGE7CQkJPHBhdGggaWQ9InBhdGg1ODUzMSIgaW5rc2NhcGU6Y29ubmVjdG9yLWN1cnZhdHVyZT0iMCIgc3R5bGU9ImZpbGw6I0ZGOEMwMDtmaWxsLW9wYWNpdHk6MC4zOyIgZD0iTTEyLjcxLDM2Ljk0bDExLjY0LTE3LjgxICAgICBoLTkuMTNMNS41NSw0MS4xNGwxMS40NiwwLjA5TDAsNzEuOTRsMjQuNzEtMzVMMTIuNzEsMzYuOTR6Ii8+JiN4YTsJCTwvZz4mI3hhOwk8L2c+JiN4YTs8L2c+JiN4YTs8L3N2Zz4=;" parent="1" vertex="1">
          <mxGeometry x="977.88" y="269.89" width="57" height="53" as="geometry" />
        </mxCell>
        <mxCell id="OIpXf6CerVtjoZWrU3Lm-50" value="" style="endArrow=none;startArrow=classic;html=1;strokeWidth=2;strokeColor=#177CFF;entryX=0.75;entryY=1;entryDx=0;entryDy=0;exitX=0.5;exitY=0;exitDx=0;exitDy=0;endFill=0;" parent="1" source="OIpXf6CerVtjoZWrU3Lm-47" target="lP3EEBkdG0QTr18v6ItJ-13" edge="1">
          <mxGeometry width="50" height="50" relative="1" as="geometry">
            <mxPoint x="785" y="290.5699999999999" as="sourcePoint" />
            <mxPoint x="829.5" y="239.99999999999994" as="targetPoint" />
            <Array as="points" />
          </mxGeometry>
        </mxCell>
        <mxCell id="OIpXf6CerVtjoZWrU3Lm-51" value="" style="endArrow=none;startArrow=classic;html=1;strokeWidth=2;strokeColor=#177CFF;exitX=0.5;exitY=0;exitDx=0;exitDy=0;endFill=0;entryX=1;entryY=1;entryDx=0;entryDy=0;" parent="1" source="OIpXf6CerVtjoZWrU3Lm-48" target="lP3EEBkdG0QTr18v6ItJ-13" edge="1">
          <mxGeometry width="50" height="50" relative="1" as="geometry">
            <mxPoint x="900" y="245" as="sourcePoint" />
            <mxPoint x="870" y="210" as="targetPoint" />
            <Array as="points" />
          </mxGeometry>
        </mxCell>
        <mxCell id="OIpXf6CerVtjoZWrU3Lm-52" value="" style="endArrow=none;startArrow=classic;html=1;strokeWidth=2;strokeColor=#177CFF;exitX=0.5;exitY=0;exitDx=0;exitDy=0;entryX=1;entryY=0.75;entryDx=0;entryDy=0;endFill=0;" parent="1" source="OIpXf6CerVtjoZWrU3Lm-49" target="lP3EEBkdG0QTr18v6ItJ-13" edge="1">
          <mxGeometry width="50" height="50" relative="1" as="geometry">
            <mxPoint x="910" y="260.08999999999986" as="sourcePoint" />
            <mxPoint x="910" y="210" as="targetPoint" />
            <Array as="points" />
          </mxGeometry>
        </mxCell>
        <mxCell id="OIpXf6CerVtjoZWrU3Lm-53" value="Product Specification" style="text;html=1;strokeColor=none;fillColor=none;align=center;verticalAlign=middle;whiteSpace=wrap;rounded=0;glass=0;dashed=1;sketch=1;fontSize=12;fontStyle=1" parent="1" vertex="1">
          <mxGeometry x="970" y="316.83" width="77.42" height="33.17" as="geometry" />
        </mxCell>
        <mxCell id="OIpXf6CerVtjoZWrU3Lm-55" value="PreBooking" style="text;html=1;strokeColor=none;fillColor=none;align=center;verticalAlign=middle;whiteSpace=wrap;rounded=0;glass=0;dashed=1;sketch=1;fontSize=12;fontStyle=1" parent="1" vertex="1">
          <mxGeometry x="905" y="316.83" width="70.27" height="33.17" as="geometry" />
        </mxCell>
        <mxCell id="OIpXf6CerVtjoZWrU3Lm-57" value="Confirm Booking" style="text;html=1;strokeColor=none;fillColor=none;align=center;verticalAlign=middle;whiteSpace=wrap;rounded=0;glass=0;dashed=1;sketch=1;fontSize=12;fontStyle=1" parent="1" vertex="1">
          <mxGeometry x="839.1399999999998" y="316.83" width="77.42" height="33.17" as="geometry" />
        </mxCell>
        <mxCell id="OIpXf6CerVtjoZWrU3Lm-58" value="Flower Codes" style="text;html=1;strokeColor=none;fillColor=none;align=center;verticalAlign=middle;whiteSpace=wrap;rounded=0;glass=0;dashed=1;sketch=1;fontSize=12;fontStyle=1" parent="1" vertex="1">
          <mxGeometry x="765" y="316.83" width="79.25" height="33.17" as="geometry" />
        </mxCell>
        <mxCell id="OIpXf6CerVtjoZWrU3Lm-59" value="" style="endArrow=classic;startArrow=classic;html=1;strokeColor=#b85450;strokeWidth=2;entryX=0.5;entryY=0;entryDx=0;entryDy=0;fillColor=#f8cecc;exitX=0;exitY=0.5;exitDx=0;exitDy=0;" parent="1" source="OIpXf6CerVtjoZWrU3Lm-33" target="OIpXf6CerVtjoZWrU3Lm-58" edge="1">
          <mxGeometry width="50" height="50" relative="1" as="geometry">
            <mxPoint x="660" y="700" as="sourcePoint" />
            <mxPoint x="805.5" y="306.9200000000001" as="targetPoint" />
            <Array as="points" />
          </mxGeometry>
        </mxCell>
        <mxCell id="OIpXf6CerVtjoZWrU3Lm-60" value="" style="endArrow=none;startArrow=classic;html=1;strokeColor=#82b366;strokeWidth=2;entryX=0.5;entryY=0;entryDx=0;entryDy=0;exitX=1.051;exitY=0.606;exitDx=0;exitDy=0;exitPerimeter=0;fillColor=#d5e8d4;startFill=1;endFill=0;" parent="1" source="OIpXf6CerVtjoZWrU3Lm-43" target="OIpXf6CerVtjoZWrU3Lm-57" edge="1">
          <mxGeometry width="50" height="50" relative="1" as="geometry">
            <mxPoint x="650" y="465.905" as="sourcePoint" />
            <mxPoint x="933.0140000000001" y="334.99839999999995" as="targetPoint" />
            <Array as="points" />
          </mxGeometry>
        </mxCell>
        <mxCell id="OIpXf6CerVtjoZWrU3Lm-61" value="" style="endArrow=none;startArrow=classic;html=1;strokeColor=#82b366;strokeWidth=2;exitX=0.987;exitY=0.897;exitDx=0;exitDy=0;fillColor=#d5e8d4;startFill=1;endFill=0;exitPerimeter=0;" parent="1" source="lP3EEBkdG0QTr18v6ItJ-19" edge="1">
          <mxGeometry width="50" height="50" relative="1" as="geometry">
            <mxPoint x="367.3380000000001" y="638.94398" as="sourcePoint" />
            <mxPoint x="470" y="310" as="targetPoint" />
            <Array as="points" />
          </mxGeometry>
        </mxCell>
        <mxCell id="OIpXf6CerVtjoZWrU3Lm-62" value="Receive / Response request" style="text;html=1;strokeColor=none;fillColor=none;align=center;verticalAlign=middle;whiteSpace=wrap;rounded=0;glass=0;dashed=1;sketch=1;fontSize=12;fontStyle=1;rotation=-30;" parent="1" vertex="1">
          <mxGeometry x="505" y="380" width="120" height="33.17" as="geometry" />
        </mxCell>
        <mxCell id="OIpXf6CerVtjoZWrU3Lm-63" value="" style="endArrow=none;startArrow=classic;html=1;strokeWidth=2;strokeColor=#177CFF;entryX=0;entryY=1;entryDx=0;entryDy=0;endFill=0;exitX=0.5;exitY=0;exitDx=0;exitDy=0;" parent="1" source="OIpXf6CerVtjoZWrU3Lm-64" target="lP3EEBkdG0QTr18v6ItJ-13" edge="1">
          <mxGeometry width="50" height="50" relative="1" as="geometry">
            <mxPoint x="770" y="270" as="sourcePoint" />
            <mxPoint x="769.44" y="224.42999999999995" as="targetPoint" />
            <Array as="points" />
          </mxGeometry>
        </mxCell>
        <mxCell id="OIpXf6CerVtjoZWrU3Lm-64" value="" style="shape=image;verticalLabelPosition=bottom;labelBackgroundColor=#ffffff;verticalAlign=top;aspect=fixed;imageAspect=0;image=data:image/svg+xml,PHN2ZyB4bWxuczpjYz0iaHR0cDovL2NyZWF0aXZlY29tbW9ucy5vcmcvbnMjIiB4bWxuczpkYz0iaHR0cDovL3B1cmwub3JnL2RjL2VsZW1lbnRzLzEuMS8iIHhtbG5zOmlua3NjYXBlPSJodHRwOi8vd3d3Lmlua3NjYXBlLm9yZy9uYW1lc3BhY2VzL2lua3NjYXBlIiB4bWxuczpyZGY9Imh0dHA6Ly93d3cudzMub3JnLzE5OTkvMDIvMjItcmRmLXN5bnRheC1ucyMiIHhtbG5zOnNvZGlwb2RpPSJodHRwOi8vc29kaXBvZGkuc291cmNlZm9yZ2UubmV0L0RURC9zb2RpcG9kaS0wLmR0ZCIgeG1sbnM6c3ZnPSJodHRwOi8vd3d3LnczLm9yZy8yMDAwL3N2ZyIgeG1sbnM9Imh0dHA6Ly93d3cudzMub3JnLzIwMDAvc3ZnIiB4bWxuczp4bGluaz0iaHR0cDovL3d3dy53My5vcmcvMTk5OS94bGluayIgdmVyc2lvbj0iMS4xIiBpZD0ic3ZnNTg1MzciIGlua3NjYXBlOnZlcnNpb249IjAuOTIuMyAoMjQwNTU0NiwgMjAxOC0wMy0xMSkiIHNvZGlwb2RpOmRvY25hbWU9ImF6dXJlX2Z1bmN0aW9ucy5zdmciIHg9IjBweCIgeT0iMHB4IiB2aWV3Qm94PSIwIDAgNTcuMzEgNTIuODEiIHN0eWxlPSJlbmFibGUtYmFja2dyb3VuZDpuZXcgMCAwIDU3LjMxIDUyLjgxOyIgeG1sOnNwYWNlPSJwcmVzZXJ2ZSI+JiN4YTs8c29kaXBvZGk6bmFtZWR2aWV3IGJvcmRlcmNvbG9yPSIjNjY2NjY2IiBib3JkZXJvcGFjaXR5PSIxIiBmaXQtbWFyZ2luLWJvdHRvbT0iMCIgZml0LW1hcmdpbi1sZWZ0PSIwIiBmaXQtbWFyZ2luLXJpZ2h0PSIwIiBmaXQtbWFyZ2luLXRvcD0iMCIgZ3JpZHRvbGVyYW5jZT0iMTAiIGd1aWRldG9sZXJhbmNlPSIxMCIgaWQ9Im5hbWVkdmlldzU4NTM5IiBpbmtzY2FwZTpjdXJyZW50LWxheWVyPSJzdmc1ODUzNyIgaW5rc2NhcGU6Y3g9IjM5LjQ3MTQ0MiIgaW5rc2NhcGU6Y3k9IjI2LjM0NTIxNyIgaW5rc2NhcGU6cGFnZW9wYWNpdHk9IjAiIGlua3NjYXBlOnBhZ2VzaGFkb3c9IjIiIGlua3NjYXBlOndpbmRvdy1oZWlnaHQ9IjEwMTciIGlua3NjYXBlOndpbmRvdy1tYXhpbWl6ZWQ9IjEiIGlua3NjYXBlOndpbmRvdy13aWR0aD0iMTkyMCIgaW5rc2NhcGU6d2luZG93LXg9Ii04IiBpbmtzY2FwZTp3aW5kb3cteT0iLTgiIGlua3NjYXBlOnpvb209IjYuMzkxNjgyOCIgb2JqZWN0dG9sZXJhbmNlPSIxMCIgcGFnZWNvbG9yPSIjZmZmZmZmIiBzaG93Z3JpZD0iZmFsc2UiPiYjeGE7CTwvc29kaXBvZGk6bmFtZWR2aWV3PiYjeGE7PGcgaWQ9Imc1ODUzNSIgdHJhbnNmb3JtPSJ0cmFuc2xhdGUoLTkuNTYzNDE2MSwtOS41Njc2MDUyKSI+JiN4YTsJPHRpdGxlIGlkPSJ0aXRsZTU4NTEwIj5QYWdlLTE8L3RpdGxlPiYjeGE7CTxnIGlkPSJncm91cDQ0MzYtMSIgdHJhbnNmb3JtPSJ0cmFuc2xhdGUoOS4zOTU0MywtOS41NjI1KSI+JiN4YTsJCTx0aXRsZSBpZD0idGl0bGU1ODUxMiI+QXp1cmUgRnVuY3Rpb25zLjQzNzwvdGl0bGU+JiN4YTsJCTxnIGlkPSJzaGFwZTQ0MzctMiIgdHJhbnNmb3JtPSJ0cmFuc2xhdGUoMzkuMjA1OSwtMTAuMjkzOCkiPiYjeGE7CQkJPHRpdGxlIGlkPSJ0aXRsZTU4NTE0Ij5TaGVldC40NDM3PC90aXRsZT4mI3hhOwkJCTxwYXRoIGlkPSJwYXRoNTg1MTYiIGlua3NjYXBlOmNvbm5lY3Rvci1jdXJ2YXR1cmU9IjAiIHN0eWxlPSJmaWxsOiMzOTk5QzY7IiBkPSJNMTcuOSw1Ni4xOGMwLjU0LTAuNTMsMC40NS0xLjUyLDAtMi4wNiAgICAgbC0yLjc3LTIuNzdsLTEyLjM2LTEyYy0wLjUzLTAuNTMtMS4zNC0wLjUzLTEuOTYsMGMtMC41NCwwLjU0LTAuNzIsMS41MywwLDIuMDZsMTIuOTcsMTIuNzFjMC41NCwwLjU0LDAuNTQsMS41MywwLDIuMDYgICAgIEwwLjU0LDY5LjM0QzAsNjkuODgsMCw3MC44NiwwLjU0LDcxLjRjMC41MywwLjU0LDEuNTIsMC40NSwxLjk3LDBsMTIuMjYtMTIuMTdjMCwwLDAsMCwwLjA5LTAuMDlMMTcuOSw1Ni4xOHoiLz4mI3hhOwkJPC9nPiYjeGE7CQk8ZyBpZD0ic2hhcGU0NDM4LTQiIHRyYW5zZm9ybT0idHJhbnNsYXRlKDAsLTEwLjI5MzgpIj4mI3hhOwkJCTx0aXRsZSBpZD0idGl0bGU1ODUxOSI+U2hlZXQuNDQzODwvdGl0bGU+JiN4YTsJCQk8cGF0aCBpZD0icGF0aDU4NTIxIiBpbmtzY2FwZTpjb25uZWN0b3ItY3VydmF0dXJlPSIwIiBzdHlsZT0iZmlsbDojMzk5OUM2OyIgZD0iTTAuNTQsNTYuMThjLTAuNTQtMC41My0wLjQ1LTEuNTIsMC0yLjA2ICAgICBsMi43Ny0yLjc3bDEyLjM1LTEyYzAuNTQtMC41MywxLjM1LTAuNTMsMS45NywwYzAuNTQsMC41NCwwLjcyLDEuNTMsMCwyLjA2TDQuOTIsNTQuMTJjLTAuNTMsMC41NC0wLjUzLDEuNTMsMCwyLjA2TDE3LjksNjkuMzQgICAgIGMwLjU0LDAuNTQsMC41NCwxLjUyLDAsMi4wNmMtMC41MywwLjU0LTEuNTIsMC40NS0xLjk3LDBMMy40LDU5LjQxYzAsMCwwLDAtMC4wOS0wLjA5TDAuNTQsNTYuMTh6Ii8+JiN4YTsJCTwvZz4mI3hhOwkJPGcgaWQ9InNoYXBlNDQzOS02IiB0cmFuc2Zvcm09InRyYW5zbGF0ZSgxNS45MzMpIj4mI3hhOwkJCTx0aXRsZSBpZD0idGl0bGU1ODUyNCI+U2hlZXQuNDQzOTwvdGl0bGU+JiN4YTsJCQk8cGF0aCBpZD0icGF0aDU4NTI2IiBpbmtzY2FwZTpjb25uZWN0b3ItY3VydmF0dXJlPSIwIiBzdHlsZT0iZmlsbDojRkNEMTE2OyIgZD0iTTI2Ljg1LDE5LjEzSDkuNEwwLDQ1LjYybDExLjQ2LDAuMDlMMi41MSw3MS45NCAgICAgbDI0LjctMzVIMTUuMjJMMjYuODUsMTkuMTN6Ii8+JiN4YTsJCTwvZz4mI3hhOwkJPGcgaWQ9InNoYXBlNDQ0MC04IiB0cmFuc2Zvcm09InRyYW5zbGF0ZSgxOC40MzkzKSI+JiN4YTsJCQk8dGl0bGUgaWQ9InRpdGxlNTg1MjkiPlNoZWV0LjQ0NDA8L3RpdGxlPiYjeGE7CQkJPHBhdGggaWQ9InBhdGg1ODUzMSIgaW5rc2NhcGU6Y29ubmVjdG9yLWN1cnZhdHVyZT0iMCIgc3R5bGU9ImZpbGw6I0ZGOEMwMDtmaWxsLW9wYWNpdHk6MC4zOyIgZD0iTTEyLjcxLDM2Ljk0bDExLjY0LTE3LjgxICAgICBoLTkuMTNMNS41NSw0MS4xNGwxMS40NiwwLjA5TDAsNzEuOTRsMjQuNzEtMzVMMTIuNzEsMzYuOTR6Ii8+JiN4YTsJCTwvZz4mI3hhOwk8L2c+JiN4YTs8L2c+JiN4YTs8L3N2Zz4=;" parent="1" vertex="1">
          <mxGeometry x="717.9999999999999" y="269.89" width="57" height="53" as="geometry" />
        </mxCell>
        <mxCell id="OIpXf6CerVtjoZWrU3Lm-65" value="Cancel" style="text;html=1;strokeColor=none;fillColor=none;align=center;verticalAlign=middle;whiteSpace=wrap;rounded=0;glass=0;dashed=1;sketch=1;fontSize=12;fontStyle=1" parent="1" vertex="1">
          <mxGeometry x="718" y="316.83" width="55" height="33.17" as="geometry" />
        </mxCell>
        <mxCell id="JV8uliONAyXjJZ97El2D-1" value="" style="endArrow=classic;startArrow=classic;html=1;strokeColor=#177CFF;strokeWidth=2;exitX=1;exitY=0.25;exitDx=0;exitDy=0;entryX=0;entryY=0.5;entryDx=0;entryDy=0;" parent="1" source="lP3EEBkdG0QTr18v6ItJ-19" target="IlRN8V5U0eTsOI5ZAMIu-51" edge="1">
          <mxGeometry width="50" height="50" relative="1" as="geometry">
            <mxPoint x="220" y="129.5" as="sourcePoint" />
            <mxPoint x="545" y="150" as="targetPoint" />
            <Array as="points" />
          </mxGeometry>
        </mxCell>
        <mxCell id="JV8uliONAyXjJZ97El2D-2" value="" style="endArrow=classic;startArrow=classic;html=1;strokeColor=#177CFF;strokeWidth=2;entryX=0;entryY=0.5;entryDx=0;entryDy=0;exitX=1.008;exitY=0.382;exitDx=0;exitDy=0;exitPerimeter=0;" parent="1" source="lP3EEBkdG0QTr18v6ItJ-32" target="JV8uliONAyXjJZ97El2D-3" edge="1">
          <mxGeometry width="50" height="50" relative="1" as="geometry">
            <mxPoint x="410" y="575" as="sourcePoint" />
            <mxPoint x="1004.9426800000001" y="604.6878199999996" as="targetPoint" />
            <Array as="points">
              <mxPoint x="650" y="620" />
            </Array>
          </mxGeometry>
        </mxCell>
        <mxCell id="JV8uliONAyXjJZ97El2D-3" value="Receive / Response request" style="text;html=1;strokeColor=none;fillColor=none;align=center;verticalAlign=middle;whiteSpace=wrap;rounded=0;glass=0;dashed=1;sketch=1;fontSize=12;fontStyle=1;rotation=0;" parent="1" vertex="1">
          <mxGeometry x="719.14" y="622.5800000000002" width="120" height="33.17" as="geometry" />
        </mxCell>
        <mxCell id="JV8uliONAyXjJZ97El2D-6" value="" style="shape=image;verticalLabelPosition=bottom;labelBackgroundColor=#ffffff;verticalAlign=top;aspect=fixed;imageAspect=0;image=data:image/svg+xml,PHN2ZyB4bWxuczpjYz0iaHR0cDovL2NyZWF0aXZlY29tbW9ucy5vcmcvbnMjIiB4bWxuczpkYz0iaHR0cDovL3B1cmwub3JnL2RjL2VsZW1lbnRzLzEuMS8iIHhtbG5zOmlua3NjYXBlPSJodHRwOi8vd3d3Lmlua3NjYXBlLm9yZy9uYW1lc3BhY2VzL2lua3NjYXBlIiB4bWxuczpyZGY9Imh0dHA6Ly93d3cudzMub3JnLzE5OTkvMDIvMjItcmRmLXN5bnRheC1ucyMiIHhtbG5zOnNvZGlwb2RpPSJodHRwOi8vc29kaXBvZGkuc291cmNlZm9yZ2UubmV0L0RURC9zb2RpcG9kaS0wLmR0ZCIgeG1sbnM6c3ZnPSJodHRwOi8vd3d3LnczLm9yZy8yMDAwL3N2ZyIgeG1sbnM9Imh0dHA6Ly93d3cudzMub3JnLzIwMDAvc3ZnIiB4bWxuczp4bGluaz0iaHR0cDovL3d3dy53My5vcmcvMTk5OS94bGluayIgdmVyc2lvbj0iMS4xIiBpZD0ic3ZnNDYzODIiIGlua3NjYXBlOnZlcnNpb249IjAuOTIuMyAoMjQwNTU0NiwgMjAxOC0wMy0xMSkiIHNvZGlwb2RpOmRvY25hbWU9ImRhdGFiYXNlLnN2ZyIgeD0iMHB4IiB5PSIwcHgiIHZpZXdCb3g9IjAgMCAzNi44IDQ3LjY5IiBzdHlsZT0iZW5hYmxlLWJhY2tncm91bmQ6bmV3IDAgMCAzNi44IDQ3LjY5OyIgeG1sOnNwYWNlPSJwcmVzZXJ2ZSI+JiN4YTs8c29kaXBvZGk6bmFtZWR2aWV3IGJvcmRlcmNvbG9yPSIjNjY2NjY2IiBib3JkZXJvcGFjaXR5PSIxIiBmaXQtbWFyZ2luLWJvdHRvbT0iMCIgZml0LW1hcmdpbi1sZWZ0PSIwIiBmaXQtbWFyZ2luLXJpZ2h0PSIwIiBmaXQtbWFyZ2luLXRvcD0iMCIgZ3JpZHRvbGVyYW5jZT0iMTAiIGd1aWRldG9sZXJhbmNlPSIxMCIgaWQ9Im5hbWVkdmlldzQ2Mzg0IiBpbmtzY2FwZTpjdXJyZW50LWxheWVyPSJzdmc0NjM4MiIgaW5rc2NhcGU6Y3g9IjIxLjE4MTQxNyIgaW5rc2NhcGU6Y3k9IjExLjk4Mzg2NCIgaW5rc2NhcGU6cGFnZW9wYWNpdHk9IjAiIGlua3NjYXBlOnBhZ2VzaGFkb3c9IjIiIGlua3NjYXBlOndpbmRvdy1oZWlnaHQ9IjEwMTciIGlua3NjYXBlOndpbmRvdy1tYXhpbWl6ZWQ9IjEiIGlua3NjYXBlOndpbmRvdy13aWR0aD0iMTkyMCIgaW5rc2NhcGU6d2luZG93LXg9Ii04IiBpbmtzY2FwZTp3aW5kb3cteT0iLTgiIGlua3NjYXBlOnpvb209IjYuNjA5MjQwNSIgb2JqZWN0dG9sZXJhbmNlPSIxMCIgcGFnZWNvbG9yPSIjZmZmZmZmIiBzaG93Z3JpZD0iZmFsc2UiPiYjeGE7CTwvc29kaXBvZGk6bmFtZWR2aWV3PiYjeGE7PGcgaWQ9Imc0NjM4MCIgdHJhbnNmb3JtPSJ0cmFuc2xhdGUoLTAuNzUsLTAuNzQ2NjI5MTcpIj4mI3hhOwk8dGl0bGUgaWQ9InRpdGxlNDYzNTMiPlBhZ2UtMTwvdGl0bGU+JiN4YTsJPGcgaWQ9Imdyb3VwNDM5Ni0xIiB0cmFuc2Zvcm09InRyYW5zbGF0ZSgxLjUsLTEuNSkiPiYjeGE7CQk8dGl0bGUgaWQ9InRpdGxlNDYzNTUiPkRhdGFiYXNlPC90aXRsZT4mI3hhOwkJPGcgaWQ9InNoYXBlNDM5Ny0yIj4mI3hhOwkJCTx0aXRsZSBpZD0idGl0bGU0NjM1NyI+cGF0aDMxMTY8L3RpdGxlPiYjeGE7CQkJPHBhdGggaWQ9InBhdGg0NjM1OSIgaW5rc2NhcGU6Y29ubmVjdG9yLWN1cnZhdHVyZT0iMCIgc3R5bGU9ImZpbGw6I0ZGRkZGRjsiIGQ9Ik0zMS44LDkuMDFMMjEuNDUsOS4xTDAsOS4yOHYzMy4zNiAgICAgYzAsMy40Miw3LjUsNi4zNywxNy4yNiw2LjU1aDAuMzdjMS4zMiwwLDIuNi0wLjA3LDMuODItMC4xOWMzLjU3LTAuMjIsNy4wOC0xLjA3LDEwLjM1LTIuNTNjMi4xOS0xLjA5LDMuNDYtMi40MiwzLjQ2LTMuODNWOC45OCAgICAgTDMxLjgsOS4wMXoiLz4mI3hhOwkJPC9nPiYjeGE7CQk8ZyBpZD0ic2hhcGU0Mzk4LTQiIHRyYW5zZm9ybT0idHJhbnNsYXRlKDIxLjE1NjksLTAuMTg3NTYxKSI+JiN4YTsJCQk8dGl0bGUgaWQ9InRpdGxlNDYzNjIiPnBhdGgzMTE4PC90aXRsZT4mI3hhOwkJCTxwYXRoIGlkPSJwYXRoNDYzNjQiIGlua3NjYXBlOmNvbm5lY3Rvci1jdXJ2YXR1cmU9IjAiIHN0eWxlPSJmaWxsOiNFNUU1RTU7IiBkPSJNMTAuMzUsOS4ydjM3LjQ2QzcuMDgsNDguMTIsMy41Nyw0OC45NywwLDQ5LjE5ICAgICBWOS4yOUwxMC4zNSw5LjJ6Ii8+JiN4YTsJCTwvZz4mI3hhOwkJPGcgaWQ9InNoYXBlNDM5OS02Ij4mI3hhOwkJCTx0aXRsZSBpZD0idGl0bGU0NjM2NyI+cGF0aDMxMjA8L3RpdGxlPiYjeGE7CQkJPHBhdGggaWQ9InBhdGg0NjM2OSIgaW5rc2NhcGU6Y29ubmVjdG9yLWN1cnZhdHVyZT0iMCIgc3R5bGU9ImZpbGw6bm9uZTsiIGQ9Ik0wLDkuMjh2MzMuMzZjMCwzLjQyLDcuNDYsNi4zNywxNy4yNiw2LjU1aDAuMzcgICAgIGM5Ljk3LTAuMTEsMTcuNjMtMy4wOSwxNy42My02LjU1VjguOThMMCw5LjI4eiIvPiYjeGE7CQkJJiN4YTsJCQkJPHBhdGggaWQ9InBhdGg0NjM3MSIgaW5rc2NhcGU6Y29ubmVjdG9yLWN1cnZhdHVyZT0iMCIgc3R5bGU9ImZpbGw6bm9uZTtzdHJva2U6IzU1NkE4QTtzdHJva2Utd2lkdGg6MS41O3N0cm9rZS1taXRlcmxpbWl0OjM7IiBkPSIgICAgIE0wLDkuMjh2MzMuMzZjMCwzLjQyLDcuNDYsNi4zNywxNy4yNiw2LjU1aDAuMzdjOS45Ny0wLjExLDE3LjYzLTMuMDksMTcuNjMtNi41NVY4Ljk4Ii8+JiN4YTsJCTwvZz4mI3hhOwkJPGcgaWQ9InNoYXBlNDQwMC05IiB0cmFuc2Zvcm09InRyYW5zbGF0ZSgwLjA0NTAxNDYsLTMzLjQ1MzQpIj4mI3hhOwkJCTx0aXRsZSBpZD0idGl0bGU0NjM3NCI+cGF0aDMxMjI8L3RpdGxlPiYjeGE7CQkJJiN4YTsJCQkJPHBhdGggaWQ9InBhdGg0NjM3NiIgaW5rc2NhcGU6Y29ubmVjdG9yLWN1cnZhdHVyZT0iMCIgc3R5bGU9ImZpbGw6I0JBRDgwQTtzdHJva2U6IzU1NkE4QTtzdHJva2Utd2lkdGg6MS41O3N0cm9rZS1taXRlcmxpbWl0OjM7IiBkPSIgICAgIE0zNS4yNiw0Mi44MmMwLDMuNTItNy44OSw2LjM3LTE3LjYzLDYuMzdTMCw0Ni4zNCwwLDQyLjgyczguMTMtNi4zNywxNy44Ni02LjM3UzM1LjI2LDM5LjMsMzUuMjYsNDIuODJ6Ii8+JiN4YTsJCTwvZz4mI3hhOwk8L2c+JiN4YTs8L2c+JiN4YTs8L3N2Zz4=;" parent="1" vertex="1">
          <mxGeometry x="1034.88" y="742" width="37" height="48" as="geometry" />
        </mxCell>
        <mxCell id="JV8uliONAyXjJZ97El2D-8" value="" style="endArrow=classic;startArrow=classic;html=1;strokeColor=#82b366;strokeWidth=2;entryX=1;entryY=0.75;entryDx=0;entryDy=0;exitX=0.5;exitY=0;exitDx=0;exitDy=0;fillColor=#d5e8d4;" parent="1" source="JOhYQrIzyjv_7W44pP-p-4" target="OIpXf6CerVtjoZWrU3Lm-33" edge="1">
          <mxGeometry width="50" height="50" relative="1" as="geometry">
            <mxPoint x="650" y="703.75" as="sourcePoint" />
            <mxPoint x="1108.94268" y="683.9378199999996" as="targetPoint" />
            <Array as="points">
              <mxPoint x="1140" y="514" />
            </Array>
          </mxGeometry>
        </mxCell>
        <mxCell id="JV8uliONAyXjJZ97El2D-9" value="TarroVerde" style="text;html=1;strokeColor=none;fillColor=none;align=center;verticalAlign=middle;whiteSpace=wrap;rounded=0;glass=0;dashed=1;sketch=1;fontSize=12;fontStyle=1;rotation=0;" parent="1" vertex="1">
          <mxGeometry x="995.69" y="790.0000000000001" width="120" height="33.17" as="geometry" />
        </mxCell>
        <mxCell id="JV8uliONAyXjJZ97El2D-11" value="" style="endArrow=classic;startArrow=none;html=1;strokeColor=#177CFF;strokeWidth=2;exitX=1;exitY=0.5;exitDx=0;exitDy=0;startFill=0;endFill=1;entryX=0.688;entryY=-0.002;entryDx=0;entryDy=0;entryPerimeter=0;" parent="1" source="OIpXf6CerVtjoZWrU3Lm-3" target="esXLrnRzegUq6bV_iDnb-1" edge="1">
          <mxGeometry width="50" height="50" relative="1" as="geometry">
            <mxPoint x="530" y="192.86" as="sourcePoint" />
            <mxPoint x="545" y="189" as="targetPoint" />
            <Array as="points" />
          </mxGeometry>
        </mxCell>
        <mxCell id="JV8uliONAyXjJZ97El2D-12" value="" style="endArrow=classic;startArrow=classic;html=1;strokeColor=#177CFF;strokeWidth=2;exitX=1;exitY=0.5;exitDx=0;exitDy=0;startFill=1;entryX=0.856;entryY=0.001;entryDx=0;entryDy=0;entryPerimeter=0;" parent="1" source="IlRN8V5U0eTsOI5ZAMIu-51" target="esXLrnRzegUq6bV_iDnb-1" edge="1">
          <mxGeometry width="50" height="50" relative="1" as="geometry">
            <mxPoint x="236" y="164.5" as="sourcePoint" />
            <mxPoint x="700" y="192" as="targetPoint" />
            <Array as="points" />
          </mxGeometry>
        </mxCell>
        <mxCell id="JV8uliONAyXjJZ97El2D-13" value="" style="endArrow=classic;startArrow=classic;html=1;strokeWidth=2;strokeColor=#177CFF;entryX=0.5;entryY=0;entryDx=0;entryDy=0;exitX=1;exitY=0.5;exitDx=0;exitDy=0;" parent="1" source="OIpXf6CerVtjoZWrU3Lm-62" edge="1">
          <mxGeometry width="50" height="50" relative="1" as="geometry">
            <mxPoint x="178.875" y="457.625" as="sourcePoint" />
            <mxPoint x="702.8049999999998" y="243.84500000000003" as="targetPoint" />
            <Array as="points">
              <mxPoint x="630" y="355" />
              <mxPoint x="645" y="340" />
              <mxPoint x="685" y="270" />
            </Array>
          </mxGeometry>
        </mxCell>
        <mxCell id="JV8uliONAyXjJZ97El2D-15" value="" style="endArrow=classic;startArrow=classic;html=1;strokeColor=#177CFF;strokeWidth=2;exitX=1;exitY=0.5;exitDx=0;exitDy=0;entryX=0;entryY=0.75;entryDx=0;entryDy=0;" parent="1" source="JV8uliONAyXjJZ97El2D-3" target="OIpXf6CerVtjoZWrU3Lm-35" edge="1">
          <mxGeometry width="50" height="50" relative="1" as="geometry">
            <mxPoint x="886.19" y="629.5" as="sourcePoint" />
            <mxPoint x="1205.19" y="625" as="targetPoint" />
            <Array as="points" />
          </mxGeometry>
        </mxCell>
        <mxCell id="JOhYQrIzyjv_7W44pP-p-4" value="" style="shape=image;verticalLabelPosition=bottom;labelBackgroundColor=#ffffff;verticalAlign=top;aspect=fixed;imageAspect=0;image=data:image/svg+xml,PHN2ZyB4bWxuczpkYz0iaHR0cDovL3B1cmwub3JnL2RjL2VsZW1lbnRzLzEuMS8iIHhtbG5zOmNjPSJodHRwOi8vY3JlYXRpdmVjb21tb25zLm9yZy9ucyMiIHhtbG5zOnJkZj0iaHR0cDovL3d3dy53My5vcmcvMTk5OS8wMi8yMi1yZGYtc3ludGF4LW5zIyIgeG1sbnM6c3ZnPSJodHRwOi8vd3d3LnczLm9yZy8yMDAwL3N2ZyIgeG1sbnM9Imh0dHA6Ly93d3cudzMub3JnLzIwMDAvc3ZnIiB4bWxuczpzb2RpcG9kaT0iaHR0cDovL3NvZGlwb2RpLnNvdXJjZWZvcmdlLm5ldC9EVEQvc29kaXBvZGktMC5kdGQiIHhtbG5zOmlua3NjYXBlPSJodHRwOi8vd3d3Lmlua3NjYXBlLm9yZy9uYW1lc3BhY2VzL2lua3NjYXBlIiB2ZXJzaW9uPSIxLjEiIGlkPSJzdmc2MTMyMyIgaW5rc2NhcGU6dmVyc2lvbj0iMC45Mi4zICgyNDA1NTQ2LCAyMDE4LTAzLTExKSIgc29kaXBvZGk6ZG9jbmFtZT0iYXp1cmVfcG9ydGFsX3dlYl9hcHBzLnN2ZyIgeD0iMHB4IiB5PSIwcHgiIHZpZXdCb3g9IjAgMCA1MS4wMjkzMTcgNTEuMDIiIHhtbDpzcGFjZT0icHJlc2VydmUiIHdpZHRoPSI1MS4wMjkzMTYiIGhlaWdodD0iNTEuMDIiPjxtZXRhZGF0YSBpZD0ibWV0YWRhdGExMTY1NSI+PHJkZjpSREY+PGNjOldvcmsgcmRmOmFib3V0PSIiPjxkYzpmb3JtYXQ+aW1hZ2Uvc3ZnK3htbDwvZGM6Zm9ybWF0PjxkYzp0eXBlIHJkZjpyZXNvdXJjZT0iaHR0cDovL3B1cmwub3JnL2RjL2RjbWl0eXBlL1N0aWxsSW1hZ2UiLz48ZGM6dGl0bGUvPjwvY2M6V29yaz48L3JkZjpSREY+PC9tZXRhZGF0YT48ZGVmcyBpZD0iZGVmczExNjUzIi8+JiN4YTs8ZmlsdGVyIGlkPSJmaWx0ZXJfMiI+JiN4YTsJPGZlR2F1c3NpYW5CbHVyIGlkPSJmZUdhdXNzaWFuQmx1cjYxMjk2IiBzdGREZXZpYXRpb249IjIiLz4mI3hhOzwvZmlsdGVyPiYjeGE7PHNvZGlwb2RpOm5hbWVkdmlldyBib3JkZXJjb2xvcj0iIzY2NjY2NiIgYm9yZGVyb3BhY2l0eT0iMSIgZml0LW1hcmdpbi1ib3R0b209IjAiIGZpdC1tYXJnaW4tbGVmdD0iMCIgZml0LW1hcmdpbi1yaWdodD0iMCIgZml0LW1hcmdpbi10b3A9IjAiIGdyaWR0b2xlcmFuY2U9IjEwIiBndWlkZXRvbGVyYW5jZT0iMTAiIGlkPSJuYW1lZHZpZXc2MTMyNSIgaW5rc2NhcGU6Y3VycmVudC1sYXllcj0ic3ZnNjEzMjMiIGlua3NjYXBlOmN4PSItNDUuMDA0ODE4IiBpbmtzY2FwZTpjeT0iMzkuNDkwNjM4IiBpbmtzY2FwZTpwYWdlb3BhY2l0eT0iMCIgaW5rc2NhcGU6cGFnZXNoYWRvdz0iMiIgaW5rc2NhcGU6d2luZG93LWhlaWdodD0iMTAxNyIgaW5rc2NhcGU6d2luZG93LW1heGltaXplZD0iMSIgaW5rc2NhcGU6d2luZG93LXdpZHRoPSIxOTIwIiBpbmtzY2FwZTp3aW5kb3cteD0iLTgiIGlua3NjYXBlOndpbmRvdy15PSItOCIgaW5rc2NhcGU6em9vbT0iNC4zMDY1ODM0IiBvYmplY3R0b2xlcmFuY2U9IjEwIiBwYWdlY29sb3I9IiNmZmZmZmYiIHNob3dncmlkPSJmYWxzZSI+JiN4YTsJPC9zb2RpcG9kaTpuYW1lZHZpZXc+JiN4YTsmI3hhOzxwYXRoIGlkPSJwYXRoNjEzMDkiIGlua3NjYXBlOmNvbm5lY3Rvci1jdXJ2YXR1cmU9IjAiIHN0eWxlPSJmaWxsOiM1OWI0ZDkiIGQ9Im0gNDEuMDE0NTI2LDQ1Ljc2IGMgLTQuNjIsMy41MyAtMTAuMDcsNS4yNiAtMTUuNDcsNS4yNiAtNy42OCwwIC0xNS4yNywtMy40NSAtMjAuMjc5OTk5OSwtMTAuMDEgLTguNTcsLTExLjE5IC02LjQ2LC0yNy4xOCA0Ljc0OTk5OTksLTM1Ljc2IDQuNjIsLTMuNTUgMTAuMDgsLTUuMjUgMTUuNDgsLTUuMjUgNy42NywwIDE1LjI2LDMuNDUgMjAuMjgsMTAuMDEgOC41NywxMS4xOCA2LjQzLDI3LjE5IC00Ljc2LDM1Ljc1IHoiLz4mI3hhOyYjeGE7PHBhdGggaWQ9InBhdGg2MTMxNyIgaW5rc2NhcGU6Y29ubmVjdG9yLWN1cnZhdHVyZT0iMCIgc3R5bGU9ImZpbGw6I2ZmZmZmZiIgZD0ibSAzNi4zMzQ1MjYsMjkuOTggYyAxLjg1LDIuNDEgNS4yOSwyLjg1IDcuNywxLjAyIDAuMTIsLTAuMDkgMC4yMiwtMC4yMSAwLjMzLC0wLjMxIDIuNDYsMS43MyA0LjE3LDIuODcgNS4xMywzLjUzIDAuMjgsLTAuNzQgMC40OCwtMS40NSAwLjY4LC0yLjE5IC0xLjAxLC0wLjc2IC0yLjM5LC0xLjgxIC00LjM3LC0zLjQyIDAuNjUsLTEuNzIgMC40NCwtMy43MiAtMC43NSwtNS4yOCAtMS43LC0yLjIxIC00LjcyLC0yLjc3IC03LjA4LC0xLjQxIC0yLjYsLTIuMzMgLTUuNDUsLTUgLTguNDYsLTcuOTkgOS4zNSwtNS4wMyAxNiwtNC4yOSAxNiwtNC4yOSAtMS4xMSwtMS40MiAtMi4zNiwtMi42NiAtMy42OCwtMy43OCAtMy45NSwtMC42MSAtMTAuMDcsLTAuNTQgLTE3LjA3LDMuMTkgbCAtMC4wMSwtMC4wMSB2IDAgYyAtMi4zMywtMi40NCAtNC43MSwtNS4wNiAtNy4xMiwtNy44NyAtMS4xNiwwLjM3IC0yLjI5LDAuODMgLTMuMzgsMS4zOCAxLjc4LDIuOTIgNC4xOCw1Ljg3IDYuODksOC43NCAwLDAuMDEgMC4wMSwwLjAxIDAuMDIsMC4wMiAtMi4yNiwxLjU3IC00Ljc3LDMuNjggLTcuMDksNi4xMyAtMC4zLDAuMzIgLTAuNTgsMC42NCAtMC44NiwwLjk1IC0xLjM4LC0wLjI5IC0yLjg0LC0wLjIgLTQuMTk5OTk5OSwwLjI5IC0yLjMxLC00Ljk4IC0yLjEzLC04Ljk5IC0xLjc2LC0xMS4wNSAtMSwxLjA1IC0xLjk0LDIuMTUgLTIuNzUsMy4zMyAtMC42LDIuNDcgLTAuNzcsNi4wMiAxLjAxLDEwLjMgLTIuMDYsMi43IC0yLjE2LDYuNTIgLTAuMDEsOS4zNSAwLjE4LDAuMjMgMC4zNywwLjQ1IDAuNTcsMC42NSAtMC45NCwzLjIgLTEuMzYsNi4yOSAtMS40OSw4Ljk0IDAuMjQsMC4zMyAwLjI0LDAuNiAwLjQ4LDAuOTIgMS4yMywxLjU3IDIuNzYsMi44OSA0LjI1LDQuMDkgLTAuMTgsLTIuODEgMC4wMSwtNi45NSAxLjc0OTk5OTksLTExLjYxIDEuMiwwLjA5IDIuNDEsLTAuMDkgMy41NSwtMC41NyAwLjY2LDAuNTcgMS4zNCwxLjE1IDIuMDcsMS43NCAyLjUsMS45OCA1LDMuNTMgNy40Myw0Ljc0IC0wLjEyLDEuMjQgMC4xOSwyLjUyIDAuOTksMy41OSAxLjcyLDIuMjIgNC45MSwyLjY0IDcuMTMsMC45NCAwLjQ2LC0wLjM2IDAuODMsLTAuNzggMS4xMywtMS4yNCAzLjk3LDAuODggNy40NCwxLjA0IDEwLjAxLDEuMDQgMC4zOSwwIDIuMjIsLTIuNDkgMy4yNiwtNC4wMyAtMS41NiwwLjMzIC02LjIsMC45NyAtMTIuNTUsLTAuODYgLTAuMTUsLTAuNzEgLTAuNDQsLTEuNCAtMC45MSwtMi4wMiAtMS42MiwtMi4xMSAtNC41NiwtMi41NyAtNi43NiwtMS4xNSAtMi4yLC0xLjIgLTQuNTEsLTIuNyAtNi44OSwtNC41OSAtMC40OCwtMC4zOCAtMC45NSwtMC43NiAtMS4zOSwtMS4xNCAxLjQ1LC0yLjI5IDEuNjEsLTUuMjMgMC4zMiwtNy43IDAuMywtMC4yOSAwLjU4LC0wLjU5IDAuODksLTAuODggMi4zNiwtMi4yIDQuNTgsLTMuOTYgNi42NiwtNS4zOCAtMC4wOSwtMC4wOCAtMC4xNiwtMC4xNiAtMC4yNSwtMC4yNCAwLjA5LDAuMDggMC4xNiwwLjE2IDAuMjUsMC4yNCB2IDAgYyAzLjE4LDIuOTQgNi41Niw1LjczIDkuNzYsOC4yMyAtMC44NSwxLjc5IC0wLjcyLDMuOTggMC41Nyw1LjY2IHoiLz4mI3hhOzwvc3ZnPg==;" vertex="1" parent="1">
          <mxGeometry x="1120.72" y="666.75" width="37" height="37" as="geometry" />
        </mxCell>
        <mxCell id="JOhYQrIzyjv_7W44pP-p-5" value="" style="endArrow=classic;startArrow=classic;html=1;strokeColor=#82b366;strokeWidth=2;entryX=0.5;entryY=1;entryDx=0;entryDy=0;exitX=1;exitY=0.5;exitDx=0;exitDy=0;fillColor=#d5e8d4;" edge="1" parent="1" target="JOhYQrIzyjv_7W44pP-p-4">
          <mxGeometry width="50" height="50" relative="1" as="geometry">
            <mxPoint x="1076.88" y="771" as="sourcePoint" />
            <mxPoint x="1076.48" y="518.6700000000001" as="targetPoint" />
            <Array as="points">
              <mxPoint x="1139" y="771" />
            </Array>
          </mxGeometry>
        </mxCell>
        <mxCell id="JOhYQrIzyjv_7W44pP-p-6" value="LEApi" style="text;html=1;strokeColor=none;fillColor=none;align=center;verticalAlign=middle;whiteSpace=wrap;rounded=0;glass=0;dashed=1;sketch=1;fontSize=12;fontStyle=1" vertex="1" parent="1">
          <mxGeometry x="1112.62" y="695.58" width="53.2" height="33.17" as="geometry" />
        </mxCell>
      </root>
    </mxGraphModel>
  </diagram>
</mxfile>
